STARTFONT 2.1
FONT -xos4-Terminus_werty-Medium-R-Normal--18-180-72-72-C-100-ISO10646-1
SIZE 18 72 72
FONTBOUNDINGBOX 10 18 0 -3
COMMENT "Generated by fontforge, http://fontforge.sourceforge.net"
STARTPROPERTIES 20
FAMILY_NAME "Terminus_werty"
FOUNDRY "xos4"
SETWIDTH_NAME "Normal"
ADD_STYLE_NAME ""
COPYRIGHT "Copyright (C) 2020 Dimitar Toshkov Zhekov"
NOTICE "Licensed under the SIL Open Font License, Version 1.1"
WEIGHT_NAME "Medium"
SLANT "R"
PIXEL_SIZE 18
POINT_SIZE 180
RESOLUTION_X 72
RESOLUTION_Y 72
SPACING "C"
AVERAGE_WIDTH 100
CHARSET_REGISTRY "ISO10646"
CHARSET_ENCODING "1"
MIN_SPACE 10
FONT_ASCENT 15
FONT_DESCENT 3
DEFAULT_CHAR 65533
ENDPROPERTIES
CHARS 1356
STARTCHAR char0
ENCODING 0
SWIDTH 555 0
DWIDTH 10 0
BBX 7 12 1 0
BITMAP
EE
82
82
00
82
82
82
82
00
82
82
EE
ENDCHAR
STARTCHAR space
ENCODING 32
SWIDTH 555 0
DWIDTH 10 0
BBX 1 1 9 -3
BITMAP
00
ENDCHAR
STARTCHAR exclam
ENCODING 33
SWIDTH 555 0
DWIDTH 10 0
BBX 1 12 4 0
BITMAP
80
80
80
80
80
80
80
80
00
00
80
80
ENDCHAR
STARTCHAR quotedbl
ENCODING 34
SWIDTH 555 0
DWIDTH 10 0
BBX 5 4 2 10
BITMAP
88
88
88
88
ENDCHAR
STARTCHAR numbersign
ENCODING 35
SWIDTH 555 0
DWIDTH 10 0
BBX 7 12 1 0
BITMAP
44
44
44
FE
44
44
44
44
FE
44
44
44
ENDCHAR
STARTCHAR dollar
ENCODING 36
SWIDTH 555 0
DWIDTH 10 0
BBX 7 15 1 -2
BITMAP
10
10
7C
92
90
90
90
7C
12
12
12
92
7C
10
10
ENDCHAR
STARTCHAR percent
ENCODING 37
SWIDTH 555 0
DWIDTH 10 0
BBX 8 12 1 0
BITMAP
E2
A2
E4
04
08
08
10
10
20
27
45
47
ENDCHAR
STARTCHAR ampersand
ENCODING 38
SWIDTH 555 0
DWIDTH 10 0
BBX 8 12 1 0
BITMAP
38
44
44
44
28
31
49
86
82
82
85
79
ENDCHAR
STARTCHAR quotesingle
ENCODING 39
SWIDTH 555 0
DWIDTH 10 0
BBX 1 4 4 10
BITMAP
80
80
80
80
ENDCHAR
STARTCHAR parenleft
ENCODING 40
SWIDTH 555 0
DWIDTH 10 0
BBX 3 12 3 0
BITMAP
20
40
40
80
80
80
80
80
80
40
40
20
ENDCHAR
STARTCHAR parenright
ENCODING 41
SWIDTH 555 0
DWIDTH 10 0
BBX 3 12 3 0
BITMAP
80
40
40
20
20
20
20
20
20
40
40
80
ENDCHAR
STARTCHAR asterisk
ENCODING 42
SWIDTH 555 0
DWIDTH 10 0
BBX 7 7 1 3
BITMAP
44
28
10
FE
10
28
44
ENDCHAR
STARTCHAR plus
ENCODING 43
SWIDTH 555 0
DWIDTH 10 0
BBX 7 7 1 3
BITMAP
10
10
10
FE
10
10
10
ENDCHAR
STARTCHAR comma
ENCODING 44
SWIDTH 555 0
DWIDTH 10 0
BBX 2 4 3 -1
BITMAP
C0
40
40
80
ENDCHAR
STARTCHAR hyphen
ENCODING 45
SWIDTH 555 0
DWIDTH 10 0
BBX 7 1 1 6
BITMAP
FE
ENDCHAR
STARTCHAR period
ENCODING 46
SWIDTH 555 0
DWIDTH 10 0
BBX 2 2 3 0
BITMAP
C0
C0
ENDCHAR
STARTCHAR slash
ENCODING 47
SWIDTH 555 0
DWIDTH 10 0
BBX 6 12 2 0
BITMAP
04
04
08
08
10
10
20
20
40
40
80
80
ENDCHAR
STARTCHAR zero
ENCODING 48
SWIDTH 555 0
DWIDTH 10 0
BBX 7 12 1 0
BITMAP
7C
82
82
86
8A
92
A2
C2
82
82
82
7C
ENDCHAR
STARTCHAR one
ENCODING 49
SWIDTH 555 0
DWIDTH 10 0
BBX 5 12 2 0
BITMAP
20
60
A0
20
20
20
20
20
20
20
20
F8
ENDCHAR
STARTCHAR two
ENCODING 50
SWIDTH 555 0
DWIDTH 10 0
BBX 7 12 1 0
BITMAP
7C
82
82
82
02
04
08
10
20
40
80
FE
ENDCHAR
STARTCHAR three
ENCODING 51
SWIDTH 555 0
DWIDTH 10 0
BBX 7 12 1 0
BITMAP
7C
82
82
02
02
3C
02
02
02
82
82
7C
ENDCHAR
STARTCHAR four
ENCODING 52
SWIDTH 555 0
DWIDTH 10 0
BBX 7 12 1 0
BITMAP
04
0C
14
24
44
84
84
84
FE
04
04
04
ENDCHAR
STARTCHAR five
ENCODING 53
SWIDTH 555 0
DWIDTH 10 0
BBX 7 12 1 0
BITMAP
FE
80
80
80
80
FC
02
02
02
82
82
7C
ENDCHAR
STARTCHAR six
ENCODING 54
SWIDTH 555 0
DWIDTH 10 0
BBX 7 12 1 0
BITMAP
3C
40
80
80
80
FC
82
82
82
82
82
7C
ENDCHAR
STARTCHAR seven
ENCODING 55
SWIDTH 555 0
DWIDTH 10 0
BBX 7 12 1 0
BITMAP
FE
82
02
02
04
04
08
08
10
10
10
10
ENDCHAR
STARTCHAR eight
ENCODING 56
SWIDTH 555 0
DWIDTH 10 0
BBX 7 12 1 0
BITMAP
7C
82
82
82
82
7C
82
82
82
82
82
7C
ENDCHAR
STARTCHAR nine
ENCODING 57
SWIDTH 555 0
DWIDTH 10 0
BBX 7 12 1 0
BITMAP
7C
82
82
82
82
82
7E
02
02
02
04
78
ENDCHAR
STARTCHAR colon
ENCODING 58
SWIDTH 555 0
DWIDTH 10 0
BBX 2 8 4 1
BITMAP
C0
C0
00
00
00
00
C0
C0
ENDCHAR
STARTCHAR semicolon
ENCODING 59
SWIDTH 555 0
DWIDTH 10 0
BBX 3 10 3 -1
BITMAP
60
60
00
00
00
00
60
20
20
C0
ENDCHAR
STARTCHAR less
ENCODING 60
SWIDTH 555 0
DWIDTH 10 0
BBX 6 12 2 0
BITMAP
04
08
10
20
40
80
80
40
20
10
08
04
ENDCHAR
STARTCHAR equal
ENCODING 61
SWIDTH 555 0
DWIDTH 10 0
BBX 7 5 1 4
BITMAP
FE
00
00
00
FE
ENDCHAR
STARTCHAR greater
ENCODING 62
SWIDTH 555 0
DWIDTH 10 0
BBX 6 12 2 0
BITMAP
80
40
20
10
08
04
04
08
10
20
40
80
ENDCHAR
STARTCHAR question
ENCODING 63
SWIDTH 555 0
DWIDTH 10 0
BBX 7 12 1 0
BITMAP
38
44
82
82
02
04
08
10
10
00
10
10
ENDCHAR
STARTCHAR at
ENCODING 64
SWIDTH 555 0
DWIDTH 10 0
BBX 8 12 1 0
BITMAP
3E
41
81
8D
93
91
91
93
8D
80
40
3F
ENDCHAR
STARTCHAR A
ENCODING 65
SWIDTH 555 0
DWIDTH 10 0
BBX 7 12 1 0
BITMAP
38
44
82
82
82
82
FE
82
82
82
82
82
ENDCHAR
STARTCHAR B
ENCODING 66
SWIDTH 555 0
DWIDTH 10 0
BBX 7 12 1 0
BITMAP
FC
82
82
82
82
FC
82
82
82
82
82
FC
ENDCHAR
STARTCHAR C
ENCODING 67
SWIDTH 555 0
DWIDTH 10 0
BBX 7 12 1 0
BITMAP
7C
82
82
80
80
80
80
80
80
82
82
7C
ENDCHAR
STARTCHAR D
ENCODING 68
SWIDTH 555 0
DWIDTH 10 0
BBX 7 12 1 0
BITMAP
F8
84
82
82
82
82
82
82
82
82
84
F8
ENDCHAR
STARTCHAR E
ENCODING 69
SWIDTH 555 0
DWIDTH 10 0
BBX 7 12 1 0
BITMAP
FE
80
80
80
80
F8
80
80
80
80
80
FE
ENDCHAR
STARTCHAR F
ENCODING 70
SWIDTH 555 0
DWIDTH 10 0
BBX 7 12 1 0
BITMAP
FE
80
80
80
80
F8
80
80
80
80
80
80
ENDCHAR
STARTCHAR G
ENCODING 71
SWIDTH 555 0
DWIDTH 10 0
BBX 7 12 1 0
BITMAP
7C
82
82
80
80
80
9E
82
82
82
86
7A
ENDCHAR
STARTCHAR H
ENCODING 72
SWIDTH 555 0
DWIDTH 10 0
BBX 7 12 1 0
BITMAP
82
82
82
82
82
FE
82
82
82
82
82
82
ENDCHAR
STARTCHAR I
ENCODING 73
SWIDTH 555 0
DWIDTH 10 0
BBX 5 12 2 0
BITMAP
F8
20
20
20
20
20
20
20
20
20
20
F8
ENDCHAR
STARTCHAR J
ENCODING 74
SWIDTH 555 0
DWIDTH 10 0
BBX 8 12 1 0
BITMAP
1F
04
04
04
04
04
04
04
84
84
84
78
ENDCHAR
STARTCHAR K
ENCODING 75
SWIDTH 555 0
DWIDTH 10 0
BBX 7 12 1 0
BITMAP
82
84
88
90
A0
C0
C0
A0
90
88
84
82
ENDCHAR
STARTCHAR L
ENCODING 76
SWIDTH 555 0
DWIDTH 10 0
BBX 7 12 1 0
BITMAP
80
80
80
80
80
80
80
80
80
80
80
FE
ENDCHAR
STARTCHAR M
ENCODING 77
SWIDTH 555 0
DWIDTH 10 0
BBX 8 12 1 0
BITMAP
81
C3
A5
A5
99
99
81
81
81
81
81
81
ENDCHAR
STARTCHAR N
ENCODING 78
SWIDTH 555 0
DWIDTH 10 0
BBX 7 12 1 0
BITMAP
82
C2
C2
A2
A2
92
92
8A
8A
86
86
82
ENDCHAR
STARTCHAR O
ENCODING 79
SWIDTH 555 0
DWIDTH 10 0
BBX 7 12 1 0
BITMAP
7C
82
82
82
82
82
82
82
82
82
82
7C
ENDCHAR
STARTCHAR P
ENCODING 80
SWIDTH 555 0
DWIDTH 10 0
BBX 7 12 1 0
BITMAP
FC
82
82
82
82
82
FC
80
80
80
80
80
ENDCHAR
STARTCHAR Q
ENCODING 81
SWIDTH 555 0
DWIDTH 10 0
BBX 7 14 1 -2
BITMAP
7C
82
82
82
82
82
82
82
82
82
92
7C
04
02
ENDCHAR
STARTCHAR R
ENCODING 82
SWIDTH 555 0
DWIDTH 10 0
BBX 7 12 1 0
BITMAP
FC
82
82
82
82
82
FC
88
84
84
82
82
ENDCHAR
STARTCHAR S
ENCODING 83
SWIDTH 555 0
DWIDTH 10 0
BBX 7 12 1 0
BITMAP
7C
82
82
80
40
30
0C
02
02
82
82
7C
ENDCHAR
STARTCHAR T
ENCODING 84
SWIDTH 555 0
DWIDTH 10 0
BBX 7 12 1 0
BITMAP
FE
10
10
10
10
10
10
10
10
10
10
10
ENDCHAR
STARTCHAR U
ENCODING 85
SWIDTH 555 0
DWIDTH 10 0
BBX 7 12 1 0
BITMAP
82
82
82
82
82
82
82
82
82
82
82
7C
ENDCHAR
STARTCHAR V
ENCODING 86
SWIDTH 555 0
DWIDTH 10 0
BBX 7 12 1 0
BITMAP
82
82
82
82
44
44
44
28
28
28
10
10
ENDCHAR
STARTCHAR W
ENCODING 87
SWIDTH 555 0
DWIDTH 10 0
BBX 8 12 1 0
BITMAP
81
81
81
81
81
81
99
99
A5
A5
C3
81
ENDCHAR
STARTCHAR X
ENCODING 88
SWIDTH 555 0
DWIDTH 10 0
BBX 7 12 1 0
BITMAP
82
82
44
44
28
10
10
28
44
44
82
82
ENDCHAR
STARTCHAR Y
ENCODING 89
SWIDTH 555 0
DWIDTH 10 0
BBX 7 12 1 0
BITMAP
82
82
44
44
28
28
10
10
10
10
10
10
ENDCHAR
STARTCHAR Z
ENCODING 90
SWIDTH 555 0
DWIDTH 10 0
BBX 7 12 1 0
BITMAP
FE
02
02
04
08
10
20
40
80
80
80
FE
ENDCHAR
STARTCHAR bracketleft
ENCODING 91
SWIDTH 555 0
DWIDTH 10 0
BBX 3 12 3 0
BITMAP
E0
80
80
80
80
80
80
80
80
80
80
E0
ENDCHAR
STARTCHAR backslash
ENCODING 92
SWIDTH 555 0
DWIDTH 10 0
BBX 6 12 2 0
BITMAP
80
80
40
40
20
20
10
10
08
08
04
04
ENDCHAR
STARTCHAR bracketright
ENCODING 93
SWIDTH 555 0
DWIDTH 10 0
BBX 3 12 3 0
BITMAP
E0
20
20
20
20
20
20
20
20
20
20
E0
ENDCHAR
STARTCHAR asciicircum
ENCODING 94
SWIDTH 555 0
DWIDTH 10 0
BBX 7 4 1 10
BITMAP
10
28
44
82
ENDCHAR
STARTCHAR underscore
ENCODING 95
SWIDTH 555 0
DWIDTH 10 0
BBX 7 1 1 -2
BITMAP
FE
ENDCHAR
STARTCHAR grave
ENCODING 96
SWIDTH 555 0
DWIDTH 10 0
BBX 3 3 2 12
BITMAP
80
40
20
ENDCHAR
STARTCHAR a
ENCODING 97
SWIDTH 555 0
DWIDTH 10 0
BBX 7 9 1 0
BITMAP
7C
82
02
7E
82
82
82
86
7A
ENDCHAR
STARTCHAR b
ENCODING 98
SWIDTH 555 0
DWIDTH 10 0
BBX 7 12 1 0
BITMAP
80
80
80
BC
C2
82
82
82
82
82
C2
BC
ENDCHAR
STARTCHAR c
ENCODING 99
SWIDTH 555 0
DWIDTH 10 0
BBX 7 9 1 0
BITMAP
7C
82
80
80
80
80
80
82
7C
ENDCHAR
STARTCHAR d
ENCODING 100
SWIDTH 555 0
DWIDTH 10 0
BBX 7 12 1 0
BITMAP
02
02
02
7A
86
82
82
82
82
82
86
7A
ENDCHAR
STARTCHAR e
ENCODING 101
SWIDTH 555 0
DWIDTH 10 0
BBX 7 9 1 0
BITMAP
7C
82
82
82
FE
80
80
82
7C
ENDCHAR
STARTCHAR f
ENCODING 102
SWIDTH 555 0
DWIDTH 10 0
BBX 5 12 2 0
BITMAP
18
20
20
20
F8
20
20
20
20
20
20
20
ENDCHAR
STARTCHAR g
ENCODING 103
SWIDTH 555 0
DWIDTH 10 0
BBX 7 13 1 -3
BITMAP
02
7A
84
84
84
84
84
78
40
7C
82
82
7C
ENDCHAR
STARTCHAR h
ENCODING 104
SWIDTH 555 0
DWIDTH 10 0
BBX 7 12 1 0
BITMAP
80
80
80
BC
C2
82
82
82
82
82
82
82
ENDCHAR
STARTCHAR i
ENCODING 105
SWIDTH 555 0
DWIDTH 10 0
BBX 5 12 2 0
BITMAP
60
00
00
60
20
20
20
20
20
20
20
F8
ENDCHAR
STARTCHAR j
ENCODING 106
SWIDTH 555 0
DWIDTH 10 0
BBX 5 15 2 -3
BITMAP
18
00
00
38
08
08
08
08
08
08
08
08
88
88
70
ENDCHAR
STARTCHAR k
ENCODING 107
SWIDTH 555 0
DWIDTH 10 0
BBX 7 12 1 0
BITMAP
80
80
80
84
88
90
A0
E0
90
88
84
82
ENDCHAR
STARTCHAR l
ENCODING 108
SWIDTH 555 0
DWIDTH 10 0
BBX 5 12 2 0
BITMAP
60
20
20
20
20
20
20
20
20
20
20
F8
ENDCHAR
STARTCHAR m
ENCODING 109
SWIDTH 555 0
DWIDTH 10 0
BBX 7 9 1 0
BITMAP
B4
DA
92
92
92
92
92
92
92
ENDCHAR
STARTCHAR n
ENCODING 110
SWIDTH 555 0
DWIDTH 10 0
BBX 7 9 1 0
BITMAP
9C
A2
C2
82
82
82
82
82
82
ENDCHAR
STARTCHAR o
ENCODING 111
SWIDTH 555 0
DWIDTH 10 0
BBX 7 9 1 0
BITMAP
7C
82
82
82
82
82
82
82
7C
ENDCHAR
STARTCHAR p
ENCODING 112
SWIDTH 555 0
DWIDTH 10 0
BBX 7 12 1 -3
BITMAP
BC
C2
82
82
82
82
82
C2
BC
80
80
80
ENDCHAR
STARTCHAR q
ENCODING 113
SWIDTH 555 0
DWIDTH 10 0
BBX 7 12 1 -3
BITMAP
7A
86
82
82
82
82
82
86
7A
02
02
02
ENDCHAR
STARTCHAR r
ENCODING 114
SWIDTH 555 0
DWIDTH 10 0
BBX 7 9 1 0
BITMAP
9C
A2
C2
80
80
80
80
80
80
ENDCHAR
STARTCHAR s
ENCODING 115
SWIDTH 555 0
DWIDTH 10 0
BBX 7 9 1 0
BITMAP
7C
82
80
80
7C
02
02
82
7C
ENDCHAR
STARTCHAR t
ENCODING 116
SWIDTH 555 0
DWIDTH 10 0
BBX 7 12 1 0
BITMAP
10
10
10
FE
10
10
10
10
10
10
10
0E
ENDCHAR
STARTCHAR u
ENCODING 117
SWIDTH 555 0
DWIDTH 10 0
BBX 7 9 1 0
BITMAP
82
82
82
82
82
82
82
86
7A
ENDCHAR
STARTCHAR v
ENCODING 118
SWIDTH 555 0
DWIDTH 10 0
BBX 7 9 1 0
BITMAP
82
82
82
44
44
28
28
10
10
ENDCHAR
STARTCHAR w
ENCODING 119
SWIDTH 555 0
DWIDTH 10 0
BBX 7 9 1 0
BITMAP
82
82
82
92
92
92
92
92
6C
ENDCHAR
STARTCHAR x
ENCODING 120
SWIDTH 555 0
DWIDTH 10 0
BBX 7 9 1 0
BITMAP
82
82
44
28
10
28
44
82
82
ENDCHAR
STARTCHAR y
ENCODING 121
SWIDTH 555 0
DWIDTH 10 0
BBX 7 12 1 -3
BITMAP
82
82
82
82
82
82
82
46
3A
02
02
7C
ENDCHAR
STARTCHAR z
ENCODING 122
SWIDTH 555 0
DWIDTH 10 0
BBX 7 9 1 0
BITMAP
FE
02
04
08
10
20
40
80
FE
ENDCHAR
STARTCHAR braceleft
ENCODING 123
SWIDTH 555 0
DWIDTH 10 0
BBX 4 13 2 -1
BITMAP
30
40
40
20
20
40
80
40
20
20
40
40
30
ENDCHAR
STARTCHAR bar
ENCODING 124
SWIDTH 555 0
DWIDTH 10 0
BBX 1 12 4 0
BITMAP
80
80
80
80
80
80
80
80
80
80
80
80
ENDCHAR
STARTCHAR braceright
ENCODING 125
SWIDTH 555 0
DWIDTH 10 0
BBX 4 13 2 -1
BITMAP
C0
20
20
40
40
20
10
20
40
40
20
20
C0
ENDCHAR
STARTCHAR asciitilde
ENCODING 126
SWIDTH 555 0
DWIDTH 10 0
BBX 7 4 1 10
BITMAP
62
92
92
8C
ENDCHAR
STARTCHAR nbspace
ENCODING 160
SWIDTH 555 0
DWIDTH 10 0
BBX 1 1 9 -3
BITMAP
00
ENDCHAR
STARTCHAR exclamdown
ENCODING 161
SWIDTH 555 0
DWIDTH 10 0
BBX 1 12 4 0
BITMAP
80
80
00
00
80
80
80
80
80
80
80
80
ENDCHAR
STARTCHAR cent
ENCODING 162
SWIDTH 555 0
DWIDTH 10 0
BBX 7 13 1 -2
BITMAP
10
10
7C
92
90
90
90
90
90
92
7C
10
10
ENDCHAR
STARTCHAR sterling
ENCODING 163
SWIDTH 555 0
DWIDTH 10 0
BBX 7 12 1 0
BITMAP
38
44
40
40
40
F8
40
40
40
40
42
FE
ENDCHAR
STARTCHAR currency
ENCODING 164
SWIDTH 555 0
DWIDTH 10 0
BBX 8 10 1 1
BITMAP
81
42
3C
42
42
42
42
3C
42
81
ENDCHAR
STARTCHAR yen
ENCODING 165
SWIDTH 555 0
DWIDTH 10 0
BBX 7 12 1 0
BITMAP
82
82
44
44
28
10
10
7C
10
7C
10
10
ENDCHAR
STARTCHAR brokenbar
ENCODING 166
SWIDTH 555 0
DWIDTH 10 0
BBX 1 12 4 0
BITMAP
80
80
80
80
80
00
00
80
80
80
80
80
ENDCHAR
STARTCHAR section
ENCODING 167
SWIDTH 555 0
DWIDTH 10 0
BBX 5 13 2 0
BITMAP
70
88
80
60
90
88
88
88
48
30
08
88
70
ENDCHAR
STARTCHAR dieresis
ENCODING 168
SWIDTH 555 0
DWIDTH 10 0
BBX 5 2 2 13
BITMAP
88
88
ENDCHAR
STARTCHAR copyright
ENCODING 169
SWIDTH 555 0
DWIDTH 10 0
BBX 9 10 0 1
BITMAP
3E00
4100
9C80
A280
A080
A080
A280
9C80
4100
3E00
ENDCHAR
STARTCHAR ordfeminine
ENCODING 170
SWIDTH 555 0
DWIDTH 10 0
BBX 6 8 2 6
BITMAP
78
04
7C
84
84
7C
00
FC
ENDCHAR
STARTCHAR guillemotleft
ENCODING 171
SWIDTH 555 0
DWIDTH 10 0
BBX 9 9 0 0
BITMAP
0880
1100
2200
4400
8800
4400
2200
1100
0880
ENDCHAR
STARTCHAR logicalnot
ENCODING 172
SWIDTH 555 0
DWIDTH 10 0
BBX 7 5 1 3
BITMAP
FE
02
02
02
02
ENDCHAR
STARTCHAR softhyphen
ENCODING 173
SWIDTH 555 0
DWIDTH 10 0
BBX 5 1 2 6
BITMAP
F8
ENDCHAR
STARTCHAR registered
ENCODING 174
SWIDTH 555 0
DWIDTH 10 0
BBX 9 10 0 1
BITMAP
3E00
4100
BC80
A280
A280
BC80
A480
A280
4100
3E00
ENDCHAR
STARTCHAR macron
ENCODING 175
SWIDTH 555 0
DWIDTH 10 0
BBX 5 1 2 13
BITMAP
F8
ENDCHAR
STARTCHAR degree
ENCODING 176
SWIDTH 555 0
DWIDTH 10 0
BBX 5 5 2 9
BITMAP
70
88
88
88
70
ENDCHAR
STARTCHAR plusminus
ENCODING 177
SWIDTH 555 0
DWIDTH 10 0
BBX 7 10 1 0
BITMAP
10
10
10
FE
10
10
10
00
00
FE
ENDCHAR
STARTCHAR twosuperior
ENCODING 178
SWIDTH 555 0
DWIDTH 10 0
BBX 5 7 2 7
BITMAP
70
88
88
10
20
40
F8
ENDCHAR
STARTCHAR threesuperior
ENCODING 179
SWIDTH 555 0
DWIDTH 10 0
BBX 5 7 2 7
BITMAP
70
88
08
30
08
88
70
ENDCHAR
STARTCHAR acute
ENCODING 180
SWIDTH 555 0
DWIDTH 10 0
BBX 2 2 4 13
BITMAP
40
80
ENDCHAR
STARTCHAR mu
ENCODING 181
SWIDTH 555 0
DWIDTH 10 0
BBX 7 12 1 -3
BITMAP
82
82
82
82
82
82
82
86
FA
80
80
80
ENDCHAR
STARTCHAR paragraph
ENCODING 182
SWIDTH 555 0
DWIDTH 10 0
BBX 7 12 1 0
BITMAP
7E
92
92
92
92
92
72
12
12
12
12
12
ENDCHAR
STARTCHAR periodcentered
ENCODING 183
SWIDTH 555 0
DWIDTH 10 0
BBX 1 2 4 5
BITMAP
80
80
ENDCHAR
STARTCHAR cedilla
ENCODING 184
SWIDTH 555 0
DWIDTH 10 0
BBX 2 3 3 -3
BITMAP
40
40
80
ENDCHAR
STARTCHAR onesuperior
ENCODING 185
SWIDTH 555 0
DWIDTH 10 0
BBX 3 7 3 7
BITMAP
40
C0
40
40
40
40
E0
ENDCHAR
STARTCHAR ordmasculine
ENCODING 186
SWIDTH 555 0
DWIDTH 10 0
BBX 6 8 2 6
BITMAP
78
84
84
84
84
78
00
FC
ENDCHAR
STARTCHAR guillemotright
ENCODING 187
SWIDTH 555 0
DWIDTH 10 0
BBX 9 9 0 0
BITMAP
8800
4400
2200
1100
0880
1100
2200
4400
8800
ENDCHAR
STARTCHAR onequarter
ENCODING 188
SWIDTH 555 0
DWIDTH 10 0
BBX 9 14 0 -1
BITMAP
2000
6000
2080
2100
2200
2400
0800
1100
2300
4500
8900
0F00
0100
0100
ENDCHAR
STARTCHAR onehalf
ENCODING 189
SWIDTH 555 0
DWIDTH 10 0
BBX 9 14 0 -1
BITMAP
2000
6000
2080
2100
2200
2400
0800
1000
2600
4900
8100
0200
0400
0F00
ENDCHAR
STARTCHAR threequarters
ENCODING 190
SWIDTH 555 0
DWIDTH 10 0
BBX 9 14 0 -1
BITMAP
E000
1000
6080
1100
1200
E400
0800
1100
2300
4500
8900
0F00
0100
0100
ENDCHAR
STARTCHAR questiondown
ENCODING 191
SWIDTH 555 0
DWIDTH 10 0
BBX 7 12 1 0
BITMAP
10
10
00
10
10
20
40
80
82
82
44
38
ENDCHAR
STARTCHAR Agrave
ENCODING 192
SWIDTH 555 0
DWIDTH 10 0
BBX 7 15 1 0
BITMAP
20
10
00
7C
82
82
82
82
82
FE
82
82
82
82
82
ENDCHAR
STARTCHAR Aacute
ENCODING 193
SWIDTH 555 0
DWIDTH 10 0
BBX 7 15 1 0
BITMAP
08
10
00
7C
82
82
82
82
82
FE
82
82
82
82
82
ENDCHAR
STARTCHAR Acircumflex
ENCODING 194
SWIDTH 555 0
DWIDTH 10 0
BBX 7 15 1 0
BITMAP
38
44
00
7C
82
82
82
82
82
FE
82
82
82
82
82
ENDCHAR
STARTCHAR Atilde
ENCODING 195
SWIDTH 555 0
DWIDTH 10 0
BBX 7 15 1 0
BITMAP
66
98
00
7C
82
82
82
82
82
FE
82
82
82
82
82
ENDCHAR
STARTCHAR Adieresis
ENCODING 196
SWIDTH 555 0
DWIDTH 10 0
BBX 7 15 1 0
BITMAP
44
44
00
7C
82
82
82
82
82
FE
82
82
82
82
82
ENDCHAR
STARTCHAR Aring
ENCODING 197
SWIDTH 555 0
DWIDTH 10 0
BBX 7 15 1 0
BITMAP
38
44
38
7C
82
82
82
82
82
FE
82
82
82
82
82
ENDCHAR
STARTCHAR AE
ENCODING 198
SWIDTH 555 0
DWIDTH 10 0
BBX 9 12 0 0
BITMAP
7F80
8800
8800
8800
8800
FF00
8800
8800
8800
8800
8800
8F80
ENDCHAR
STARTCHAR Ccedilla
ENCODING 199
SWIDTH 555 0
DWIDTH 10 0
BBX 7 15 1 -3
BITMAP
7C
82
82
80
80
80
80
80
80
82
82
7C
10
10
20
ENDCHAR
STARTCHAR Egrave
ENCODING 200
SWIDTH 555 0
DWIDTH 10 0
BBX 7 15 1 0
BITMAP
20
10
00
FE
80
80
80
80
F8
80
80
80
80
80
FE
ENDCHAR
STARTCHAR Eacute
ENCODING 201
SWIDTH 555 0
DWIDTH 10 0
BBX 7 15 1 0
BITMAP
08
10
00
FE
80
80
80
80
F8
80
80
80
80
80
FE
ENDCHAR
STARTCHAR Ecircumflex
ENCODING 202
SWIDTH 555 0
DWIDTH 10 0
BBX 7 15 1 0
BITMAP
38
44
00
FE
80
80
80
80
F8
80
80
80
80
80
FE
ENDCHAR
STARTCHAR Edieresis
ENCODING 203
SWIDTH 555 0
DWIDTH 10 0
BBX 7 15 1 0
BITMAP
44
44
00
FE
80
80
80
80
F8
80
80
80
80
80
FE
ENDCHAR
STARTCHAR Igrave
ENCODING 204
SWIDTH 555 0
DWIDTH 10 0
BBX 3 15 3 0
BITMAP
80
40
00
E0
40
40
40
40
40
40
40
40
40
40
E0
ENDCHAR
STARTCHAR Iacute
ENCODING 205
SWIDTH 555 0
DWIDTH 10 0
BBX 3 15 3 0
BITMAP
20
40
00
E0
40
40
40
40
40
40
40
40
40
40
E0
ENDCHAR
STARTCHAR Icircumflex
ENCODING 206
SWIDTH 555 0
DWIDTH 10 0
BBX 5 15 2 0
BITMAP
70
88
00
70
20
20
20
20
20
20
20
20
20
20
70
ENDCHAR
STARTCHAR Idieresis
ENCODING 207
SWIDTH 555 0
DWIDTH 10 0
BBX 5 15 2 0
BITMAP
88
88
00
70
20
20
20
20
20
20
20
20
20
20
70
ENDCHAR
STARTCHAR Eth
ENCODING 208
SWIDTH 555 0
DWIDTH 10 0
BBX 8 12 0 0
BITMAP
7C
42
41
41
41
F9
41
41
41
41
42
7C
ENDCHAR
STARTCHAR Ntilde
ENCODING 209
SWIDTH 555 0
DWIDTH 10 0
BBX 7 15 1 0
BITMAP
66
98
00
82
82
82
C2
A2
92
8A
86
82
82
82
82
ENDCHAR
STARTCHAR Ograve
ENCODING 210
SWIDTH 555 0
DWIDTH 10 0
BBX 7 15 1 0
BITMAP
20
10
00
7C
82
82
82
82
82
82
82
82
82
82
7C
ENDCHAR
STARTCHAR Oacute
ENCODING 211
SWIDTH 555 0
DWIDTH 10 0
BBX 7 15 1 0
BITMAP
08
10
00
7C
82
82
82
82
82
82
82
82
82
82
7C
ENDCHAR
STARTCHAR Ocircumflex
ENCODING 212
SWIDTH 555 0
DWIDTH 10 0
BBX 7 15 1 0
BITMAP
38
44
00
7C
82
82
82
82
82
82
82
82
82
82
7C
ENDCHAR
STARTCHAR Otilde
ENCODING 213
SWIDTH 555 0
DWIDTH 10 0
BBX 7 15 1 0
BITMAP
66
98
00
7C
82
82
82
82
82
82
82
82
82
82
7C
ENDCHAR
STARTCHAR Odieresis
ENCODING 214
SWIDTH 555 0
DWIDTH 10 0
BBX 7 15 1 0
BITMAP
44
44
00
7C
82
82
82
82
82
82
82
82
82
82
7C
ENDCHAR
STARTCHAR multiply
ENCODING 215
SWIDTH 555 0
DWIDTH 10 0
BBX 7 7 1 3
BITMAP
82
44
28
10
28
44
82
ENDCHAR
STARTCHAR Oslash
ENCODING 216
SWIDTH 555 0
DWIDTH 10 0
BBX 9 12 0 0
BITMAP
3E00
4180
4100
4300
4500
4900
5100
6100
4100
C100
4100
3E00
ENDCHAR
STARTCHAR Ugrave
ENCODING 217
SWIDTH 555 0
DWIDTH 10 0
BBX 7 15 1 0
BITMAP
20
10
00
82
82
82
82
82
82
82
82
82
82
82
7C
ENDCHAR
STARTCHAR Uacute
ENCODING 218
SWIDTH 555 0
DWIDTH 10 0
BBX 7 15 1 0
BITMAP
08
10
00
82
82
82
82
82
82
82
82
82
82
82
7C
ENDCHAR
STARTCHAR Ucircumflex
ENCODING 219
SWIDTH 555 0
DWIDTH 10 0
BBX 7 15 1 0
BITMAP
38
44
00
82
82
82
82
82
82
82
82
82
82
82
7C
ENDCHAR
STARTCHAR Udieresis
ENCODING 220
SWIDTH 555 0
DWIDTH 10 0
BBX 7 15 1 0
BITMAP
44
44
00
82
82
82
82
82
82
82
82
82
82
82
7C
ENDCHAR
STARTCHAR Yacute
ENCODING 221
SWIDTH 555 0
DWIDTH 10 0
BBX 7 15 1 0
BITMAP
08
10
00
82
82
44
44
28
28
10
10
10
10
10
10
ENDCHAR
STARTCHAR Thorn
ENCODING 222
SWIDTH 555 0
DWIDTH 10 0
BBX 7 12 1 0
BITMAP
80
80
FC
82
82
82
82
82
FC
80
80
80
ENDCHAR
STARTCHAR germandbls
ENCODING 223
SWIDTH 555 0
DWIDTH 10 0
BBX 7 12 1 0
BITMAP
78
84
84
84
88
FC
82
82
82
82
C2
BC
ENDCHAR
STARTCHAR agrave
ENCODING 224
SWIDTH 555 0
DWIDTH 10 0
BBX 7 12 1 0
BITMAP
20
10
00
7C
02
02
7E
82
82
82
82
7E
ENDCHAR
STARTCHAR aacute
ENCODING 225
SWIDTH 555 0
DWIDTH 10 0
BBX 7 12 1 0
BITMAP
08
10
00
7C
02
02
7E
82
82
82
82
7E
ENDCHAR
STARTCHAR acircumflex
ENCODING 226
SWIDTH 555 0
DWIDTH 10 0
BBX 7 12 1 0
BITMAP
38
44
00
7C
02
02
7E
82
82
82
82
7E
ENDCHAR
STARTCHAR atilde
ENCODING 227
SWIDTH 555 0
DWIDTH 10 0
BBX 7 12 1 0
BITMAP
66
98
00
7C
02
02
7E
82
82
82
82
7E
ENDCHAR
STARTCHAR adieresis
ENCODING 228
SWIDTH 555 0
DWIDTH 10 0
BBX 7 12 1 0
BITMAP
44
44
00
7C
02
02
7E
82
82
82
82
7E
ENDCHAR
STARTCHAR aring
ENCODING 229
SWIDTH 555 0
DWIDTH 10 0
BBX 7 12 1 0
BITMAP
38
44
38
7C
02
02
7E
82
82
82
82
7E
ENDCHAR
STARTCHAR ae
ENCODING 230
SWIDTH 555 0
DWIDTH 10 0
BBX 9 9 0 0
BITMAP
7700
0880
0880
7880
8F80
8800
8800
8880
7700
ENDCHAR
STARTCHAR ccedilla
ENCODING 231
SWIDTH 555 0
DWIDTH 10 0
BBX 7 12 1 -3
BITMAP
7C
82
80
80
80
80
80
82
7C
10
10
20
ENDCHAR
STARTCHAR egrave
ENCODING 232
SWIDTH 555 0
DWIDTH 10 0
BBX 7 12 1 0
BITMAP
20
10
00
7C
82
82
82
FE
80
80
82
7C
ENDCHAR
STARTCHAR eacute
ENCODING 233
SWIDTH 555 0
DWIDTH 10 0
BBX 7 12 1 0
BITMAP
08
10
00
7C
82
82
82
FE
80
80
82
7C
ENDCHAR
STARTCHAR ecircumflex
ENCODING 234
SWIDTH 555 0
DWIDTH 10 0
BBX 7 12 1 0
BITMAP
38
44
00
7C
82
82
82
FE
80
80
82
7C
ENDCHAR
STARTCHAR edieresis
ENCODING 235
SWIDTH 555 0
DWIDTH 10 0
BBX 7 12 1 0
BITMAP
44
44
00
7C
82
82
82
FE
80
80
82
7C
ENDCHAR
STARTCHAR igrave
ENCODING 236
SWIDTH 555 0
DWIDTH 10 0
BBX 3 12 3 0
BITMAP
80
40
00
C0
40
40
40
40
40
40
40
E0
ENDCHAR
STARTCHAR iacute
ENCODING 237
SWIDTH 555 0
DWIDTH 10 0
BBX 3 12 3 0
BITMAP
20
40
00
C0
40
40
40
40
40
40
40
E0
ENDCHAR
STARTCHAR icircumflex
ENCODING 238
SWIDTH 555 0
DWIDTH 10 0
BBX 5 12 2 0
BITMAP
70
88
00
60
20
20
20
20
20
20
20
70
ENDCHAR
STARTCHAR idieresis
ENCODING 239
SWIDTH 555 0
DWIDTH 10 0
BBX 5 12 2 0
BITMAP
88
88
00
60
20
20
20
20
20
20
20
70
ENDCHAR
STARTCHAR eth
ENCODING 240
SWIDTH 555 0
DWIDTH 10 0
BBX 7 12 1 0
BITMAP
58
20
D0
08
7C
82
82
82
82
82
82
7C
ENDCHAR
STARTCHAR ntilde
ENCODING 241
SWIDTH 555 0
DWIDTH 10 0
BBX 7 12 1 0
BITMAP
66
98
00
FC
82
82
82
82
82
82
82
82
ENDCHAR
STARTCHAR ograve
ENCODING 242
SWIDTH 555 0
DWIDTH 10 0
BBX 7 12 1 0
BITMAP
20
10
00
7C
82
82
82
82
82
82
82
7C
ENDCHAR
STARTCHAR oacute
ENCODING 243
SWIDTH 555 0
DWIDTH 10 0
BBX 7 12 1 0
BITMAP
08
10
00
7C
82
82
82
82
82
82
82
7C
ENDCHAR
STARTCHAR ocircumflex
ENCODING 244
SWIDTH 555 0
DWIDTH 10 0
BBX 7 12 1 0
BITMAP
38
44
00
7C
82
82
82
82
82
82
82
7C
ENDCHAR
STARTCHAR otilde
ENCODING 245
SWIDTH 555 0
DWIDTH 10 0
BBX 7 12 1 0
BITMAP
66
98
00
7C
82
82
82
82
82
82
82
7C
ENDCHAR
STARTCHAR odieresis
ENCODING 246
SWIDTH 555 0
DWIDTH 10 0
BBX 7 12 1 0
BITMAP
44
44
00
7C
82
82
82
82
82
82
82
7C
ENDCHAR
STARTCHAR divide
ENCODING 247
SWIDTH 555 0
DWIDTH 10 0
BBX 7 9 1 2
BITMAP
10
10
00
00
FE
00
00
10
10
ENDCHAR
STARTCHAR oslash
ENCODING 248
SWIDTH 555 0
DWIDTH 10 0
BBX 9 9 0 0
BITMAP
3E80
4100
4300
4500
4900
5100
6100
4100
BE00
ENDCHAR
STARTCHAR ugrave
ENCODING 249
SWIDTH 555 0
DWIDTH 10 0
BBX 7 12 1 0
BITMAP
20
10
00
82
82
82
82
82
82
82
82
7E
ENDCHAR
STARTCHAR uacute
ENCODING 250
SWIDTH 555 0
DWIDTH 10 0
BBX 7 12 1 0
BITMAP
08
10
00
82
82
82
82
82
82
82
82
7E
ENDCHAR
STARTCHAR ucircumflex
ENCODING 251
SWIDTH 555 0
DWIDTH 10 0
BBX 7 12 1 0
BITMAP
38
44
00
82
82
82
82
82
82
82
82
7E
ENDCHAR
STARTCHAR udieresis
ENCODING 252
SWIDTH 555 0
DWIDTH 10 0
BBX 7 12 1 0
BITMAP
44
44
00
82
82
82
82
82
82
82
82
7E
ENDCHAR
STARTCHAR yacute
ENCODING 253
SWIDTH 555 0
DWIDTH 10 0
BBX 7 15 1 -3
BITMAP
08
10
00
82
82
82
82
82
82
82
82
7E
02
02
7C
ENDCHAR
STARTCHAR thorn
ENCODING 254
SWIDTH 555 0
DWIDTH 10 0
BBX 7 15 1 -3
BITMAP
80
80
80
FC
82
82
82
82
82
82
82
FC
80
80
80
ENDCHAR
STARTCHAR ydieresis
ENCODING 255
SWIDTH 555 0
DWIDTH 10 0
BBX 7 15 1 -3
BITMAP
44
44
00
82
82
82
82
82
82
82
82
7E
02
02
7C
ENDCHAR
STARTCHAR Amacron
ENCODING 256
SWIDTH 555 0
DWIDTH 10 0
BBX 7 14 1 0
BITMAP
7C
00
7C
82
82
82
82
82
FE
82
82
82
82
82
ENDCHAR
STARTCHAR amacron
ENCODING 257
SWIDTH 555 0
DWIDTH 10 0
BBX 7 11 1 0
BITMAP
7C
00
7C
02
02
7E
82
82
82
82
7E
ENDCHAR
STARTCHAR Abreve
ENCODING 258
SWIDTH 555 0
DWIDTH 10 0
BBX 7 15 1 0
BITMAP
44
38
00
7C
82
82
82
82
82
FE
82
82
82
82
82
ENDCHAR
STARTCHAR abreve
ENCODING 259
SWIDTH 555 0
DWIDTH 10 0
BBX 7 12 1 0
BITMAP
44
38
00
7C
02
02
7E
82
82
82
82
7E
ENDCHAR
STARTCHAR Aogonek
ENCODING 260
SWIDTH 555 0
DWIDTH 10 0
BBX 8 15 1 -3
BITMAP
7C
82
82
82
82
82
FE
82
82
82
82
82
02
04
03
ENDCHAR
STARTCHAR aogonek
ENCODING 261
SWIDTH 555 0
DWIDTH 10 0
BBX 8 12 1 -3
BITMAP
7C
02
02
7E
82
82
82
82
7E
02
04
03
ENDCHAR
STARTCHAR Cacute
ENCODING 262
SWIDTH 555 0
DWIDTH 10 0
BBX 7 15 1 0
BITMAP
08
10
00
7C
82
82
80
80
80
80
80
80
82
82
7C
ENDCHAR
STARTCHAR cacute
ENCODING 263
SWIDTH 555 0
DWIDTH 10 0
BBX 7 12 1 0
BITMAP
08
10
00
7C
82
80
80
80
80
80
82
7C
ENDCHAR
STARTCHAR Ccircumflex
ENCODING 264
SWIDTH 555 0
DWIDTH 10 0
BBX 7 15 1 0
BITMAP
38
44
00
7C
82
82
80
80
80
80
80
80
82
82
7C
ENDCHAR
STARTCHAR ccircumflex
ENCODING 265
SWIDTH 555 0
DWIDTH 10 0
BBX 7 12 1 0
BITMAP
38
44
00
7C
82
80
80
80
80
80
82
7C
ENDCHAR
STARTCHAR Cdotaccent
ENCODING 266
SWIDTH 555 0
DWIDTH 10 0
BBX 7 15 1 0
BITMAP
10
10
00
7C
82
82
80
80
80
80
80
80
82
82
7C
ENDCHAR
STARTCHAR cdotaccent
ENCODING 267
SWIDTH 555 0
DWIDTH 10 0
BBX 7 12 1 0
BITMAP
10
10
00
7C
82
80
80
80
80
80
82
7C
ENDCHAR
STARTCHAR Ccaron
ENCODING 268
SWIDTH 555 0
DWIDTH 10 0
BBX 7 15 1 0
BITMAP
44
38
00
7C
82
82
80
80
80
80
80
80
82
82
7C
ENDCHAR
STARTCHAR ccaron
ENCODING 269
SWIDTH 555 0
DWIDTH 10 0
BBX 7 12 1 0
BITMAP
44
38
00
7C
82
80
80
80
80
80
82
7C
ENDCHAR
STARTCHAR Dcaron
ENCODING 270
SWIDTH 555 0
DWIDTH 10 0
BBX 7 15 1 0
BITMAP
44
38
00
F8
84
82
82
82
82
82
82
82
82
84
F8
ENDCHAR
STARTCHAR dcaron
ENCODING 271
SWIDTH 555 0
DWIDTH 10 0
BBX 7 15 1 0
BITMAP
44
38
00
02
02
02
7E
82
82
82
82
82
82
82
7E
ENDCHAR
STARTCHAR Dcroat
ENCODING 272
SWIDTH 555 0
DWIDTH 10 0
BBX 8 12 0 0
BITMAP
7C
42
41
41
41
F9
41
41
41
41
42
7C
ENDCHAR
STARTCHAR dcroat
ENCODING 273
SWIDTH 555 0
DWIDTH 10 0
BBX 8 12 1 0
BITMAP
02
1F
02
7E
82
82
82
82
82
82
82
7E
ENDCHAR
STARTCHAR Emacron
ENCODING 274
SWIDTH 555 0
DWIDTH 10 0
BBX 7 14 1 0
BITMAP
7C
00
FE
80
80
80
80
F8
80
80
80
80
80
FE
ENDCHAR
STARTCHAR emacron
ENCODING 275
SWIDTH 555 0
DWIDTH 10 0
BBX 7 11 1 0
BITMAP
7C
00
7C
82
82
82
FE
80
80
82
7C
ENDCHAR
STARTCHAR Ebreve
ENCODING 276
SWIDTH 555 0
DWIDTH 10 0
BBX 7 15 1 0
BITMAP
44
38
00
FE
80
80
80
80
F8
80
80
80
80
80
FE
ENDCHAR
STARTCHAR ebreve
ENCODING 277
SWIDTH 555 0
DWIDTH 10 0
BBX 7 12 1 0
BITMAP
44
38
00
7C
82
82
82
FE
80
80
82
7C
ENDCHAR
STARTCHAR Edotaccent
ENCODING 278
SWIDTH 555 0
DWIDTH 10 0
BBX 7 15 1 0
BITMAP
10
10
00
FE
80
80
80
80
F8
80
80
80
80
80
FE
ENDCHAR
STARTCHAR edotaccent
ENCODING 279
SWIDTH 555 0
DWIDTH 10 0
BBX 7 12 1 0
BITMAP
10
10
00
7C
82
82
82
FE
80
80
82
7C
ENDCHAR
STARTCHAR Eogonek
ENCODING 280
SWIDTH 555 0
DWIDTH 10 0
BBX 8 15 1 -3
BITMAP
FE
80
80
80
80
F8
80
80
80
80
80
FE
02
04
03
ENDCHAR
STARTCHAR eogonek
ENCODING 281
SWIDTH 555 0
DWIDTH 10 0
BBX 7 12 1 -3
BITMAP
7C
82
82
82
FE
80
80
82
7C
10
20
18
ENDCHAR
STARTCHAR Ecaron
ENCODING 282
SWIDTH 555 0
DWIDTH 10 0
BBX 7 15 1 0
BITMAP
44
38
00
FE
80
80
80
80
F8
80
80
80
80
80
FE
ENDCHAR
STARTCHAR ecaron
ENCODING 283
SWIDTH 555 0
DWIDTH 10 0
BBX 7 12 1 0
BITMAP
44
38
00
7C
82
82
82
FE
80
80
82
7C
ENDCHAR
STARTCHAR Gcircumflex
ENCODING 284
SWIDTH 555 0
DWIDTH 10 0
BBX 7 15 1 0
BITMAP
38
44
00
7C
82
82
80
80
80
9E
82
82
82
82
7C
ENDCHAR
STARTCHAR gcircumflex
ENCODING 285
SWIDTH 555 0
DWIDTH 10 0
BBX 7 15 1 -3
BITMAP
38
44
00
7E
82
82
82
82
82
82
82
7E
02
02
7C
ENDCHAR
STARTCHAR Gbreve
ENCODING 286
SWIDTH 555 0
DWIDTH 10 0
BBX 7 15 1 0
BITMAP
44
38
00
7C
82
82
80
80
80
9E
82
82
82
82
7C
ENDCHAR
STARTCHAR gbreve
ENCODING 287
SWIDTH 555 0
DWIDTH 10 0
BBX 7 15 1 -3
BITMAP
44
38
00
7E
82
82
82
82
82
82
82
7E
02
02
7C
ENDCHAR
STARTCHAR Gdotaccent
ENCODING 288
SWIDTH 555 0
DWIDTH 10 0
BBX 7 15 1 0
BITMAP
10
10
00
7C
82
82
80
80
80
9E
82
82
82
82
7C
ENDCHAR
STARTCHAR gdotaccent
ENCODING 289
SWIDTH 555 0
DWIDTH 10 0
BBX 7 15 1 -3
BITMAP
10
10
00
7E
82
82
82
82
82
82
82
7E
02
02
7C
ENDCHAR
STARTCHAR Gcommaaccent
ENCODING 290
SWIDTH 555 0
DWIDTH 10 0
BBX 7 15 1 -3
BITMAP
7C
82
82
80
80
80
9E
82
82
82
82
7C
10
10
20
ENDCHAR
STARTCHAR gcommaaccent
ENCODING 291
SWIDTH 555 0
DWIDTH 10 0
BBX 7 16 1 -3
BITMAP
08
10
10
00
7E
82
82
82
82
82
82
82
7E
02
02
7C
ENDCHAR
STARTCHAR Hcircumflex
ENCODING 292
SWIDTH 555 0
DWIDTH 10 0
BBX 7 15 1 0
BITMAP
38
44
00
82
82
82
82
82
FE
82
82
82
82
82
82
ENDCHAR
STARTCHAR hcircumflex
ENCODING 293
SWIDTH 555 0
DWIDTH 10 0
BBX 7 15 1 0
BITMAP
38
44
00
80
80
80
FC
82
82
82
82
82
82
82
82
ENDCHAR
STARTCHAR Hbar
ENCODING 294
SWIDTH 555 0
DWIDTH 10 0
BBX 9 12 0 0
BITMAP
4100
4100
FF80
4100
4100
7F00
4100
4100
4100
4100
4100
4100
ENDCHAR
STARTCHAR hbar
ENCODING 295
SWIDTH 555 0
DWIDTH 10 0
BBX 8 12 0 0
BITMAP
40
F8
40
7E
41
41
41
41
41
41
41
41
ENDCHAR
STARTCHAR Itilde
ENCODING 296
SWIDTH 555 0
DWIDTH 10 0
BBX 7 15 1 0
BITMAP
66
98
00
38
10
10
10
10
10
10
10
10
10
10
38
ENDCHAR
STARTCHAR itilde
ENCODING 297
SWIDTH 555 0
DWIDTH 10 0
BBX 7 12 1 0
BITMAP
66
98
00
30
10
10
10
10
10
10
10
38
ENDCHAR
STARTCHAR Imacron
ENCODING 298
SWIDTH 555 0
DWIDTH 10 0
BBX 5 14 2 0
BITMAP
F8
00
70
20
20
20
20
20
20
20
20
20
20
70
ENDCHAR
STARTCHAR imacron
ENCODING 299
SWIDTH 555 0
DWIDTH 10 0
BBX 5 11 2 0
BITMAP
F8
00
60
20
20
20
20
20
20
20
70
ENDCHAR
STARTCHAR Ibreve
ENCODING 300
SWIDTH 555 0
DWIDTH 10 0
BBX 5 15 2 0
BITMAP
88
70
00
70
20
20
20
20
20
20
20
20
20
20
70
ENDCHAR
STARTCHAR ibreve
ENCODING 301
SWIDTH 555 0
DWIDTH 10 0
BBX 5 12 2 0
BITMAP
88
70
00
60
20
20
20
20
20
20
20
70
ENDCHAR
STARTCHAR Iogonek
ENCODING 302
SWIDTH 555 0
DWIDTH 10 0
BBX 3 15 3 -3
BITMAP
E0
40
40
40
40
40
40
40
40
40
40
E0
40
80
60
ENDCHAR
STARTCHAR iogonek
ENCODING 303
SWIDTH 555 0
DWIDTH 10 0
BBX 3 15 3 -3
BITMAP
40
40
00
C0
40
40
40
40
40
40
40
E0
40
80
60
ENDCHAR
STARTCHAR Idotaccent
ENCODING 304
SWIDTH 555 0
DWIDTH 10 0
BBX 3 15 3 0
BITMAP
40
40
00
E0
40
40
40
40
40
40
40
40
40
40
E0
ENDCHAR
STARTCHAR dotlessi
ENCODING 305
SWIDTH 555 0
DWIDTH 10 0
BBX 3 9 3 0
BITMAP
C0
40
40
40
40
40
40
40
E0
ENDCHAR
STARTCHAR IJ
ENCODING 306
SWIDTH 555 0
DWIDTH 10 0
BBX 9 12 0 0
BITMAP
E380
4100
4100
4100
4100
4100
4100
4100
4900
4900
4900
E600
ENDCHAR
STARTCHAR ij
ENCODING 307
SWIDTH 555 0
DWIDTH 10 0
BBX 8 15 1 -3
BITMAP
41
41
00
C3
41
41
41
41
41
41
41
E1
09
09
06
ENDCHAR
STARTCHAR Jcircumflex
ENCODING 308
SWIDTH 555 0
DWIDTH 10 0
BBX 8 15 1 0
BITMAP
0E
11
00
0E
04
04
04
04
04
04
04
84
84
84
78
ENDCHAR
STARTCHAR jcircumflex
ENCODING 309
SWIDTH 555 0
DWIDTH 10 0
BBX 7 15 2 -3
BITMAP
1C
22
00
18
08
08
08
08
08
08
08
08
88
88
70
ENDCHAR
STARTCHAR Kcommaaccent
ENCODING 310
SWIDTH 555 0
DWIDTH 10 0
BBX 7 15 1 -3
BITMAP
82
84
88
90
A0
C0
C0
A0
90
88
84
82
10
10
20
ENDCHAR
STARTCHAR kcommaaccent
ENCODING 311
SWIDTH 555 0
DWIDTH 10 0
BBX 7 15 1 -3
BITMAP
80
80
80
82
84
88
90
E0
90
88
84
82
10
10
20
ENDCHAR
STARTCHAR kgreenlandic
ENCODING 312
SWIDTH 555 0
DWIDTH 10 0
BBX 7 9 1 0
BITMAP
82
84
88
90
E0
90
88
84
82
ENDCHAR
STARTCHAR Lacute
ENCODING 313
SWIDTH 555 0
DWIDTH 10 0
BBX 7 15 1 0
BITMAP
40
80
00
80
80
80
80
80
80
80
80
80
80
80
FE
ENDCHAR
STARTCHAR lacute
ENCODING 314
SWIDTH 555 0
DWIDTH 10 0
BBX 3 15 3 0
BITMAP
20
40
00
C0
40
40
40
40
40
40
40
40
40
40
E0
ENDCHAR
STARTCHAR Lcommaaccent
ENCODING 315
SWIDTH 555 0
DWIDTH 10 0
BBX 7 15 1 -3
BITMAP
80
80
80
80
80
80
80
80
80
80
80
FE
10
10
20
ENDCHAR
STARTCHAR lcommaaccent
ENCODING 316
SWIDTH 555 0
DWIDTH 10 0
BBX 3 15 3 -3
BITMAP
C0
40
40
40
40
40
40
40
40
40
40
E0
40
40
80
ENDCHAR
STARTCHAR Lcaron
ENCODING 317
SWIDTH 555 0
DWIDTH 10 0
BBX 7 15 1 0
BITMAP
44
38
00
80
80
80
80
80
80
80
80
80
80
80
FE
ENDCHAR
STARTCHAR lcaron
ENCODING 318
SWIDTH 555 0
DWIDTH 10 0
BBX 5 15 2 0
BITMAP
88
70
00
60
20
20
20
20
20
20
20
20
20
20
70
ENDCHAR
STARTCHAR Ldot
ENCODING 319
SWIDTH 555 0
DWIDTH 10 0
BBX 7 12 1 0
BITMAP
80
80
80
80
80
84
84
80
80
80
80
FE
ENDCHAR
STARTCHAR ldot
ENCODING 320
SWIDTH 555 0
DWIDTH 10 0
BBX 7 12 3 0
BITMAP
C0
40
40
40
40
42
42
40
40
40
40
E0
ENDCHAR
STARTCHAR Lslash
ENCODING 321
SWIDTH 555 0
DWIDTH 10 0
BBX 9 12 0 0
BITMAP
2000
2000
2000
2800
3000
2000
6000
A000
2000
2000
2000
3F80
ENDCHAR
STARTCHAR lslash
ENCODING 322
SWIDTH 555 0
DWIDTH 10 0
BBX 5 12 2 0
BITMAP
60
20
20
28
30
20
60
A0
20
20
20
70
ENDCHAR
STARTCHAR Nacute
ENCODING 323
SWIDTH 555 0
DWIDTH 10 0
BBX 7 15 1 0
BITMAP
08
10
00
82
82
82
C2
A2
92
8A
86
82
82
82
82
ENDCHAR
STARTCHAR nacute
ENCODING 324
SWIDTH 555 0
DWIDTH 10 0
BBX 7 12 1 0
BITMAP
08
10
00
FC
82
82
82
82
82
82
82
82
ENDCHAR
STARTCHAR Ncommaaccent
ENCODING 325
SWIDTH 555 0
DWIDTH 10 0
BBX 7 15 1 -3
BITMAP
82
82
82
C2
A2
92
8A
86
82
82
82
82
10
10
20
ENDCHAR
STARTCHAR ncommaaccent
ENCODING 326
SWIDTH 555 0
DWIDTH 10 0
BBX 7 12 1 -3
BITMAP
FC
82
82
82
82
82
82
82
82
10
10
20
ENDCHAR
STARTCHAR Ncaron
ENCODING 327
SWIDTH 555 0
DWIDTH 10 0
BBX 7 15 1 0
BITMAP
44
38
00
82
82
82
C2
A2
92
8A
86
82
82
82
82
ENDCHAR
STARTCHAR ncaron
ENCODING 328
SWIDTH 555 0
DWIDTH 10 0
BBX 7 12 1 0
BITMAP
44
38
00
FC
82
82
82
82
82
82
82
82
ENDCHAR
STARTCHAR napostrophe
ENCODING 329
SWIDTH 555 0
DWIDTH 10 0
BBX 8 14 0 0
BITMAP
40
40
40
80
00
7E
41
41
41
41
41
41
41
41
ENDCHAR
STARTCHAR Eng
ENCODING 330
SWIDTH 555 0
DWIDTH 10 0
BBX 7 15 1 -3
BITMAP
82
82
82
C2
A2
92
8A
86
82
82
82
82
02
02
0C
ENDCHAR
STARTCHAR eng
ENCODING 331
SWIDTH 555 0
DWIDTH 10 0
BBX 7 12 1 -3
BITMAP
FC
82
82
82
82
82
82
82
82
02
02
0C
ENDCHAR
STARTCHAR Omacron
ENCODING 332
SWIDTH 555 0
DWIDTH 10 0
BBX 7 14 1 0
BITMAP
7C
00
7C
82
82
82
82
82
82
82
82
82
82
7C
ENDCHAR
STARTCHAR omacron
ENCODING 333
SWIDTH 555 0
DWIDTH 10 0
BBX 7 11 1 0
BITMAP
7C
00
7C
82
82
82
82
82
82
82
7C
ENDCHAR
STARTCHAR Obreve
ENCODING 334
SWIDTH 555 0
DWIDTH 10 0
BBX 7 15 1 0
BITMAP
44
38
00
7C
82
82
82
82
82
82
82
82
82
82
7C
ENDCHAR
STARTCHAR obreve
ENCODING 335
SWIDTH 555 0
DWIDTH 10 0
BBX 7 12 1 0
BITMAP
44
38
00
7C
82
82
82
82
82
82
82
7C
ENDCHAR
STARTCHAR Ohungarumlaut
ENCODING 336
SWIDTH 555 0
DWIDTH 10 0
BBX 7 15 1 0
BITMAP
22
44
00
7C
82
82
82
82
82
82
82
82
82
82
7C
ENDCHAR
STARTCHAR ohungarumlaut
ENCODING 337
SWIDTH 555 0
DWIDTH 10 0
BBX 7 12 1 0
BITMAP
22
44
00
7C
82
82
82
82
82
82
82
7C
ENDCHAR
STARTCHAR OE
ENCODING 338
SWIDTH 555 0
DWIDTH 10 0
BBX 9 12 0 0
BITMAP
7F80
8800
8800
8800
8800
8F00
8800
8800
8800
8800
8800
7F80
ENDCHAR
STARTCHAR oe
ENCODING 339
SWIDTH 555 0
DWIDTH 10 0
BBX 9 9 0 0
BITMAP
7F00
8880
8880
8880
8F80
8800
8800
8880
7F00
ENDCHAR
STARTCHAR Racute
ENCODING 340
SWIDTH 555 0
DWIDTH 10 0
BBX 7 15 1 0
BITMAP
08
10
00
FC
82
82
82
82
82
FC
A0
90
88
84
82
ENDCHAR
STARTCHAR racute
ENCODING 341
SWIDTH 555 0
DWIDTH 10 0
BBX 7 12 1 0
BITMAP
08
10
00
9E
A0
C0
80
80
80
80
80
80
ENDCHAR
STARTCHAR Rcommaaccent
ENCODING 342
SWIDTH 555 0
DWIDTH 10 0
BBX 7 15 1 -3
BITMAP
FC
82
82
82
82
82
FC
A0
90
88
84
82
10
10
20
ENDCHAR
STARTCHAR rcommaaccent
ENCODING 343
SWIDTH 555 0
DWIDTH 10 0
BBX 7 12 1 -3
BITMAP
9E
A0
C0
80
80
80
80
80
80
40
40
80
ENDCHAR
STARTCHAR Rcaron
ENCODING 344
SWIDTH 555 0
DWIDTH 10 0
BBX 7 15 1 0
BITMAP
44
38
00
FC
82
82
82
82
82
FC
A0
90
88
84
82
ENDCHAR
STARTCHAR rcaron
ENCODING 345
SWIDTH 555 0
DWIDTH 10 0
BBX 7 12 1 0
BITMAP
44
38
00
9E
A0
C0
80
80
80
80
80
80
ENDCHAR
STARTCHAR Sacute
ENCODING 346
SWIDTH 555 0
DWIDTH 10 0
BBX 7 15 1 0
BITMAP
08
10
00
7C
82
82
80
80
7C
02
02
02
82
82
7C
ENDCHAR
STARTCHAR sacute
ENCODING 347
SWIDTH 555 0
DWIDTH 10 0
BBX 7 12 1 0
BITMAP
08
10
00
7C
82
80
80
7C
02
02
82
7C
ENDCHAR
STARTCHAR Scircumflex
ENCODING 348
SWIDTH 555 0
DWIDTH 10 0
BBX 7 15 1 0
BITMAP
38
44
00
7C
82
82
80
80
7C
02
02
02
82
82
7C
ENDCHAR
STARTCHAR scircumflex
ENCODING 349
SWIDTH 555 0
DWIDTH 10 0
BBX 7 12 1 0
BITMAP
38
44
00
7C
82
80
80
7C
02
02
82
7C
ENDCHAR
STARTCHAR Scedilla
ENCODING 350
SWIDTH 555 0
DWIDTH 10 0
BBX 7 15 1 -3
BITMAP
7C
82
82
80
80
7C
02
02
02
82
82
7C
10
10
20
ENDCHAR
STARTCHAR scedilla
ENCODING 351
SWIDTH 555 0
DWIDTH 10 0
BBX 7 12 1 -3
BITMAP
7C
82
80
80
7C
02
02
82
7C
10
10
20
ENDCHAR
STARTCHAR Scaron
ENCODING 352
SWIDTH 555 0
DWIDTH 10 0
BBX 7 15 1 0
BITMAP
44
38
00
7C
82
82
80
80
7C
02
02
02
82
82
7C
ENDCHAR
STARTCHAR scaron
ENCODING 353
SWIDTH 555 0
DWIDTH 10 0
BBX 7 12 1 0
BITMAP
44
38
00
7C
82
80
80
7C
02
02
82
7C
ENDCHAR
STARTCHAR Tcedilla
ENCODING 354
SWIDTH 555 0
DWIDTH 10 0
BBX 7 15 1 -3
BITMAP
FE
10
10
10
10
10
10
10
10
10
10
10
08
08
10
ENDCHAR
STARTCHAR tcedilla
ENCODING 355
SWIDTH 555 0
DWIDTH 10 0
BBX 6 15 2 -3
BITMAP
20
20
20
F8
20
20
20
20
20
20
20
1C
08
08
10
ENDCHAR
STARTCHAR Tcaron
ENCODING 356
SWIDTH 555 0
DWIDTH 10 0
BBX 7 15 1 0
BITMAP
44
38
00
FE
10
10
10
10
10
10
10
10
10
10
10
ENDCHAR
STARTCHAR tcaron
ENCODING 357
SWIDTH 555 0
DWIDTH 10 0
BBX 6 15 2 0
BITMAP
88
70
00
20
20
20
F8
20
20
20
20
20
20
20
1C
ENDCHAR
STARTCHAR Tbar
ENCODING 358
SWIDTH 555 0
DWIDTH 10 0
BBX 7 12 1 0
BITMAP
FE
10
10
10
10
7C
10
10
10
10
10
10
ENDCHAR
STARTCHAR tbar
ENCODING 359
SWIDTH 555 0
DWIDTH 10 0
BBX 6 12 2 0
BITMAP
20
20
20
F8
20
70
20
20
20
20
20
1C
ENDCHAR
STARTCHAR Utilde
ENCODING 360
SWIDTH 555 0
DWIDTH 10 0
BBX 7 15 1 0
BITMAP
66
98
00
82
82
82
82
82
82
82
82
82
82
82
7C
ENDCHAR
STARTCHAR utilde
ENCODING 361
SWIDTH 555 0
DWIDTH 10 0
BBX 7 12 1 0
BITMAP
66
98
00
82
82
82
82
82
82
82
82
7E
ENDCHAR
STARTCHAR Umacron
ENCODING 362
SWIDTH 555 0
DWIDTH 10 0
BBX 7 14 1 0
BITMAP
7C
00
82
82
82
82
82
82
82
82
82
82
82
7C
ENDCHAR
STARTCHAR umacron
ENCODING 363
SWIDTH 555 0
DWIDTH 10 0
BBX 7 11 1 0
BITMAP
7C
00
82
82
82
82
82
82
82
82
7E
ENDCHAR
STARTCHAR Ubreve
ENCODING 364
SWIDTH 555 0
DWIDTH 10 0
BBX 7 15 1 0
BITMAP
44
38
00
82
82
82
82
82
82
82
82
82
82
82
7C
ENDCHAR
STARTCHAR ubreve
ENCODING 365
SWIDTH 555 0
DWIDTH 10 0
BBX 7 12 1 0
BITMAP
44
38
00
82
82
82
82
82
82
82
82
7E
ENDCHAR
STARTCHAR Uring
ENCODING 366
SWIDTH 555 0
DWIDTH 10 0
BBX 7 15 1 0
BITMAP
38
44
38
82
82
82
82
82
82
82
82
82
82
82
7C
ENDCHAR
STARTCHAR uring
ENCODING 367
SWIDTH 555 0
DWIDTH 10 0
BBX 7 12 1 0
BITMAP
38
44
38
82
82
82
82
82
82
82
82
7E
ENDCHAR
STARTCHAR Uhungarumlaut
ENCODING 368
SWIDTH 555 0
DWIDTH 10 0
BBX 7 15 1 0
BITMAP
22
44
00
82
82
82
82
82
82
82
82
82
82
82
7C
ENDCHAR
STARTCHAR uhungarumlaut
ENCODING 369
SWIDTH 555 0
DWIDTH 10 0
BBX 7 12 1 0
BITMAP
22
44
00
82
82
82
82
82
82
82
82
7E
ENDCHAR
STARTCHAR Uogonek
ENCODING 370
SWIDTH 555 0
DWIDTH 10 0
BBX 7 15 1 -3
BITMAP
82
82
82
82
82
82
82
82
82
82
82
7C
10
20
18
ENDCHAR
STARTCHAR uogonek
ENCODING 371
SWIDTH 555 0
DWIDTH 10 0
BBX 8 12 1 -3
BITMAP
82
82
82
82
82
82
82
82
7E
02
04
03
ENDCHAR
STARTCHAR Wcircumflex
ENCODING 372
SWIDTH 555 0
DWIDTH 10 0
BBX 8 15 1 0
BITMAP
38
44
00
81
81
81
81
81
81
99
99
A5
A5
C3
81
ENDCHAR
STARTCHAR wcircumflex
ENCODING 373
SWIDTH 555 0
DWIDTH 10 0
BBX 7 12 1 0
BITMAP
38
44
00
82
82
82
92
92
92
92
92
7C
ENDCHAR
STARTCHAR Ycircumflex
ENCODING 374
SWIDTH 555 0
DWIDTH 10 0
BBX 7 15 1 0
BITMAP
38
44
00
82
82
44
44
28
28
10
10
10
10
10
10
ENDCHAR
STARTCHAR ycircumflex
ENCODING 375
SWIDTH 555 0
DWIDTH 10 0
BBX 7 15 1 -3
BITMAP
38
44
00
82
82
82
82
82
82
82
82
7E
02
02
7C
ENDCHAR
STARTCHAR Ydieresis
ENCODING 376
SWIDTH 555 0
DWIDTH 10 0
BBX 7 15 1 0
BITMAP
44
44
00
82
82
44
44
28
28
10
10
10
10
10
10
ENDCHAR
STARTCHAR Zacute
ENCODING 377
SWIDTH 555 0
DWIDTH 10 0
BBX 7 15 1 0
BITMAP
08
10
00
FE
02
02
04
08
10
20
40
80
80
80
FE
ENDCHAR
STARTCHAR zacute
ENCODING 378
SWIDTH 555 0
DWIDTH 10 0
BBX 7 12 1 0
BITMAP
08
10
00
FE
02
04
08
10
20
40
80
FE
ENDCHAR
STARTCHAR Zdotaccent
ENCODING 379
SWIDTH 555 0
DWIDTH 10 0
BBX 7 15 1 0
BITMAP
10
10
00
FE
02
02
04
08
10
20
40
80
80
80
FE
ENDCHAR
STARTCHAR zdotaccent
ENCODING 380
SWIDTH 555 0
DWIDTH 10 0
BBX 7 12 1 0
BITMAP
10
10
00
FE
02
04
08
10
20
40
80
FE
ENDCHAR
STARTCHAR Zcaron
ENCODING 381
SWIDTH 555 0
DWIDTH 10 0
BBX 7 15 1 0
BITMAP
44
38
00
FE
02
02
04
08
10
20
40
80
80
80
FE
ENDCHAR
STARTCHAR zcaron
ENCODING 382
SWIDTH 555 0
DWIDTH 10 0
BBX 7 12 1 0
BITMAP
44
38
00
FE
02
04
08
10
20
40
80
FE
ENDCHAR
STARTCHAR longs
ENCODING 383
SWIDTH 555 0
DWIDTH 10 0
BBX 4 12 4 0
BITMAP
70
80
80
80
80
80
80
80
80
80
80
80
ENDCHAR
STARTCHAR uni0186
ENCODING 390
SWIDTH 555 0
DWIDTH 10 0
BBX 7 12 1 0
BITMAP
7C
82
82
02
02
02
02
02
02
82
82
7C
ENDCHAR
STARTCHAR uni018E
ENCODING 398
SWIDTH 555 0
DWIDTH 10 0
BBX 7 12 1 0
BITMAP
FE
02
02
02
02
3E
02
02
02
02
02
FE
ENDCHAR
STARTCHAR Schwa
ENCODING 399
SWIDTH 555 0
DWIDTH 10 0
BBX 7 12 1 0
BITMAP
7C
82
82
02
02
FE
82
82
82
82
82
7C
ENDCHAR
STARTCHAR uni0190
ENCODING 400
SWIDTH 555 0
DWIDTH 10 0
BBX 7 12 1 0
BITMAP
7C
82
82
80
80
78
80
80
80
82
82
7C
ENDCHAR
STARTCHAR florin
ENCODING 402
SWIDTH 555 0
DWIDTH 10 0
BBX 7 15 1 -3
BITMAP
0C
12
12
10
10
7C
10
10
10
10
10
10
90
90
60
ENDCHAR
STARTCHAR uni019D
ENCODING 413
SWIDTH 555 0
DWIDTH 10 0
BBX 8 15 0 -3
BITMAP
41
41
41
61
51
49
45
43
41
41
41
41
40
40
80
ENDCHAR
STARTCHAR uni019E
ENCODING 414
SWIDTH 555 0
DWIDTH 10 0
BBX 7 12 1 -3
BITMAP
FC
82
82
82
82
82
82
82
82
02
02
02
ENDCHAR
STARTCHAR uni01B5
ENCODING 437
SWIDTH 555 0
DWIDTH 10 0
BBX 7 12 1 0
BITMAP
FE
02
02
04
08
FE
10
20
40
80
80
FE
ENDCHAR
STARTCHAR uni01B6
ENCODING 438
SWIDTH 555 0
DWIDTH 10 0
BBX 7 9 1 0
BITMAP
FE
02
04
08
FE
20
40
80
FE
ENDCHAR
STARTCHAR Ezh
ENCODING 439
SWIDTH 555 0
DWIDTH 10 0
BBX 7 12 1 0
BITMAP
FE
02
04
08
10
3C
02
02
02
82
82
7C
ENDCHAR
STARTCHAR uni01CD
ENCODING 461
SWIDTH 555 0
DWIDTH 10 0
BBX 7 15 1 0
BITMAP
44
38
00
7C
82
82
82
82
82
FE
82
82
82
82
82
ENDCHAR
STARTCHAR uni01CE
ENCODING 462
SWIDTH 555 0
DWIDTH 10 0
BBX 7 12 1 0
BITMAP
44
38
00
7C
02
02
7E
82
82
82
82
7E
ENDCHAR
STARTCHAR uni01CF
ENCODING 463
SWIDTH 555 0
DWIDTH 10 0
BBX 5 15 2 0
BITMAP
88
70
00
70
20
20
20
20
20
20
20
20
20
20
70
ENDCHAR
STARTCHAR uni01D0
ENCODING 464
SWIDTH 555 0
DWIDTH 10 0
BBX 5 12 2 0
BITMAP
88
70
00
60
20
20
20
20
20
20
20
70
ENDCHAR
STARTCHAR uni01D1
ENCODING 465
SWIDTH 555 0
DWIDTH 10 0
BBX 7 15 1 0
BITMAP
44
38
00
7C
82
82
82
82
82
82
82
82
82
82
7C
ENDCHAR
STARTCHAR uni01D2
ENCODING 466
SWIDTH 555 0
DWIDTH 10 0
BBX 7 12 1 0
BITMAP
44
38
00
7C
82
82
82
82
82
82
82
7C
ENDCHAR
STARTCHAR uni01D3
ENCODING 467
SWIDTH 555 0
DWIDTH 10 0
BBX 7 15 1 0
BITMAP
44
38
00
82
82
82
82
82
82
82
82
82
82
82
7C
ENDCHAR
STARTCHAR uni01D4
ENCODING 468
SWIDTH 555 0
DWIDTH 10 0
BBX 7 12 1 0
BITMAP
44
38
00
82
82
82
82
82
82
82
82
7E
ENDCHAR
STARTCHAR uni01E2
ENCODING 482
SWIDTH 555 0
DWIDTH 10 0
BBX 9 14 0 0
BITMAP
3F00
0000
7F80
8800
8800
8800
8800
FF00
8800
8800
8800
8800
8800
8F80
ENDCHAR
STARTCHAR uni01E3
ENCODING 483
SWIDTH 555 0
DWIDTH 10 0
BBX 9 11 0 0
BITMAP
3F00
0000
7700
0880
0880
7880
8F80
8800
8800
8880
7700
ENDCHAR
STARTCHAR uni01E4
ENCODING 484
SWIDTH 555 0
DWIDTH 10 0
BBX 8 12 1 0
BITMAP
7C
82
82
80
80
80
9E
82
8F
82
82
7C
ENDCHAR
STARTCHAR uni01E5
ENCODING 485
SWIDTH 555 0
DWIDTH 10 0
BBX 8 12 1 -3
BITMAP
7E
82
82
82
8F
82
82
82
7E
02
02
7C
ENDCHAR
STARTCHAR Gcaron
ENCODING 486
SWIDTH 555 0
DWIDTH 10 0
BBX 7 15 1 0
BITMAP
44
38
00
7C
82
82
80
80
80
9E
82
82
82
82
7C
ENDCHAR
STARTCHAR gcaron
ENCODING 487
SWIDTH 555 0
DWIDTH 10 0
BBX 7 15 1 -3
BITMAP
44
38
00
7E
82
82
82
82
82
82
82
7E
02
02
7C
ENDCHAR
STARTCHAR uni01E8
ENCODING 488
SWIDTH 555 0
DWIDTH 10 0
BBX 7 15 1 0
BITMAP
44
38
00
82
84
88
90
A0
C0
C0
A0
90
88
84
82
ENDCHAR
STARTCHAR uni01E9
ENCODING 489
SWIDTH 555 0
DWIDTH 10 0
BBX 7 15 1 0
BITMAP
44
38
00
80
80
80
82
84
88
90
E0
90
88
84
82
ENDCHAR
STARTCHAR uni01EA
ENCODING 490
SWIDTH 555 0
DWIDTH 10 0
BBX 7 15 1 -3
BITMAP
7C
82
82
82
82
82
82
82
82
82
82
7C
10
20
18
ENDCHAR
STARTCHAR uni01EB
ENCODING 491
SWIDTH 555 0
DWIDTH 10 0
BBX 7 12 1 -3
BITMAP
7C
82
82
82
82
82
82
82
7C
10
20
18
ENDCHAR
STARTCHAR uni01EC
ENCODING 492
SWIDTH 555 0
DWIDTH 10 0
BBX 7 17 1 -3
BITMAP
7C
00
7C
82
82
82
82
82
82
82
82
82
82
7C
10
20
18
ENDCHAR
STARTCHAR uni01ED
ENCODING 493
SWIDTH 555 0
DWIDTH 10 0
BBX 7 14 1 -3
BITMAP
7C
00
7C
82
82
82
82
82
82
82
7C
10
20
18
ENDCHAR
STARTCHAR uni01EE
ENCODING 494
SWIDTH 555 0
DWIDTH 10 0
BBX 7 15 1 0
BITMAP
44
38
00
FE
02
04
08
10
3C
02
02
02
82
82
7C
ENDCHAR
STARTCHAR uni01EF
ENCODING 495
SWIDTH 555 0
DWIDTH 10 0
BBX 7 15 1 -3
BITMAP
44
38
00
FE
02
04
08
10
3C
02
02
02
82
82
7C
ENDCHAR
STARTCHAR uni01F0
ENCODING 496
SWIDTH 555 0
DWIDTH 10 0
BBX 7 15 2 -3
BITMAP
22
1C
00
18
08
08
08
08
08
08
08
08
88
88
70
ENDCHAR
STARTCHAR uni01F4
ENCODING 500
SWIDTH 555 0
DWIDTH 10 0
BBX 7 15 1 0
BITMAP
08
10
00
7C
82
82
80
80
80
9E
82
82
82
82
7C
ENDCHAR
STARTCHAR uni01F5
ENCODING 501
SWIDTH 555 0
DWIDTH 10 0
BBX 7 15 1 -3
BITMAP
08
10
00
7E
82
82
82
82
82
82
82
7E
02
02
7C
ENDCHAR
STARTCHAR AEacute
ENCODING 508
SWIDTH 555 0
DWIDTH 10 0
BBX 9 15 0 0
BITMAP
0400
0800
0000
7F80
8800
8800
8800
8800
FF00
8800
8800
8800
8800
8800
8F80
ENDCHAR
STARTCHAR aeacute
ENCODING 509
SWIDTH 555 0
DWIDTH 10 0
BBX 9 12 0 0
BITMAP
0400
0800
0000
7700
0880
0880
7880
8F80
8800
8800
8880
7700
ENDCHAR
STARTCHAR Oslashacute
ENCODING 510
SWIDTH 555 0
DWIDTH 10 0
BBX 9 15 0 0
BITMAP
0400
0800
0000
3E00
4180
4100
4300
4500
4900
5100
6100
4100
C100
4100
3E00
ENDCHAR
STARTCHAR oslashacute
ENCODING 511
SWIDTH 555 0
DWIDTH 10 0
BBX 9 12 0 0
BITMAP
0400
0800
0000
3E80
4100
4300
4500
4900
5100
6100
4100
BE00
ENDCHAR
STARTCHAR Scommaaccent
ENCODING 536
SWIDTH 555 0
DWIDTH 10 0
BBX 7 15 1 -3
BITMAP
7C
82
82
80
80
7C
02
02
02
82
82
7C
10
10
20
ENDCHAR
STARTCHAR scommaaccent
ENCODING 537
SWIDTH 555 0
DWIDTH 10 0
BBX 7 12 1 -3
BITMAP
7C
82
80
80
7C
02
02
82
7C
10
10
20
ENDCHAR
STARTCHAR Tcommaaccent
ENCODING 538
SWIDTH 555 0
DWIDTH 10 0
BBX 7 15 1 -3
BITMAP
FE
10
10
10
10
10
10
10
10
10
10
10
08
08
10
ENDCHAR
STARTCHAR tcommaaccent
ENCODING 539
SWIDTH 555 0
DWIDTH 10 0
BBX 6 15 2 -3
BITMAP
20
20
20
F8
20
20
20
20
20
20
20
1C
04
04
08
ENDCHAR
STARTCHAR uni0232
ENCODING 562
SWIDTH 555 0
DWIDTH 10 0
BBX 7 14 1 0
BITMAP
7C
00
82
82
44
44
28
28
10
10
10
10
10
10
ENDCHAR
STARTCHAR uni0233
ENCODING 563
SWIDTH 555 0
DWIDTH 10 0
BBX 7 14 1 -3
BITMAP
7C
00
82
82
82
82
82
82
82
82
7E
02
02
7C
ENDCHAR
STARTCHAR dotlessj
ENCODING 567
SWIDTH 555 0
DWIDTH 10 0
BBX 5 12 2 -3
BITMAP
18
08
08
08
08
08
08
08
08
88
88
70
ENDCHAR
STARTCHAR uni0254
ENCODING 596
SWIDTH 555 0
DWIDTH 10 0
BBX 7 9 1 0
BITMAP
7C
82
02
02
02
02
02
82
7C
ENDCHAR
STARTCHAR uni0258
ENCODING 600
SWIDTH 555 0
DWIDTH 10 0
BBX 7 9 1 0
BITMAP
7C
82
82
82
FE
02
02
82
7C
ENDCHAR
STARTCHAR schwa
ENCODING 601
SWIDTH 555 0
DWIDTH 10 0
BBX 7 9 1 0
BITMAP
7C
82
02
02
FE
82
82
82
7C
ENDCHAR
STARTCHAR uni025B
ENCODING 603
SWIDTH 555 0
DWIDTH 10 0
BBX 7 9 1 0
BITMAP
7C
82
80
80
78
80
80
82
7C
ENDCHAR
STARTCHAR uni0272
ENCODING 626
SWIDTH 555 0
DWIDTH 10 0
BBX 8 12 0 -3
BITMAP
7E
41
41
41
41
41
41
41
41
40
40
80
ENDCHAR
STARTCHAR ezh
ENCODING 658
SWIDTH 555 0
DWIDTH 10 0
BBX 7 12 1 -3
BITMAP
FE
02
04
08
10
3C
02
02
02
82
82
7C
ENDCHAR
STARTCHAR commaturnedmod
ENCODING 699
SWIDTH 555 0
DWIDTH 10 0
BBX 2 3 4 12
BITMAP
40
80
80
ENDCHAR
STARTCHAR afii57929
ENCODING 700
SWIDTH 555 0
DWIDTH 10 0
BBX 2 3 3 12
BITMAP
40
40
80
ENDCHAR
STARTCHAR afii64937
ENCODING 701
SWIDTH 555 0
DWIDTH 10 0
BBX 2 3 4 12
BITMAP
80
80
40
ENDCHAR
STARTCHAR circumflex
ENCODING 710
SWIDTH 555 0
DWIDTH 10 0
BBX 5 2 2 13
BITMAP
70
88
ENDCHAR
STARTCHAR caron
ENCODING 711
SWIDTH 555 0
DWIDTH 10 0
BBX 5 2 2 13
BITMAP
88
70
ENDCHAR
STARTCHAR breve
ENCODING 728
SWIDTH 555 0
DWIDTH 10 0
BBX 5 2 2 13
BITMAP
88
70
ENDCHAR
STARTCHAR dotaccent
ENCODING 729
SWIDTH 555 0
DWIDTH 10 0
BBX 1 2 4 13
BITMAP
80
80
ENDCHAR
STARTCHAR ogonek
ENCODING 731
SWIDTH 555 0
DWIDTH 10 0
BBX 3 3 3 -3
BITMAP
40
80
60
ENDCHAR
STARTCHAR tilde
ENCODING 732
SWIDTH 555 0
DWIDTH 10 0
BBX 7 2 1 13
BITMAP
66
98
ENDCHAR
STARTCHAR hungarumlaut
ENCODING 733
SWIDTH 555 0
DWIDTH 10 0
BBX 6 2 2 13
BITMAP
44
88
ENDCHAR
STARTCHAR gravecomb
ENCODING 768
SWIDTH 555 0
DWIDTH 10 0
BBX 2 2 3 13
BITMAP
80
40
ENDCHAR
STARTCHAR acutecomb
ENCODING 769
SWIDTH 555 0
DWIDTH 10 0
BBX 2 2 4 13
BITMAP
40
80
ENDCHAR
STARTCHAR uni0302
ENCODING 770
SWIDTH 555 0
DWIDTH 10 0
BBX 5 2 2 13
BITMAP
70
88
ENDCHAR
STARTCHAR tildecomb
ENCODING 771
SWIDTH 555 0
DWIDTH 10 0
BBX 7 2 1 13
BITMAP
66
98
ENDCHAR
STARTCHAR uni0304
ENCODING 772
SWIDTH 555 0
DWIDTH 10 0
BBX 5 1 2 13
BITMAP
F8
ENDCHAR
STARTCHAR uni0305
ENCODING 773
SWIDTH 555 0
DWIDTH 10 0
BBX 7 1 1 13
BITMAP
FE
ENDCHAR
STARTCHAR uni0306
ENCODING 774
SWIDTH 555 0
DWIDTH 10 0
BBX 5 2 2 13
BITMAP
88
70
ENDCHAR
STARTCHAR uni0307
ENCODING 775
SWIDTH 555 0
DWIDTH 10 0
BBX 1 2 4 13
BITMAP
80
80
ENDCHAR
STARTCHAR uni0308
ENCODING 776
SWIDTH 555 0
DWIDTH 10 0
BBX 5 2 2 13
BITMAP
88
88
ENDCHAR
STARTCHAR uni030A
ENCODING 778
SWIDTH 555 0
DWIDTH 10 0
BBX 5 3 2 12
BITMAP
70
88
70
ENDCHAR
STARTCHAR uni030B
ENCODING 779
SWIDTH 555 0
DWIDTH 10 0
BBX 6 2 2 13
BITMAP
44
88
ENDCHAR
STARTCHAR uni030C
ENCODING 780
SWIDTH 555 0
DWIDTH 10 0
BBX 5 2 2 13
BITMAP
88
70
ENDCHAR
STARTCHAR uni0329
ENCODING 809
SWIDTH 555 0
DWIDTH 10 0
BBX 1 2 4 -3
BITMAP
80
80
ENDCHAR
STARTCHAR tonos
ENCODING 900
SWIDTH 555 0
DWIDTH 10 0
BBX 2 2 0 12
BITMAP
40
80
ENDCHAR
STARTCHAR dieresistonos
ENCODING 901
SWIDTH 555 0
DWIDTH 10 0
BBX 5 5 2 10
BITMAP
10
20
00
88
88
ENDCHAR
STARTCHAR Alphatonos
ENCODING 902
SWIDTH 555 0
DWIDTH 10 0
BBX 8 14 0 0
BITMAP
40
80
3E
41
41
41
41
41
7F
41
41
41
41
41
ENDCHAR
STARTCHAR anoteleia
ENCODING 903
SWIDTH 555 0
DWIDTH 10 0
BBX 1 2 4 7
BITMAP
80
80
ENDCHAR
STARTCHAR Epsilontonos
ENCODING 904
SWIDTH 555 0
DWIDTH 10 0
BBX 8 14 0 0
BITMAP
40
80
7F
40
40
40
40
7C
40
40
40
40
40
7F
ENDCHAR
STARTCHAR Etatonos
ENCODING 905
SWIDTH 555 0
DWIDTH 10 0
BBX 8 14 0 0
BITMAP
40
80
41
41
41
41
41
7F
41
41
41
41
41
41
ENDCHAR
STARTCHAR Iotatonos
ENCODING 906
SWIDTH 555 0
DWIDTH 10 0
BBX 6 14 0 0
BITMAP
40
80
1C
08
08
08
08
08
08
08
08
08
08
1C
ENDCHAR
STARTCHAR Omicrontonos
ENCODING 908
SWIDTH 555 0
DWIDTH 10 0
BBX 8 14 0 0
BITMAP
40
80
3E
41
41
41
41
41
41
41
41
41
41
3E
ENDCHAR
STARTCHAR Upsilontonos
ENCODING 910
SWIDTH 555 0
DWIDTH 10 0
BBX 9 14 0 0
BITMAP
4000
8000
2080
2080
1100
1100
0A00
0A00
0400
0400
0400
0400
0400
0400
ENDCHAR
STARTCHAR Omegatonos
ENCODING 911
SWIDTH 555 0
DWIDTH 10 0
BBX 8 14 0 0
BITMAP
40
80
3E
41
41
41
41
41
41
41
22
14
14
77
ENDCHAR
STARTCHAR iotadieresistonos
ENCODING 912
SWIDTH 555 0
DWIDTH 10 0
BBX 5 15 2 0
BITMAP
10
20
00
88
88
00
60
20
20
20
20
20
20
20
18
ENDCHAR
STARTCHAR Alpha
ENCODING 913
SWIDTH 555 0
DWIDTH 10 0
BBX 7 12 1 0
BITMAP
7C
82
82
82
82
82
FE
82
82
82
82
82
ENDCHAR
STARTCHAR Beta
ENCODING 914
SWIDTH 555 0
DWIDTH 10 0
BBX 7 12 1 0
BITMAP
FC
82
82
82
82
FC
82
82
82
82
82
FC
ENDCHAR
STARTCHAR Gamma
ENCODING 915
SWIDTH 555 0
DWIDTH 10 0
BBX 7 12 1 0
BITMAP
FE
80
80
80
80
80
80
80
80
80
80
80
ENDCHAR
STARTCHAR Delta
ENCODING 916
SWIDTH 555 0
DWIDTH 10 0
BBX 7 12 1 0
BITMAP
10
10
10
28
28
28
44
44
44
82
82
FE
ENDCHAR
STARTCHAR Epsilon
ENCODING 917
SWIDTH 555 0
DWIDTH 10 0
BBX 7 12 1 0
BITMAP
FE
80
80
80
80
F8
80
80
80
80
80
FE
ENDCHAR
STARTCHAR Zeta
ENCODING 918
SWIDTH 555 0
DWIDTH 10 0
BBX 7 12 1 0
BITMAP
FE
02
02
04
08
10
20
40
80
80
80
FE
ENDCHAR
STARTCHAR Eta
ENCODING 919
SWIDTH 555 0
DWIDTH 10 0
BBX 7 12 1 0
BITMAP
82
82
82
82
82
FE
82
82
82
82
82
82
ENDCHAR
STARTCHAR Theta
ENCODING 920
SWIDTH 555 0
DWIDTH 10 0
BBX 7 12 1 0
BITMAP
7C
82
82
82
82
BA
82
82
82
82
82
7C
ENDCHAR
STARTCHAR Iota
ENCODING 921
SWIDTH 555 0
DWIDTH 10 0
BBX 3 12 3 0
BITMAP
E0
40
40
40
40
40
40
40
40
40
40
E0
ENDCHAR
STARTCHAR Kappa
ENCODING 922
SWIDTH 555 0
DWIDTH 10 0
BBX 7 12 1 0
BITMAP
82
84
88
90
A0
C0
C0
A0
90
88
84
82
ENDCHAR
STARTCHAR Lambda
ENCODING 923
SWIDTH 555 0
DWIDTH 10 0
BBX 7 12 1 0
BITMAP
10
10
10
28
28
28
44
44
44
82
82
82
ENDCHAR
STARTCHAR Mu
ENCODING 924
SWIDTH 555 0
DWIDTH 10 0
BBX 8 12 1 0
BITMAP
81
C3
A5
A5
99
99
81
81
81
81
81
81
ENDCHAR
STARTCHAR Nu
ENCODING 925
SWIDTH 555 0
DWIDTH 10 0
BBX 7 12 1 0
BITMAP
82
82
82
C2
A2
92
8A
86
82
82
82
82
ENDCHAR
STARTCHAR Xi
ENCODING 926
SWIDTH 555 0
DWIDTH 10 0
BBX 7 12 1 0
BITMAP
FE
00
00
00
00
7C
00
00
00
00
00
FE
ENDCHAR
STARTCHAR Omicron
ENCODING 927
SWIDTH 555 0
DWIDTH 10 0
BBX 7 12 1 0
BITMAP
7C
82
82
82
82
82
82
82
82
82
82
7C
ENDCHAR
STARTCHAR Pi
ENCODING 928
SWIDTH 555 0
DWIDTH 10 0
BBX 7 12 1 0
BITMAP
FE
82
82
82
82
82
82
82
82
82
82
82
ENDCHAR
STARTCHAR Rho
ENCODING 929
SWIDTH 555 0
DWIDTH 10 0
BBX 7 12 1 0
BITMAP
FC
82
82
82
82
82
FC
80
80
80
80
80
ENDCHAR
STARTCHAR Sigma
ENCODING 931
SWIDTH 555 0
DWIDTH 10 0
BBX 7 12 1 0
BITMAP
FE
80
40
20
10
08
08
10
20
40
80
FE
ENDCHAR
STARTCHAR Tau
ENCODING 932
SWIDTH 555 0
DWIDTH 10 0
BBX 7 12 1 0
BITMAP
FE
10
10
10
10
10
10
10
10
10
10
10
ENDCHAR
STARTCHAR Upsilon
ENCODING 933
SWIDTH 555 0
DWIDTH 10 0
BBX 7 12 1 0
BITMAP
82
82
44
44
28
28
10
10
10
10
10
10
ENDCHAR
STARTCHAR Phi
ENCODING 934
SWIDTH 555 0
DWIDTH 10 0
BBX 7 12 1 0
BITMAP
10
7C
92
92
92
92
92
92
92
92
7C
10
ENDCHAR
STARTCHAR Chi
ENCODING 935
SWIDTH 555 0
DWIDTH 10 0
BBX 7 12 1 0
BITMAP
82
82
44
44
28
10
10
28
44
44
82
82
ENDCHAR
STARTCHAR Psi
ENCODING 936
SWIDTH 555 0
DWIDTH 10 0
BBX 7 12 1 0
BITMAP
92
92
92
92
92
92
92
92
7C
10
10
10
ENDCHAR
STARTCHAR Omega
ENCODING 937
SWIDTH 555 0
DWIDTH 10 0
BBX 7 12 1 0
BITMAP
7C
82
82
82
82
82
82
82
44
28
28
EE
ENDCHAR
STARTCHAR Iotadieresis
ENCODING 938
SWIDTH 555 0
DWIDTH 10 0
BBX 5 15 2 0
BITMAP
88
88
00
70
20
20
20
20
20
20
20
20
20
20
70
ENDCHAR
STARTCHAR Upsilondieresis
ENCODING 939
SWIDTH 555 0
DWIDTH 10 0
BBX 7 15 1 0
BITMAP
44
44
00
82
82
44
44
28
28
10
10
10
10
10
10
ENDCHAR
STARTCHAR alphatonos
ENCODING 940
SWIDTH 555 0
DWIDTH 10 0
BBX 8 12 1 0
BITMAP
08
10
00
7B
86
84
84
84
84
84
86
7B
ENDCHAR
STARTCHAR epsilontonos
ENCODING 941
SWIDTH 555 0
DWIDTH 10 0
BBX 7 12 1 0
BITMAP
08
10
00
7C
82
80
80
78
80
80
82
7C
ENDCHAR
STARTCHAR etatonos
ENCODING 942
SWIDTH 555 0
DWIDTH 10 0
BBX 7 15 1 -3
BITMAP
08
10
00
FC
82
82
82
82
82
82
82
82
02
02
02
ENDCHAR
STARTCHAR iotatonos
ENCODING 943
SWIDTH 555 0
DWIDTH 10 0
BBX 4 12 3 0
BITMAP
20
40
00
C0
40
40
40
40
40
40
40
30
ENDCHAR
STARTCHAR upsilondieresistonos
ENCODING 944
SWIDTH 555 0
DWIDTH 10 0
BBX 7 15 1 0
BITMAP
08
10
00
44
44
00
82
82
82
82
82
82
82
82
7C
ENDCHAR
STARTCHAR alpha
ENCODING 945
SWIDTH 555 0
DWIDTH 10 0
BBX 8 9 1 0
BITMAP
7B
86
84
84
84
84
84
86
7B
ENDCHAR
STARTCHAR beta
ENCODING 946
SWIDTH 555 0
DWIDTH 10 0
BBX 7 15 1 -3
BITMAP
78
84
84
84
88
FC
82
82
82
82
82
FC
80
80
80
ENDCHAR
STARTCHAR gamma
ENCODING 947
SWIDTH 555 0
DWIDTH 10 0
BBX 7 12 1 -3
BITMAP
82
82
82
44
44
44
28
28
10
10
10
10
ENDCHAR
STARTCHAR delta
ENCODING 948
SWIDTH 555 0
DWIDTH 10 0
BBX 7 12 1 0
BITMAP
7C
20
10
38
44
82
82
82
82
82
44
38
ENDCHAR
STARTCHAR epsilon
ENCODING 949
SWIDTH 555 0
DWIDTH 10 0
BBX 7 9 1 0
BITMAP
7C
82
80
80
78
80
80
82
7C
ENDCHAR
STARTCHAR zeta
ENCODING 950
SWIDTH 555 0
DWIDTH 10 0
BBX 7 15 1 -3
BITMAP
FE
04
08
10
20
40
40
80
80
80
80
7C
02
02
04
ENDCHAR
STARTCHAR eta
ENCODING 951
SWIDTH 555 0
DWIDTH 10 0
BBX 7 12 1 -3
BITMAP
FC
82
82
82
82
82
82
82
82
02
02
02
ENDCHAR
STARTCHAR theta
ENCODING 952
SWIDTH 555 0
DWIDTH 10 0
BBX 6 12 2 0
BITMAP
78
84
84
84
84
FC
84
84
84
84
84
78
ENDCHAR
STARTCHAR iota
ENCODING 953
SWIDTH 555 0
DWIDTH 10 0
BBX 4 9 3 0
BITMAP
C0
40
40
40
40
40
40
40
30
ENDCHAR
STARTCHAR kappa
ENCODING 954
SWIDTH 555 0
DWIDTH 10 0
BBX 7 9 1 0
BITMAP
82
84
88
90
E0
90
88
84
82
ENDCHAR
STARTCHAR lambda
ENCODING 955
SWIDTH 555 0
DWIDTH 10 0
BBX 7 12 1 0
BITMAP
20
20
10
10
28
28
44
44
44
82
82
82
ENDCHAR
STARTCHAR mugreek
ENCODING 956
SWIDTH 555 0
DWIDTH 10 0
BBX 7 12 1 -3
BITMAP
82
82
82
82
82
82
82
86
FA
80
80
80
ENDCHAR
STARTCHAR nu
ENCODING 957
SWIDTH 555 0
DWIDTH 10 0
BBX 7 9 1 0
BITMAP
82
82
82
44
44
28
28
10
10
ENDCHAR
STARTCHAR xi
ENCODING 958
SWIDTH 555 0
DWIDTH 10 0
BBX 7 15 1 -3
BITMAP
7E
80
80
80
80
7C
80
80
80
80
80
7C
02
02
04
ENDCHAR
STARTCHAR omicron
ENCODING 959
SWIDTH 555 0
DWIDTH 10 0
BBX 7 9 1 0
BITMAP
7C
82
82
82
82
82
82
82
7C
ENDCHAR
STARTCHAR pi
ENCODING 960
SWIDTH 555 0
DWIDTH 10 0
BBX 7 9 1 0
BITMAP
FE
82
82
82
82
82
82
82
82
ENDCHAR
STARTCHAR rho
ENCODING 961
SWIDTH 555 0
DWIDTH 10 0
BBX 7 12 1 -3
BITMAP
7C
82
82
82
82
82
82
82
FC
80
80
80
ENDCHAR
STARTCHAR sigma1
ENCODING 962
SWIDTH 555 0
DWIDTH 10 0
BBX 7 12 1 -3
BITMAP
7C
82
80
80
80
80
80
80
7C
02
02
04
ENDCHAR
STARTCHAR sigma
ENCODING 963
SWIDTH 555 0
DWIDTH 10 0
BBX 8 9 1 0
BITMAP
3F
44
82
82
82
82
82
44
38
ENDCHAR
STARTCHAR tau
ENCODING 964
SWIDTH 555 0
DWIDTH 10 0
BBX 7 9 1 0
BITMAP
FE
10
10
10
10
10
10
10
0C
ENDCHAR
STARTCHAR upsilon
ENCODING 965
SWIDTH 555 0
DWIDTH 10 0
BBX 7 9 1 0
BITMAP
82
82
82
82
82
82
82
82
7C
ENDCHAR
STARTCHAR phi
ENCODING 966
SWIDTH 555 0
DWIDTH 10 0
BBX 7 12 1 -3
BITMAP
4C
92
92
92
92
92
92
92
7C
10
10
10
ENDCHAR
STARTCHAR chi
ENCODING 967
SWIDTH 555 0
DWIDTH 10 0
BBX 7 12 1 -3
BITMAP
82
82
44
44
28
10
10
28
44
44
82
82
ENDCHAR
STARTCHAR psi
ENCODING 968
SWIDTH 555 0
DWIDTH 10 0
BBX 7 12 1 -3
BITMAP
92
92
92
92
92
92
92
92
7C
10
10
10
ENDCHAR
STARTCHAR omega
ENCODING 969
SWIDTH 555 0
DWIDTH 10 0
BBX 7 9 1 0
BITMAP
44
82
82
92
92
92
92
92
6C
ENDCHAR
STARTCHAR iotadieresis
ENCODING 970
SWIDTH 555 0
DWIDTH 10 0
BBX 5 12 2 0
BITMAP
88
88
00
60
20
20
20
20
20
20
20
18
ENDCHAR
STARTCHAR upsilondieresis
ENCODING 971
SWIDTH 555 0
DWIDTH 10 0
BBX 7 12 1 0
BITMAP
44
44
00
82
82
82
82
82
82
82
82
7C
ENDCHAR
STARTCHAR omicrontonos
ENCODING 972
SWIDTH 555 0
DWIDTH 10 0
BBX 7 12 1 0
BITMAP
08
10
00
7C
82
82
82
82
82
82
82
7C
ENDCHAR
STARTCHAR upsilontonos
ENCODING 973
SWIDTH 555 0
DWIDTH 10 0
BBX 7 12 1 0
BITMAP
08
10
00
82
82
82
82
82
82
82
82
7C
ENDCHAR
STARTCHAR omegatonos
ENCODING 974
SWIDTH 555 0
DWIDTH 10 0
BBX 7 12 1 0
BITMAP
08
10
00
44
82
82
92
92
92
92
92
6C
ENDCHAR
STARTCHAR theta1
ENCODING 977
SWIDTH 555 0
DWIDTH 10 0
BBX 8 12 1 0
BITMAP
3C
42
42
42
3F
02
02
C2
42
42
42
3C
ENDCHAR
STARTCHAR phi1
ENCODING 981
SWIDTH 555 0
DWIDTH 10 0
BBX 7 13 1 -2
BITMAP
10
10
7C
92
92
92
92
92
92
92
7C
10
10
ENDCHAR
STARTCHAR uni03F0
ENCODING 1008
SWIDTH 555 0
DWIDTH 10 0
BBX 9 9 0 0
BITMAP
E080
1100
0A00
0C00
0800
1800
2800
4400
8380
ENDCHAR
STARTCHAR uni03F1
ENCODING 1009
SWIDTH 555 0
DWIDTH 10 0
BBX 7 12 1 -3
BITMAP
7C
82
82
82
82
82
82
82
FC
80
80
7C
ENDCHAR
STARTCHAR uni03F2
ENCODING 1010
SWIDTH 555 0
DWIDTH 10 0
BBX 7 9 1 0
BITMAP
7C
82
80
80
80
80
80
82
7C
ENDCHAR
STARTCHAR uni03F3
ENCODING 1011
SWIDTH 555 0
DWIDTH 10 0
BBX 5 15 2 -3
BITMAP
08
08
00
18
08
08
08
08
08
08
08
08
88
88
70
ENDCHAR
STARTCHAR uni03F4
ENCODING 1012
SWIDTH 555 0
DWIDTH 10 0
BBX 7 12 1 0
BITMAP
7C
82
82
82
82
FE
82
82
82
82
82
7C
ENDCHAR
STARTCHAR uni03F5
ENCODING 1013
SWIDTH 555 0
DWIDTH 10 0
BBX 7 9 1 0
BITMAP
3E
40
80
80
FC
80
80
40
3E
ENDCHAR
STARTCHAR uni03F6
ENCODING 1014
SWIDTH 555 0
DWIDTH 10 0
BBX 7 9 1 0
BITMAP
F8
04
02
02
7E
02
02
04
F8
ENDCHAR
STARTCHAR uni0400
ENCODING 1024
SWIDTH 555 0
DWIDTH 10 0
BBX 7 15 1 0
BITMAP
20
10
00
FE
80
80
80
80
F8
80
80
80
80
80
FE
ENDCHAR
STARTCHAR afii10023
ENCODING 1025
SWIDTH 555 0
DWIDTH 10 0
BBX 7 15 1 0
BITMAP
44
44
00
FE
80
80
80
80
F8
80
80
80
80
80
FE
ENDCHAR
STARTCHAR afii10051
ENCODING 1026
SWIDTH 555 0
DWIDTH 10 0
BBX 8 12 0 0
BITMAP
F8
20
20
3E
21
21
21
21
21
21
21
26
ENDCHAR
STARTCHAR afii10052
ENCODING 1027
SWIDTH 555 0
DWIDTH 10 0
BBX 7 15 1 0
BITMAP
08
10
00
FE
80
80
80
80
80
80
80
80
80
80
80
ENDCHAR
STARTCHAR afii10053
ENCODING 1028
SWIDTH 555 0
DWIDTH 10 0
BBX 7 12 1 0
BITMAP
7C
82
82
80
80
F8
80
80
80
82
82
7C
ENDCHAR
STARTCHAR afii10054
ENCODING 1029
SWIDTH 555 0
DWIDTH 10 0
BBX 7 12 1 0
BITMAP
7C
82
82
80
80
7C
02
02
02
82
82
7C
ENDCHAR
STARTCHAR afii10055
ENCODING 1030
SWIDTH 555 0
DWIDTH 10 0
BBX 3 12 3 0
BITMAP
E0
40
40
40
40
40
40
40
40
40
40
E0
ENDCHAR
STARTCHAR afii10056
ENCODING 1031
SWIDTH 555 0
DWIDTH 10 0
BBX 5 15 2 0
BITMAP
88
88
00
70
20
20
20
20
20
20
20
20
20
20
70
ENDCHAR
STARTCHAR afii10057
ENCODING 1032
SWIDTH 555 0
DWIDTH 10 0
BBX 7 12 2 0
BITMAP
0E
04
04
04
04
04
04
04
84
84
84
78
ENDCHAR
STARTCHAR afii10058
ENCODING 1033
SWIDTH 555 0
DWIDTH 10 0
BBX 9 12 0 0
BITMAP
3800
4800
8800
8800
8F00
8880
8880
8880
8880
8880
8880
8F00
ENDCHAR
STARTCHAR afii10059
ENCODING 1034
SWIDTH 555 0
DWIDTH 10 0
BBX 9 12 0 0
BITMAP
8800
8800
8800
8800
8F00
F880
8880
8880
8880
8880
8880
8F00
ENDCHAR
STARTCHAR afii10060
ENCODING 1035
SWIDTH 555 0
DWIDTH 10 0
BBX 8 12 0 0
BITMAP
F8
20
20
3E
21
21
21
21
21
21
21
21
ENDCHAR
STARTCHAR afii10061
ENCODING 1036
SWIDTH 555 0
DWIDTH 10 0
BBX 7 15 1 0
BITMAP
08
10
00
82
84
88
90
A0
C0
C0
A0
90
88
84
82
ENDCHAR
STARTCHAR uni040D
ENCODING 1037
SWIDTH 555 0
DWIDTH 10 0
BBX 7 15 1 0
BITMAP
20
10
00
82
82
82
86
8A
92
A2
C2
82
82
82
82
ENDCHAR
STARTCHAR afii10062
ENCODING 1038
SWIDTH 555 0
DWIDTH 10 0
BBX 7 15 1 0
BITMAP
44
38
00
82
82
82
82
82
82
7E
02
02
02
02
7C
ENDCHAR
STARTCHAR afii10145
ENCODING 1039
SWIDTH 555 0
DWIDTH 10 0
BBX 7 14 1 -2
BITMAP
82
82
82
82
82
82
82
82
82
82
82
FE
10
10
ENDCHAR
STARTCHAR afii10017
ENCODING 1040
SWIDTH 555 0
DWIDTH 10 0
BBX 7 12 1 0
BITMAP
7C
82
82
82
82
82
FE
82
82
82
82
82
ENDCHAR
STARTCHAR afii10018
ENCODING 1041
SWIDTH 555 0
DWIDTH 10 0
BBX 7 12 1 0
BITMAP
FC
80
80
80
FC
82
82
82
82
82
82
FC
ENDCHAR
STARTCHAR afii10019
ENCODING 1042
SWIDTH 555 0
DWIDTH 10 0
BBX 7 12 1 0
BITMAP
FC
82
82
82
82
FC
82
82
82
82
82
FC
ENDCHAR
STARTCHAR afii10020
ENCODING 1043
SWIDTH 555 0
DWIDTH 10 0
BBX 7 12 1 0
BITMAP
FE
80
80
80
80
80
80
80
80
80
80
80
ENDCHAR
STARTCHAR afii10021
ENCODING 1044
SWIDTH 555 0
DWIDTH 10 0
BBX 8 14 1 -2
BITMAP
1E
22
42
42
42
42
42
42
42
42
42
FF
81
81
ENDCHAR
STARTCHAR afii10022
ENCODING 1045
SWIDTH 555 0
DWIDTH 10 0
BBX 7 12 1 0
BITMAP
FE
80
80
80
80
F8
80
80
80
80
80
FE
ENDCHAR
STARTCHAR afii10024
ENCODING 1046
SWIDTH 555 0
DWIDTH 10 0
BBX 7 12 1 0
BITMAP
92
92
92
92
54
38
54
92
92
92
92
92
ENDCHAR
STARTCHAR afii10025
ENCODING 1047
SWIDTH 555 0
DWIDTH 10 0
BBX 7 12 1 0
BITMAP
7C
82
82
02
02
3C
02
02
02
82
82
7C
ENDCHAR
STARTCHAR afii10026
ENCODING 1048
SWIDTH 555 0
DWIDTH 10 0
BBX 7 12 1 0
BITMAP
82
82
82
86
8A
92
A2
C2
82
82
82
82
ENDCHAR
STARTCHAR afii10027
ENCODING 1049
SWIDTH 555 0
DWIDTH 10 0
BBX 7 15 1 0
BITMAP
44
38
00
82
82
82
86
8A
92
A2
C2
82
82
82
82
ENDCHAR
STARTCHAR afii10028
ENCODING 1050
SWIDTH 555 0
DWIDTH 10 0
BBX 7 12 1 0
BITMAP
82
84
88
90
A0
C0
C0
A0
90
88
84
82
ENDCHAR
STARTCHAR afii10029
ENCODING 1051
SWIDTH 555 0
DWIDTH 10 0
BBX 7 12 1 0
BITMAP
1E
22
42
42
42
42
42
42
42
42
42
82
ENDCHAR
STARTCHAR afii10030
ENCODING 1052
SWIDTH 555 0
DWIDTH 10 0
BBX 8 12 1 0
BITMAP
81
C3
A5
A5
99
99
81
81
81
81
81
81
ENDCHAR
STARTCHAR afii10031
ENCODING 1053
SWIDTH 555 0
DWIDTH 10 0
BBX 7 12 1 0
BITMAP
82
82
82
82
82
FE
82
82
82
82
82
82
ENDCHAR
STARTCHAR afii10032
ENCODING 1054
SWIDTH 555 0
DWIDTH 10 0
BBX 7 12 1 0
BITMAP
7C
82
82
82
82
82
82
82
82
82
82
7C
ENDCHAR
STARTCHAR afii10033
ENCODING 1055
SWIDTH 555 0
DWIDTH 10 0
BBX 7 12 1 0
BITMAP
FE
82
82
82
82
82
82
82
82
82
82
82
ENDCHAR
STARTCHAR afii10034
ENCODING 1056
SWIDTH 555 0
DWIDTH 10 0
BBX 7 12 1 0
BITMAP
FC
82
82
82
82
82
FC
80
80
80
80
80
ENDCHAR
STARTCHAR afii10035
ENCODING 1057
SWIDTH 555 0
DWIDTH 10 0
BBX 7 12 1 0
BITMAP
7C
82
82
80
80
80
80
80
80
82
82
7C
ENDCHAR
STARTCHAR afii10036
ENCODING 1058
SWIDTH 555 0
DWIDTH 10 0
BBX 7 12 1 0
BITMAP
FE
10
10
10
10
10
10
10
10
10
10
10
ENDCHAR
STARTCHAR afii10037
ENCODING 1059
SWIDTH 555 0
DWIDTH 10 0
BBX 7 12 1 0
BITMAP
82
82
82
82
82
82
7E
02
02
02
02
7C
ENDCHAR
STARTCHAR afii10038
ENCODING 1060
SWIDTH 555 0
DWIDTH 10 0
BBX 7 14 1 -1
BITMAP
10
7C
92
92
92
92
92
92
92
92
92
92
7C
10
ENDCHAR
STARTCHAR afii10039
ENCODING 1061
SWIDTH 555 0
DWIDTH 10 0
BBX 7 12 1 0
BITMAP
82
82
44
44
28
10
10
28
44
44
82
82
ENDCHAR
STARTCHAR afii10040
ENCODING 1062
SWIDTH 555 0
DWIDTH 10 0
BBX 8 14 1 -2
BITMAP
82
82
82
82
82
82
82
82
82
82
82
7F
01
01
ENDCHAR
STARTCHAR afii10041
ENCODING 1063
SWIDTH 555 0
DWIDTH 10 0
BBX 7 12 1 0
BITMAP
82
82
82
82
82
82
7E
02
02
02
02
02
ENDCHAR
STARTCHAR afii10042
ENCODING 1064
SWIDTH 555 0
DWIDTH 10 0
BBX 7 12 1 0
BITMAP
92
92
92
92
92
92
92
92
92
92
92
7E
ENDCHAR
STARTCHAR afii10043
ENCODING 1065
SWIDTH 555 0
DWIDTH 10 0
BBX 8 14 1 -2
BITMAP
92
92
92
92
92
92
92
92
92
92
92
7F
01
01
ENDCHAR
STARTCHAR afii10044
ENCODING 1066
SWIDTH 555 0
DWIDTH 10 0
BBX 8 12 0 0
BITMAP
C0
40
40
40
7E
41
41
41
41
41
41
7E
ENDCHAR
STARTCHAR afii10045
ENCODING 1067
SWIDTH 555 0
DWIDTH 10 0
BBX 8 12 1 0
BITMAP
81
81
81
81
F1
89
89
89
89
89
89
F1
ENDCHAR
STARTCHAR afii10046
ENCODING 1068
SWIDTH 555 0
DWIDTH 10 0
BBX 7 12 1 0
BITMAP
80
80
80
80
FC
82
82
82
82
82
82
FC
ENDCHAR
STARTCHAR afii10047
ENCODING 1069
SWIDTH 555 0
DWIDTH 10 0
BBX 7 12 1 0
BITMAP
7C
82
82
02
02
3E
02
02
02
82
82
7C
ENDCHAR
STARTCHAR afii10048
ENCODING 1070
SWIDTH 555 0
DWIDTH 10 0
BBX 8 12 1 0
BITMAP
8E
91
91
91
91
F1
91
91
91
91
91
8E
ENDCHAR
STARTCHAR afii10049
ENCODING 1071
SWIDTH 555 0
DWIDTH 10 0
BBX 7 12 1 0
BITMAP
7E
82
82
82
82
82
7E
0A
12
22
42
82
ENDCHAR
STARTCHAR afii10065
ENCODING 1072
SWIDTH 555 0
DWIDTH 10 0
BBX 7 9 1 0
BITMAP
7C
02
02
7E
82
82
82
82
7E
ENDCHAR
STARTCHAR afii10066
ENCODING 1073
SWIDTH 555 0
DWIDTH 10 0
BBX 7 12 1 0
BITMAP
7C
80
80
80
FC
82
82
82
82
82
82
FC
ENDCHAR
STARTCHAR afii10067
ENCODING 1074
SWIDTH 555 0
DWIDTH 10 0
BBX 7 12 1 0
BITMAP
78
84
84
84
88
FC
82
82
82
82
82
FC
ENDCHAR
STARTCHAR afii10068
ENCODING 1075
SWIDTH 555 0
DWIDTH 10 0
BBX 7 9 1 0
BITMAP
FE
80
80
80
80
80
80
80
80
ENDCHAR
STARTCHAR afii10069
ENCODING 1076
SWIDTH 555 0
DWIDTH 10 0
BBX 7 12 1 -3
BITMAP
7E
82
82
82
82
82
82
82
7E
02
02
7C
ENDCHAR
STARTCHAR afii10070
ENCODING 1077
SWIDTH 555 0
DWIDTH 10 0
BBX 7 9 1 0
BITMAP
7C
82
82
82
FE
80
80
82
7C
ENDCHAR
STARTCHAR afii10072
ENCODING 1078
SWIDTH 555 0
DWIDTH 10 0
BBX 7 9 1 0
BITMAP
92
92
92
54
38
54
92
92
92
ENDCHAR
STARTCHAR afii10073
ENCODING 1079
SWIDTH 555 0
DWIDTH 10 0
BBX 7 9 1 0
BITMAP
7C
82
02
02
3C
02
02
82
7C
ENDCHAR
STARTCHAR afii10074
ENCODING 1080
SWIDTH 555 0
DWIDTH 10 0
BBX 7 9 1 0
BITMAP
82
82
82
82
82
82
82
82
7E
ENDCHAR
STARTCHAR afii10075
ENCODING 1081
SWIDTH 555 0
DWIDTH 10 0
BBX 7 12 1 0
BITMAP
44
38
00
82
82
82
82
82
82
82
82
7E
ENDCHAR
STARTCHAR afii10076
ENCODING 1082
SWIDTH 555 0
DWIDTH 10 0
BBX 7 9 1 0
BITMAP
82
84
88
90
E0
90
88
84
82
ENDCHAR
STARTCHAR afii10077
ENCODING 1083
SWIDTH 555 0
DWIDTH 10 0
BBX 7 9 1 0
BITMAP
1E
22
42
42
42
42
42
42
82
ENDCHAR
STARTCHAR afii10078
ENCODING 1084
SWIDTH 555 0
DWIDTH 10 0
BBX 7 9 1 0
BITMAP
82
C6
AA
92
82
82
82
82
82
ENDCHAR
STARTCHAR afii10079
ENCODING 1085
SWIDTH 555 0
DWIDTH 10 0
BBX 7 9 1 0
BITMAP
82
82
82
82
FE
82
82
82
82
ENDCHAR
STARTCHAR afii10080
ENCODING 1086
SWIDTH 555 0
DWIDTH 10 0
BBX 7 9 1 0
BITMAP
7C
82
82
82
82
82
82
82
7C
ENDCHAR
STARTCHAR afii10081
ENCODING 1087
SWIDTH 555 0
DWIDTH 10 0
BBX 7 9 1 0
BITMAP
FE
82
82
82
82
82
82
82
82
ENDCHAR
STARTCHAR afii10082
ENCODING 1088
SWIDTH 555 0
DWIDTH 10 0
BBX 7 12 1 -3
BITMAP
FC
82
82
82
82
82
82
82
FC
80
80
80
ENDCHAR
STARTCHAR afii10083
ENCODING 1089
SWIDTH 555 0
DWIDTH 10 0
BBX 7 9 1 0
BITMAP
7C
82
80
80
80
80
80
82
7C
ENDCHAR
STARTCHAR afii10084
ENCODING 1090
SWIDTH 555 0
DWIDTH 10 0
BBX 7 9 1 0
BITMAP
FE
10
10
10
10
10
10
10
10
ENDCHAR
STARTCHAR afii10085
ENCODING 1091
SWIDTH 555 0
DWIDTH 10 0
BBX 7 12 1 -3
BITMAP
82
82
82
82
82
82
82
82
7E
02
02
7C
ENDCHAR
STARTCHAR afii10086
ENCODING 1092
SWIDTH 555 0
DWIDTH 10 0
BBX 7 13 1 -2
BITMAP
10
10
7C
92
92
92
92
92
92
92
7C
10
10
ENDCHAR
STARTCHAR afii10087
ENCODING 1093
SWIDTH 555 0
DWIDTH 10 0
BBX 7 9 1 0
BITMAP
82
82
44
28
10
28
44
82
82
ENDCHAR
STARTCHAR afii10088
ENCODING 1094
SWIDTH 555 0
DWIDTH 10 0
BBX 8 11 1 -2
BITMAP
82
82
82
82
82
82
82
82
7F
01
01
ENDCHAR
STARTCHAR afii10089
ENCODING 1095
SWIDTH 555 0
DWIDTH 10 0
BBX 7 9 1 0
BITMAP
82
82
82
82
7E
02
02
02
02
ENDCHAR
STARTCHAR afii10090
ENCODING 1096
SWIDTH 555 0
DWIDTH 10 0
BBX 7 9 1 0
BITMAP
92
92
92
92
92
92
92
92
7E
ENDCHAR
STARTCHAR afii10091
ENCODING 1097
SWIDTH 555 0
DWIDTH 10 0
BBX 8 11 1 -2
BITMAP
92
92
92
92
92
92
92
92
7F
01
01
ENDCHAR
STARTCHAR afii10092
ENCODING 1098
SWIDTH 555 0
DWIDTH 10 0
BBX 7 9 1 0
BITMAP
C0
40
40
7C
42
42
42
42
7C
ENDCHAR
STARTCHAR afii10093
ENCODING 1099
SWIDTH 555 0
DWIDTH 10 0
BBX 8 9 1 0
BITMAP
81
81
81
F1
89
89
89
89
F1
ENDCHAR
STARTCHAR afii10094
ENCODING 1100
SWIDTH 555 0
DWIDTH 10 0
BBX 6 9 2 0
BITMAP
80
80
80
F8
84
84
84
84
F8
ENDCHAR
STARTCHAR afii10095
ENCODING 1101
SWIDTH 555 0
DWIDTH 10 0
BBX 7 9 1 0
BITMAP
7C
82
02
02
3E
02
02
82
7C
ENDCHAR
STARTCHAR afii10096
ENCODING 1102
SWIDTH 555 0
DWIDTH 10 0
BBX 8 9 1 0
BITMAP
8E
91
91
91
F1
91
91
91
8E
ENDCHAR
STARTCHAR afii10097
ENCODING 1103
SWIDTH 555 0
DWIDTH 10 0
BBX 7 9 1 0
BITMAP
7E
82
82
82
7E
0A
12
22
42
ENDCHAR
STARTCHAR uni0450
ENCODING 1104
SWIDTH 555 0
DWIDTH 10 0
BBX 7 12 1 0
BITMAP
20
10
00
7C
82
82
82
FE
80
80
82
7C
ENDCHAR
STARTCHAR afii10071
ENCODING 1105
SWIDTH 555 0
DWIDTH 10 0
BBX 7 12 1 0
BITMAP
44
44
00
7C
82
82
82
FE
80
80
82
7C
ENDCHAR
STARTCHAR afii10099
ENCODING 1106
SWIDTH 555 0
DWIDTH 10 0
BBX 8 15 0 -3
BITMAP
40
F8
40
7E
41
41
41
41
41
41
41
41
01
01
06
ENDCHAR
STARTCHAR afii10100
ENCODING 1107
SWIDTH 555 0
DWIDTH 10 0
BBX 7 12 1 0
BITMAP
08
10
00
FE
80
80
80
80
80
80
80
80
ENDCHAR
STARTCHAR afii10101
ENCODING 1108
SWIDTH 555 0
DWIDTH 10 0
BBX 7 9 1 0
BITMAP
7C
82
80
80
F8
80
80
82
7C
ENDCHAR
STARTCHAR afii10102
ENCODING 1109
SWIDTH 555 0
DWIDTH 10 0
BBX 7 9 1 0
BITMAP
7C
82
80
80
7C
02
02
82
7C
ENDCHAR
STARTCHAR afii10103
ENCODING 1110
SWIDTH 555 0
DWIDTH 10 0
BBX 3 12 3 0
BITMAP
40
40
00
C0
40
40
40
40
40
40
40
E0
ENDCHAR
STARTCHAR afii10104
ENCODING 1111
SWIDTH 555 0
DWIDTH 10 0
BBX 5 12 2 0
BITMAP
88
88
00
60
20
20
20
20
20
20
20
70
ENDCHAR
STARTCHAR afii10105
ENCODING 1112
SWIDTH 555 0
DWIDTH 10 0
BBX 5 15 2 -3
BITMAP
08
08
00
18
08
08
08
08
08
08
08
08
88
88
70
ENDCHAR
STARTCHAR afii10106
ENCODING 1113
SWIDTH 555 0
DWIDTH 10 0
BBX 9 9 0 0
BITMAP
3800
4800
8800
8F00
8880
8880
8880
8880
8F00
ENDCHAR
STARTCHAR afii10107
ENCODING 1114
SWIDTH 555 0
DWIDTH 10 0
BBX 9 9 0 0
BITMAP
8800
8800
8800
8F00
F880
8880
8880
8880
8F00
ENDCHAR
STARTCHAR afii10108
ENCODING 1115
SWIDTH 555 0
DWIDTH 10 0
BBX 8 12 0 0
BITMAP
40
F8
40
7E
41
41
41
41
41
41
41
41
ENDCHAR
STARTCHAR afii10109
ENCODING 1116
SWIDTH 555 0
DWIDTH 10 0
BBX 7 12 1 0
BITMAP
08
10
00
82
84
88
90
E0
90
88
84
82
ENDCHAR
STARTCHAR uni045D
ENCODING 1117
SWIDTH 555 0
DWIDTH 10 0
BBX 7 12 1 0
BITMAP
20
10
00
82
82
82
82
82
82
82
82
7E
ENDCHAR
STARTCHAR afii10110
ENCODING 1118
SWIDTH 555 0
DWIDTH 10 0
BBX 7 15 1 -3
BITMAP
44
38
00
82
82
82
82
82
82
82
82
7E
02
02
7C
ENDCHAR
STARTCHAR afii10193
ENCODING 1119
SWIDTH 555 0
DWIDTH 10 0
BBX 7 11 1 -2
BITMAP
82
82
82
82
82
82
82
82
FE
10
10
ENDCHAR
STARTCHAR afii10146
ENCODING 1122
SWIDTH 555 0
DWIDTH 10 0
BBX 8 12 0 0
BITMAP
40
F8
40
40
7E
41
41
41
41
41
41
7E
ENDCHAR
STARTCHAR afii10194
ENCODING 1123
SWIDTH 555 0
DWIDTH 10 0
BBX 8 12 0 0
BITMAP
20
20
20
F8
20
20
3E
21
21
21
21
3E
ENDCHAR
STARTCHAR uni046A
ENCODING 1130
SWIDTH 555 0
DWIDTH 10 0
BBX 7 12 1 0
BITMAP
FE
82
44
44
28
10
38
54
92
92
92
92
ENDCHAR
STARTCHAR uni046B
ENCODING 1131
SWIDTH 555 0
DWIDTH 10 0
BBX 7 9 1 0
BITMAP
FE
82
44
28
38
54
92
92
92
ENDCHAR
STARTCHAR afii10050
ENCODING 1168
SWIDTH 555 0
DWIDTH 10 0
BBX 7 14 1 0
BITMAP
02
02
FE
80
80
80
80
80
80
80
80
80
80
80
ENDCHAR
STARTCHAR afii10098
ENCODING 1169
SWIDTH 555 0
DWIDTH 10 0
BBX 7 11 1 0
BITMAP
02
02
FE
80
80
80
80
80
80
80
80
ENDCHAR
STARTCHAR uni0492
ENCODING 1170
SWIDTH 555 0
DWIDTH 10 0
BBX 8 12 0 0
BITMAP
7F
40
40
40
40
F8
40
40
40
40
40
40
ENDCHAR
STARTCHAR uni0493
ENCODING 1171
SWIDTH 555 0
DWIDTH 10 0
BBX 8 9 0 0
BITMAP
7F
40
40
40
F8
40
40
40
40
ENDCHAR
STARTCHAR uni0494
ENCODING 1172
SWIDTH 555 0
DWIDTH 10 0
BBX 7 14 1 -2
BITMAP
FE
80
80
80
80
80
FC
82
82
82
82
82
02
04
ENDCHAR
STARTCHAR uni0495
ENCODING 1173
SWIDTH 555 0
DWIDTH 10 0
BBX 7 11 1 -2
BITMAP
FE
80
80
80
F8
84
84
84
84
04
08
ENDCHAR
STARTCHAR uni0496
ENCODING 1174
SWIDTH 555 0
DWIDTH 10 0
BBX 8 14 1 -2
BITMAP
92
92
92
92
54
38
54
92
92
92
92
93
01
01
ENDCHAR
STARTCHAR uni0497
ENCODING 1175
SWIDTH 555 0
DWIDTH 10 0
BBX 8 11 1 -2
BITMAP
92
92
92
54
38
54
92
92
93
01
01
ENDCHAR
STARTCHAR uni0498
ENCODING 1176
SWIDTH 555 0
DWIDTH 10 0
BBX 7 15 1 -3
BITMAP
7C
82
82
02
02
3C
02
02
02
82
82
7C
10
10
10
ENDCHAR
STARTCHAR uni0499
ENCODING 1177
SWIDTH 555 0
DWIDTH 10 0
BBX 7 12 1 -3
BITMAP
7C
82
02
02
3C
02
02
82
7C
10
10
10
ENDCHAR
STARTCHAR uni049A
ENCODING 1178
SWIDTH 555 0
DWIDTH 10 0
BBX 8 14 1 -2
BITMAP
82
84
88
90
A0
C0
C0
A0
90
88
84
83
01
01
ENDCHAR
STARTCHAR uni049B
ENCODING 1179
SWIDTH 555 0
DWIDTH 10 0
BBX 8 11 1 -2
BITMAP
82
84
88
90
E0
90
88
84
83
01
01
ENDCHAR
STARTCHAR uni049C
ENCODING 1180
SWIDTH 555 0
DWIDTH 10 0
BBX 7 12 1 0
BITMAP
82
82
84
A8
B0
E0
E0
B0
A8
84
82
82
ENDCHAR
STARTCHAR uni049D
ENCODING 1181
SWIDTH 555 0
DWIDTH 10 0
BBX 7 9 1 0
BITMAP
82
A4
A8
B0
E0
B0
A8
A4
82
ENDCHAR
STARTCHAR uni04A0
ENCODING 1184
SWIDTH 555 0
DWIDTH 10 0
BBX 8 12 0 0
BITMAP
C1
42
44
48
50
60
60
50
48
44
42
41
ENDCHAR
STARTCHAR uni04A1
ENCODING 1185
SWIDTH 555 0
DWIDTH 10 0
BBX 8 9 0 0
BITMAP
C1
42
44
48
70
48
44
42
41
ENDCHAR
STARTCHAR uni04A2
ENCODING 1186
SWIDTH 555 0
DWIDTH 10 0
BBX 8 14 1 -2
BITMAP
82
82
82
82
82
FE
82
82
82
82
82
83
01
01
ENDCHAR
STARTCHAR uni04A3
ENCODING 1187
SWIDTH 555 0
DWIDTH 10 0
BBX 8 11 1 -2
BITMAP
82
82
82
82
FE
82
82
82
83
01
01
ENDCHAR
STARTCHAR uni04A4
ENCODING 1188
SWIDTH 555 0
DWIDTH 10 0
BBX 9 12 1 0
BITMAP
8780
8400
8400
8400
8400
FC00
8400
8400
8400
8400
8400
8400
ENDCHAR
STARTCHAR uni04A5
ENCODING 1189
SWIDTH 555 0
DWIDTH 10 0
BBX 9 9 1 0
BITMAP
8780
8400
8400
8400
FC00
8400
8400
8400
8400
ENDCHAR
STARTCHAR uni04AA
ENCODING 1194
SWIDTH 555 0
DWIDTH 10 0
BBX 7 15 1 -3
BITMAP
7C
82
82
80
80
80
80
80
80
82
82
7C
10
10
10
ENDCHAR
STARTCHAR uni04AB
ENCODING 1195
SWIDTH 555 0
DWIDTH 10 0
BBX 7 12 1 -3
BITMAP
7C
82
80
80
80
80
80
82
7C
10
10
10
ENDCHAR
STARTCHAR uni04AE
ENCODING 1198
SWIDTH 555 0
DWIDTH 10 0
BBX 7 12 1 0
BITMAP
82
82
44
44
28
28
10
10
10
10
10
10
ENDCHAR
STARTCHAR uni04AF
ENCODING 1199
SWIDTH 555 0
DWIDTH 10 0
BBX 7 12 1 -3
BITMAP
82
82
82
44
44
44
28
28
10
10
10
10
ENDCHAR
STARTCHAR uni04B0
ENCODING 1200
SWIDTH 555 0
DWIDTH 10 0
BBX 7 12 1 0
BITMAP
82
82
44
44
28
28
10
7C
10
10
10
10
ENDCHAR
STARTCHAR uni04B1
ENCODING 1201
SWIDTH 555 0
DWIDTH 10 0
BBX 7 12 1 -3
BITMAP
82
82
82
44
44
44
28
28
10
7C
10
10
ENDCHAR
STARTCHAR uni04B2
ENCODING 1202
SWIDTH 555 0
DWIDTH 10 0
BBX 8 14 1 -2
BITMAP
82
82
44
44
28
10
10
28
44
44
82
83
01
01
ENDCHAR
STARTCHAR uni04B3
ENCODING 1203
SWIDTH 555 0
DWIDTH 10 0
BBX 8 11 1 -2
BITMAP
82
82
44
28
10
28
44
82
83
01
01
ENDCHAR
STARTCHAR uni04B6
ENCODING 1206
SWIDTH 555 0
DWIDTH 10 0
BBX 8 14 1 -2
BITMAP
82
82
82
82
82
82
7E
02
02
02
02
03
01
01
ENDCHAR
STARTCHAR uni04B7
ENCODING 1207
SWIDTH 555 0
DWIDTH 10 0
BBX 8 11 1 -2
BITMAP
82
82
82
82
7E
02
02
02
03
01
01
ENDCHAR
STARTCHAR uni04B8
ENCODING 1208
SWIDTH 555 0
DWIDTH 10 0
BBX 7 12 1 0
BITMAP
82
82
82
92
92
92
7E
12
12
12
02
02
ENDCHAR
STARTCHAR uni04B9
ENCODING 1209
SWIDTH 555 0
DWIDTH 10 0
BBX 7 9 1 0
BITMAP
82
82
92
92
7E
12
12
02
02
ENDCHAR
STARTCHAR uni04BA
ENCODING 1210
SWIDTH 555 0
DWIDTH 10 0
BBX 7 12 1 0
BITMAP
80
80
80
80
FC
82
82
82
82
82
82
82
ENDCHAR
STARTCHAR uni04BB
ENCODING 1211
SWIDTH 555 0
DWIDTH 10 0
BBX 7 9 1 0
BITMAP
80
80
80
FC
82
82
82
82
82
ENDCHAR
STARTCHAR uni04C0
ENCODING 1216
SWIDTH 555 0
DWIDTH 10 0
BBX 3 12 3 0
BITMAP
E0
40
40
40
40
40
40
40
40
40
40
E0
ENDCHAR
STARTCHAR uni04C1
ENCODING 1217
SWIDTH 555 0
DWIDTH 10 0
BBX 7 15 1 0
BITMAP
44
38
00
92
92
92
92
54
38
54
92
92
92
92
92
ENDCHAR
STARTCHAR uni04C2
ENCODING 1218
SWIDTH 555 0
DWIDTH 10 0
BBX 7 12 1 0
BITMAP
44
38
00
92
92
92
54
38
54
92
92
92
ENDCHAR
STARTCHAR uni04CF
ENCODING 1231
SWIDTH 555 0
DWIDTH 10 0
BBX 3 12 3 0
BITMAP
C0
40
40
40
40
40
40
40
40
40
40
E0
ENDCHAR
STARTCHAR uni04D0
ENCODING 1232
SWIDTH 555 0
DWIDTH 10 0
BBX 7 15 1 0
BITMAP
44
38
00
7C
82
82
82
82
82
FE
82
82
82
82
82
ENDCHAR
STARTCHAR uni04D1
ENCODING 1233
SWIDTH 555 0
DWIDTH 10 0
BBX 7 12 1 0
BITMAP
44
38
00
7C
02
02
7E
82
82
82
82
7E
ENDCHAR
STARTCHAR uni04D2
ENCODING 1234
SWIDTH 555 0
DWIDTH 10 0
BBX 7 15 1 0
BITMAP
44
44
00
7C
82
82
82
82
82
FE
82
82
82
82
82
ENDCHAR
STARTCHAR uni04D3
ENCODING 1235
SWIDTH 555 0
DWIDTH 10 0
BBX 7 12 1 0
BITMAP
44
44
00
7C
02
02
7E
82
82
82
82
7E
ENDCHAR
STARTCHAR uni04D4
ENCODING 1236
SWIDTH 555 0
DWIDTH 10 0
BBX 9 12 0 0
BITMAP
7F80
8800
8800
8800
8800
FF00
8800
8800
8800
8800
8800
8F80
ENDCHAR
STARTCHAR uni04D5
ENCODING 1237
SWIDTH 555 0
DWIDTH 10 0
BBX 9 9 0 0
BITMAP
7700
0880
0880
7880
8F80
8800
8800
8880
7700
ENDCHAR
STARTCHAR uni04D6
ENCODING 1238
SWIDTH 555 0
DWIDTH 10 0
BBX 7 15 1 0
BITMAP
44
38
00
FE
80
80
80
80
F8
80
80
80
80
80
FE
ENDCHAR
STARTCHAR uni04D7
ENCODING 1239
SWIDTH 555 0
DWIDTH 10 0
BBX 7 12 1 0
BITMAP
44
38
00
7C
82
82
82
FE
80
80
82
7C
ENDCHAR
STARTCHAR uni04D8
ENCODING 1240
SWIDTH 555 0
DWIDTH 10 0
BBX 7 12 1 0
BITMAP
7C
82
82
02
02
FE
82
82
82
82
82
7C
ENDCHAR
STARTCHAR afii10846
ENCODING 1241
SWIDTH 555 0
DWIDTH 10 0
BBX 7 9 1 0
BITMAP
7C
82
02
02
FE
82
82
82
7C
ENDCHAR
STARTCHAR uni04DA
ENCODING 1242
SWIDTH 555 0
DWIDTH 10 0
BBX 7 15 1 0
BITMAP
44
44
00
7C
82
82
02
02
FE
82
82
82
82
82
7C
ENDCHAR
STARTCHAR uni04DB
ENCODING 1243
SWIDTH 555 0
DWIDTH 10 0
BBX 7 12 1 0
BITMAP
44
44
00
7C
82
02
02
FE
82
82
82
7C
ENDCHAR
STARTCHAR uni04DC
ENCODING 1244
SWIDTH 555 0
DWIDTH 10 0
BBX 7 15 1 0
BITMAP
44
44
00
92
92
92
92
54
38
54
92
92
92
92
92
ENDCHAR
STARTCHAR uni04DD
ENCODING 1245
SWIDTH 555 0
DWIDTH 10 0
BBX 7 12 1 0
BITMAP
44
44
00
92
92
92
54
38
54
92
92
92
ENDCHAR
STARTCHAR uni04DE
ENCODING 1246
SWIDTH 555 0
DWIDTH 10 0
BBX 7 15 1 0
BITMAP
44
44
00
7C
82
82
02
02
3C
02
02
02
82
82
7C
ENDCHAR
STARTCHAR uni04DF
ENCODING 1247
SWIDTH 555 0
DWIDTH 10 0
BBX 7 12 1 0
BITMAP
44
44
00
7C
82
02
02
3C
02
02
82
7C
ENDCHAR
STARTCHAR uni04E2
ENCODING 1250
SWIDTH 555 0
DWIDTH 10 0
BBX 7 14 1 0
BITMAP
7C
00
82
82
82
86
8A
92
A2
C2
82
82
82
82
ENDCHAR
STARTCHAR uni04E3
ENCODING 1251
SWIDTH 555 0
DWIDTH 10 0
BBX 7 11 1 0
BITMAP
7C
00
82
82
82
82
82
82
82
82
7E
ENDCHAR
STARTCHAR uni04E4
ENCODING 1252
SWIDTH 555 0
DWIDTH 10 0
BBX 7 15 1 0
BITMAP
44
44
00
82
82
82
86
8A
92
A2
C2
82
82
82
82
ENDCHAR
STARTCHAR uni04E5
ENCODING 1253
SWIDTH 555 0
DWIDTH 10 0
BBX 7 12 1 0
BITMAP
44
44
00
82
82
82
82
82
82
82
82
7E
ENDCHAR
STARTCHAR uni04E6
ENCODING 1254
SWIDTH 555 0
DWIDTH 10 0
BBX 7 15 1 0
BITMAP
44
44
00
7C
82
82
82
82
82
82
82
82
82
82
7C
ENDCHAR
STARTCHAR uni04E7
ENCODING 1255
SWIDTH 555 0
DWIDTH 10 0
BBX 7 12 1 0
BITMAP
44
44
00
7C
82
82
82
82
82
82
82
7C
ENDCHAR
STARTCHAR uni04E8
ENCODING 1256
SWIDTH 555 0
DWIDTH 10 0
BBX 7 12 1 0
BITMAP
7C
82
82
82
82
FE
82
82
82
82
82
7C
ENDCHAR
STARTCHAR uni04E9
ENCODING 1257
SWIDTH 555 0
DWIDTH 10 0
BBX 7 9 1 0
BITMAP
7C
82
82
82
FE
82
82
82
7C
ENDCHAR
STARTCHAR uni04EA
ENCODING 1258
SWIDTH 555 0
DWIDTH 10 0
BBX 7 15 1 0
BITMAP
44
44
00
7C
82
82
82
82
FE
82
82
82
82
82
7C
ENDCHAR
STARTCHAR uni04EB
ENCODING 1259
SWIDTH 555 0
DWIDTH 10 0
BBX 7 12 1 0
BITMAP
44
44
00
7C
82
82
82
FE
82
82
82
7C
ENDCHAR
STARTCHAR uni04EC
ENCODING 1260
SWIDTH 555 0
DWIDTH 10 0
BBX 7 15 1 0
BITMAP
44
44
00
7C
82
82
02
02
3E
02
02
02
82
82
7C
ENDCHAR
STARTCHAR uni04ED
ENCODING 1261
SWIDTH 555 0
DWIDTH 10 0
BBX 7 12 1 0
BITMAP
44
44
00
7C
82
02
02
3E
02
02
82
7C
ENDCHAR
STARTCHAR uni04EE
ENCODING 1262
SWIDTH 555 0
DWIDTH 10 0
BBX 7 14 1 0
BITMAP
7C
00
82
82
82
82
82
82
7E
02
02
02
02
7C
ENDCHAR
STARTCHAR uni04EF
ENCODING 1263
SWIDTH 555 0
DWIDTH 10 0
BBX 7 14 1 -3
BITMAP
7C
00
82
82
82
82
82
82
82
82
7E
02
02
7C
ENDCHAR
STARTCHAR uni04F0
ENCODING 1264
SWIDTH 555 0
DWIDTH 10 0
BBX 7 15 1 0
BITMAP
44
44
00
82
82
82
82
82
82
7E
02
02
02
02
7C
ENDCHAR
STARTCHAR uni04F1
ENCODING 1265
SWIDTH 555 0
DWIDTH 10 0
BBX 7 15 1 -3
BITMAP
44
44
00
82
82
82
82
82
82
82
82
7E
02
02
7C
ENDCHAR
STARTCHAR uni04F2
ENCODING 1266
SWIDTH 555 0
DWIDTH 10 0
BBX 7 15 1 0
BITMAP
22
44
00
82
82
82
82
82
82
7E
02
02
02
02
7C
ENDCHAR
STARTCHAR uni04F3
ENCODING 1267
SWIDTH 555 0
DWIDTH 10 0
BBX 7 15 1 -3
BITMAP
22
44
00
82
82
82
82
82
82
82
82
7E
02
02
7C
ENDCHAR
STARTCHAR uni04F4
ENCODING 1268
SWIDTH 555 0
DWIDTH 10 0
BBX 7 15 1 0
BITMAP
44
44
00
82
82
82
82
82
82
7E
02
02
02
02
02
ENDCHAR
STARTCHAR uni04F5
ENCODING 1269
SWIDTH 555 0
DWIDTH 10 0
BBX 7 12 1 0
BITMAP
44
44
00
82
82
82
82
7E
02
02
02
02
ENDCHAR
STARTCHAR uni04F8
ENCODING 1272
SWIDTH 555 0
DWIDTH 10 0
BBX 8 15 1 0
BITMAP
44
44
00
81
81
81
81
F1
89
89
89
89
89
89
F1
ENDCHAR
STARTCHAR uni04F9
ENCODING 1273
SWIDTH 555 0
DWIDTH 10 0
BBX 8 12 1 0
BITMAP
44
44
00
81
81
81
F1
89
89
89
89
F1
ENDCHAR
STARTCHAR afii57664
ENCODING 1488
SWIDTH 555 0
DWIDTH 10 0
BBX 8 12 1 0
BITMAP
41
41
21
21
11
32
4C
88
84
84
82
82
ENDCHAR
STARTCHAR afii57665
ENCODING 1489
SWIDTH 555 0
DWIDTH 10 0
BBX 8 12 1 0
BITMAP
FC
02
02
02
02
02
02
02
02
02
02
FF
ENDCHAR
STARTCHAR afii57666
ENCODING 1490
SWIDTH 555 0
DWIDTH 10 0
BBX 8 12 1 0
BITMAP
78
04
04
04
04
04
04
0C
12
22
41
81
ENDCHAR
STARTCHAR afii57667
ENCODING 1491
SWIDTH 555 0
DWIDTH 10 0
BBX 8 12 1 0
BITMAP
FF
02
02
02
02
02
02
02
02
02
02
02
ENDCHAR
STARTCHAR afii57668
ENCODING 1492
SWIDTH 555 0
DWIDTH 10 0
BBX 7 12 1 0
BITMAP
FC
02
02
02
82
82
82
82
82
82
82
82
ENDCHAR
STARTCHAR afii57669
ENCODING 1493
SWIDTH 555 0
DWIDTH 10 0
BBX 3 12 2 0
BITMAP
C0
20
20
20
20
20
20
20
20
20
20
20
ENDCHAR
STARTCHAR afii57670
ENCODING 1494
SWIDTH 555 0
DWIDTH 10 0
BBX 6 12 2 0
BITMAP
FC
08
10
20
20
20
20
20
20
20
20
20
ENDCHAR
STARTCHAR afii57671
ENCODING 1495
SWIDTH 555 0
DWIDTH 10 0
BBX 7 12 1 0
BITMAP
FC
82
82
82
82
82
82
82
82
82
82
82
ENDCHAR
STARTCHAR afii57672
ENCODING 1496
SWIDTH 555 0
DWIDTH 10 0
BBX 7 12 1 0
BITMAP
8C
82
82
82
82
82
82
82
82
82
82
7C
ENDCHAR
STARTCHAR afii57673
ENCODING 1497
SWIDTH 555 0
DWIDTH 10 0
BBX 3 6 2 6
BITMAP
C0
20
20
20
20
20
ENDCHAR
STARTCHAR afii57674
ENCODING 1498
SWIDTH 555 0
DWIDTH 10 0
BBX 7 15 1 -3
BITMAP
FC
02
02
02
02
02
02
02
02
02
02
02
02
02
02
ENDCHAR
STARTCHAR afii57675
ENCODING 1499
SWIDTH 555 0
DWIDTH 10 0
BBX 7 12 1 0
BITMAP
FC
02
02
02
02
02
02
02
02
02
02
FC
ENDCHAR
STARTCHAR afii57676
ENCODING 1500
SWIDTH 555 0
DWIDTH 10 0
BBX 7 14 1 0
BITMAP
80
80
FE
02
02
02
02
04
08
10
20
20
20
20
ENDCHAR
STARTCHAR afii57677
ENCODING 1501
SWIDTH 555 0
DWIDTH 10 0
BBX 7 12 1 0
BITMAP
FC
82
82
82
82
82
82
82
82
82
82
FE
ENDCHAR
STARTCHAR afii57678
ENCODING 1502
SWIDTH 555 0
DWIDTH 10 0
BBX 8 12 0 0
BITMAP
DC
62
41
41
41
41
41
41
41
41
41
47
ENDCHAR
STARTCHAR afii57679
ENCODING 1503
SWIDTH 555 0
DWIDTH 10 0
BBX 5 15 1 -3
BITMAP
F0
08
08
08
08
08
08
08
08
08
08
08
08
08
08
ENDCHAR
STARTCHAR afii57680
ENCODING 1504
SWIDTH 555 0
DWIDTH 10 0
BBX 5 12 2 0
BITMAP
F0
08
08
08
08
08
08
08
08
08
08
F8
ENDCHAR
STARTCHAR afii57681
ENCODING 1505
SWIDTH 555 0
DWIDTH 10 0
BBX 8 12 0 0
BITMAP
FE
41
41
41
41
41
41
41
41
41
41
3E
ENDCHAR
STARTCHAR afii57682
ENCODING 1506
SWIDTH 555 0
DWIDTH 10 0
BBX 7 12 1 0
BITMAP
82
82
82
42
42
42
22
24
24
18
30
C0
ENDCHAR
STARTCHAR afii57683
ENCODING 1507
SWIDTH 555 0
DWIDTH 10 0
BBX 7 15 1 -3
BITMAP
FC
82
82
82
82
62
02
02
02
02
02
02
02
02
02
ENDCHAR
STARTCHAR afii57684
ENCODING 1508
SWIDTH 555 0
DWIDTH 10 0
BBX 7 12 1 0
BITMAP
FC
82
82
82
82
62
02
02
02
02
02
FC
ENDCHAR
STARTCHAR afii57685
ENCODING 1509
SWIDTH 555 0
DWIDTH 10 0
BBX 7 15 1 -3
BITMAP
82
82
42
42
24
28
10
10
10
10
10
10
10
10
10
ENDCHAR
STARTCHAR afii57686
ENCODING 1510
SWIDTH 555 0
DWIDTH 10 0
BBX 7 12 1 0
BITMAP
82
82
42
42
24
28
10
10
08
08
04
FC
ENDCHAR
STARTCHAR afii57687
ENCODING 1511
SWIDTH 555 0
DWIDTH 10 0
BBX 7 15 1 -3
BITMAP
FE
02
02
02
82
82
84
88
90
90
90
90
80
80
80
ENDCHAR
STARTCHAR afii57688
ENCODING 1512
SWIDTH 555 0
DWIDTH 10 0
BBX 7 12 1 0
BITMAP
FC
02
02
02
02
02
02
02
02
02
02
02
ENDCHAR
STARTCHAR afii57689
ENCODING 1513
SWIDTH 555 0
DWIDTH 10 0
BBX 7 12 1 0
BITMAP
92
92
92
92
92
92
A2
C2
82
82
84
F8
ENDCHAR
STARTCHAR afii57690
ENCODING 1514
SWIDTH 555 0
DWIDTH 10 0
BBX 8 12 0 0
BITMAP
FE
41
41
41
41
41
41
41
41
41
41
81
ENDCHAR
STARTCHAR uni1E0C
ENCODING 7692
SWIDTH 555 0
DWIDTH 10 0
BBX 7 15 1 -3
BITMAP
F8
84
82
82
82
82
82
82
82
82
84
F8
00
20
20
ENDCHAR
STARTCHAR uni1E0D
ENCODING 7693
SWIDTH 555 0
DWIDTH 10 0
BBX 7 15 1 -3
BITMAP
02
02
02
7E
82
82
82
82
82
82
82
7E
00
10
10
ENDCHAR
STARTCHAR Klinebelow
ENCODING 7732
SWIDTH 555 0
DWIDTH 10 0
BBX 7 14 1 -2
BITMAP
82
84
88
90
A0
C0
C0
A0
90
88
84
82
00
7C
ENDCHAR
STARTCHAR klinebelow
ENCODING 7733
SWIDTH 555 0
DWIDTH 10 0
BBX 7 14 1 -2
BITMAP
80
80
80
82
84
88
90
E0
90
88
84
82
00
7C
ENDCHAR
STARTCHAR uni1E36
ENCODING 7734
SWIDTH 555 0
DWIDTH 10 0
BBX 7 15 1 -3
BITMAP
80
80
80
80
80
80
80
80
80
80
80
FE
00
10
10
ENDCHAR
STARTCHAR uni1E37
ENCODING 7735
SWIDTH 555 0
DWIDTH 10 0
BBX 3 15 3 -3
BITMAP
C0
40
40
40
40
40
40
40
40
40
40
E0
00
40
40
ENDCHAR
STARTCHAR uni1E40
ENCODING 7744
SWIDTH 555 0
DWIDTH 10 0
BBX 8 15 1 0
BITMAP
10
10
00
81
C3
A5
A5
99
99
81
81
81
81
81
81
ENDCHAR
STARTCHAR uni1E41
ENCODING 7745
SWIDTH 555 0
DWIDTH 10 0
BBX 7 12 1 0
BITMAP
10
10
00
FC
92
92
92
92
92
92
92
92
ENDCHAR
STARTCHAR uni1E42
ENCODING 7746
SWIDTH 555 0
DWIDTH 10 0
BBX 8 15 1 -3
BITMAP
81
C3
A5
A5
99
99
81
81
81
81
81
81
00
10
10
ENDCHAR
STARTCHAR uni1E43
ENCODING 7747
SWIDTH 555 0
DWIDTH 10 0
BBX 7 12 1 -3
BITMAP
FC
92
92
92
92
92
92
92
92
00
10
10
ENDCHAR
STARTCHAR uni1E44
ENCODING 7748
SWIDTH 555 0
DWIDTH 10 0
BBX 7 15 1 0
BITMAP
10
10
00
82
82
82
C2
A2
92
8A
86
82
82
82
82
ENDCHAR
STARTCHAR uni1E45
ENCODING 7749
SWIDTH 555 0
DWIDTH 10 0
BBX 7 12 1 0
BITMAP
10
10
00
FC
82
82
82
82
82
82
82
82
ENDCHAR
STARTCHAR uni1E46
ENCODING 7750
SWIDTH 555 0
DWIDTH 10 0
BBX 7 15 1 -3
BITMAP
82
82
82
C2
A2
92
8A
86
82
82
82
82
00
10
10
ENDCHAR
STARTCHAR uni1E47
ENCODING 7751
SWIDTH 555 0
DWIDTH 10 0
BBX 7 12 1 -3
BITMAP
FC
82
82
82
82
82
82
82
82
00
10
10
ENDCHAR
STARTCHAR uni1E6C
ENCODING 7788
SWIDTH 555 0
DWIDTH 10 0
BBX 7 15 1 -3
BITMAP
FE
10
10
10
10
10
10
10
10
10
10
10
00
10
10
ENDCHAR
STARTCHAR uni1E6D
ENCODING 7789
SWIDTH 555 0
DWIDTH 10 0
BBX 6 14 2 -2
BITMAP
20
20
20
F8
20
20
20
20
20
20
20
1C
08
08
ENDCHAR
STARTCHAR Edotbelow
ENCODING 7864
SWIDTH 555 0
DWIDTH 10 0
BBX 7 15 1 -3
BITMAP
FE
80
80
80
80
F8
80
80
80
80
80
FE
00
10
10
ENDCHAR
STARTCHAR edotbelow
ENCODING 7865
SWIDTH 555 0
DWIDTH 10 0
BBX 7 12 1 -3
BITMAP
7C
82
82
82
FE
80
80
82
7C
00
10
10
ENDCHAR
STARTCHAR Etilde
ENCODING 7868
SWIDTH 555 0
DWIDTH 10 0
BBX 7 15 1 0
BITMAP
66
98
00
FE
80
80
80
80
F8
80
80
80
80
80
FE
ENDCHAR
STARTCHAR etilde
ENCODING 7869
SWIDTH 555 0
DWIDTH 10 0
BBX 7 12 1 0
BITMAP
66
98
00
7C
82
82
82
FE
80
80
82
7C
ENDCHAR
STARTCHAR uni1ECA
ENCODING 7882
SWIDTH 555 0
DWIDTH 10 0
BBX 3 15 3 -3
BITMAP
E0
40
40
40
40
40
40
40
40
40
40
E0
00
40
40
ENDCHAR
STARTCHAR uni1ECB
ENCODING 7883
SWIDTH 555 0
DWIDTH 10 0
BBX 3 15 3 -3
BITMAP
40
40
00
C0
40
40
40
40
40
40
40
E0
00
40
40
ENDCHAR
STARTCHAR Odotbelow
ENCODING 7884
SWIDTH 555 0
DWIDTH 10 0
BBX 7 15 1 -3
BITMAP
7C
82
82
82
82
82
82
82
82
82
82
7C
00
10
10
ENDCHAR
STARTCHAR odotbelow
ENCODING 7885
SWIDTH 555 0
DWIDTH 10 0
BBX 7 12 1 -3
BITMAP
7C
82
82
82
82
82
82
82
7C
00
10
10
ENDCHAR
STARTCHAR uni1EE4
ENCODING 7908
SWIDTH 555 0
DWIDTH 10 0
BBX 7 15 1 -3
BITMAP
82
82
82
82
82
82
82
82
82
82
82
7C
00
10
10
ENDCHAR
STARTCHAR uni1EE5
ENCODING 7909
SWIDTH 555 0
DWIDTH 10 0
BBX 7 12 1 -3
BITMAP
82
82
82
82
82
82
82
82
7E
00
10
10
ENDCHAR
STARTCHAR Ytilde
ENCODING 7928
SWIDTH 555 0
DWIDTH 10 0
BBX 7 15 1 0
BITMAP
66
98
00
82
82
44
44
28
28
10
10
10
10
10
10
ENDCHAR
STARTCHAR ytilde
ENCODING 7929
SWIDTH 555 0
DWIDTH 10 0
BBX 7 15 1 -3
BITMAP
66
98
00
82
82
82
82
82
82
82
82
7E
02
02
7C
ENDCHAR
STARTCHAR uni2000
ENCODING 8192
SWIDTH 555 0
DWIDTH 10 0
BBX 1 1 9 -3
BITMAP
00
ENDCHAR
STARTCHAR uni2001
ENCODING 8193
SWIDTH 555 0
DWIDTH 10 0
BBX 1 1 9 -3
BITMAP
00
ENDCHAR
STARTCHAR enspace
ENCODING 8194
SWIDTH 555 0
DWIDTH 10 0
BBX 1 1 9 -3
BITMAP
00
ENDCHAR
STARTCHAR uni2003
ENCODING 8195
SWIDTH 555 0
DWIDTH 10 0
BBX 1 1 9 -3
BITMAP
00
ENDCHAR
STARTCHAR uni2004
ENCODING 8196
SWIDTH 555 0
DWIDTH 10 0
BBX 1 1 9 -3
BITMAP
00
ENDCHAR
STARTCHAR uni2005
ENCODING 8197
SWIDTH 555 0
DWIDTH 10 0
BBX 1 1 9 -3
BITMAP
00
ENDCHAR
STARTCHAR uni2006
ENCODING 8198
SWIDTH 555 0
DWIDTH 10 0
BBX 1 1 9 -3
BITMAP
00
ENDCHAR
STARTCHAR uni2007
ENCODING 8199
SWIDTH 555 0
DWIDTH 10 0
BBX 1 1 9 -3
BITMAP
00
ENDCHAR
STARTCHAR uni2008
ENCODING 8200
SWIDTH 555 0
DWIDTH 10 0
BBX 1 1 9 -3
BITMAP
00
ENDCHAR
STARTCHAR uni2009
ENCODING 8201
SWIDTH 555 0
DWIDTH 10 0
BBX 1 1 9 -3
BITMAP
00
ENDCHAR
STARTCHAR uni200A
ENCODING 8202
SWIDTH 555 0
DWIDTH 10 0
BBX 1 1 9 -3
BITMAP
00
ENDCHAR
STARTCHAR uni200B
ENCODING 8203
SWIDTH 555 0
DWIDTH 10 0
BBX 1 1 9 -3
BITMAP
00
ENDCHAR
STARTCHAR afii61664
ENCODING 8204
SWIDTH 555 0
DWIDTH 10 0
BBX 1 1 9 -3
BITMAP
00
ENDCHAR
STARTCHAR afii301
ENCODING 8205
SWIDTH 555 0
DWIDTH 10 0
BBX 1 1 9 -3
BITMAP
00
ENDCHAR
STARTCHAR afii299
ENCODING 8206
SWIDTH 555 0
DWIDTH 10 0
BBX 1 1 9 -3
BITMAP
00
ENDCHAR
STARTCHAR afii300
ENCODING 8207
SWIDTH 555 0
DWIDTH 10 0
BBX 1 1 9 -3
BITMAP
00
ENDCHAR
STARTCHAR hyphentwo
ENCODING 8208
SWIDTH 555 0
DWIDTH 10 0
BBX 5 1 2 6
BITMAP
F8
ENDCHAR
STARTCHAR uni2011
ENCODING 8209
SWIDTH 555 0
DWIDTH 10 0
BBX 5 1 2 6
BITMAP
F8
ENDCHAR
STARTCHAR figuredash
ENCODING 8210
SWIDTH 555 0
DWIDTH 10 0
BBX 7 1 1 6
BITMAP
FE
ENDCHAR
STARTCHAR endash
ENCODING 8211
SWIDTH 555 0
DWIDTH 10 0
BBX 7 1 1 6
BITMAP
FE
ENDCHAR
STARTCHAR emdash
ENCODING 8212
SWIDTH 555 0
DWIDTH 10 0
BBX 8 1 1 6
BITMAP
FF
ENDCHAR
STARTCHAR afii00208
ENCODING 8213
SWIDTH 555 0
DWIDTH 10 0
BBX 8 1 1 6
BITMAP
FF
ENDCHAR
STARTCHAR dblverticalbar
ENCODING 8214
SWIDTH 555 0
DWIDTH 10 0
BBX 3 12 3 0
BITMAP
A0
A0
A0
A0
A0
A0
A0
A0
A0
A0
A0
A0
ENDCHAR
STARTCHAR underscoredbl
ENCODING 8215
SWIDTH 555 0
DWIDTH 10 0
BBX 7 3 1 -3
BITMAP
FE
00
FE
ENDCHAR
STARTCHAR quoteleft
ENCODING 8216
SWIDTH 555 0
DWIDTH 10 0
BBX 2 4 4 10
BITMAP
40
80
80
80
ENDCHAR
STARTCHAR quoteright
ENCODING 8217
SWIDTH 555 0
DWIDTH 10 0
BBX 2 4 3 10
BITMAP
40
40
40
80
ENDCHAR
STARTCHAR quotesinglbase
ENCODING 8218
SWIDTH 555 0
DWIDTH 10 0
BBX 2 4 3 -1
BITMAP
40
40
40
80
ENDCHAR
STARTCHAR quotereversed
ENCODING 8219
SWIDTH 555 0
DWIDTH 10 0
BBX 2 4 3 10
BITMAP
80
80
80
40
ENDCHAR
STARTCHAR quotedblleft
ENCODING 8220
SWIDTH 555 0
DWIDTH 10 0
BBX 6 4 2 10
BITMAP
44
88
88
88
ENDCHAR
STARTCHAR quotedblright
ENCODING 8221
SWIDTH 555 0
DWIDTH 10 0
BBX 6 4 2 10
BITMAP
44
44
44
88
ENDCHAR
STARTCHAR quotedblbase
ENCODING 8222
SWIDTH 555 0
DWIDTH 10 0
BBX 6 4 1 -1
BITMAP
44
44
44
88
ENDCHAR
STARTCHAR uni201F
ENCODING 8223
SWIDTH 555 0
DWIDTH 10 0
BBX 6 4 1 10
BITMAP
88
88
88
44
ENDCHAR
STARTCHAR dagger
ENCODING 8224
SWIDTH 555 0
DWIDTH 10 0
BBX 7 12 1 0
BITMAP
10
10
FE
10
10
10
10
10
10
10
10
10
ENDCHAR
STARTCHAR daggerdbl
ENCODING 8225
SWIDTH 555 0
DWIDTH 10 0
BBX 7 12 1 0
BITMAP
10
10
FE
10
10
10
10
10
10
FE
10
10
ENDCHAR
STARTCHAR bullet
ENCODING 8226
SWIDTH 555 0
DWIDTH 10 0
BBX 4 4 3 4
BITMAP
60
F0
F0
60
ENDCHAR
STARTCHAR ellipsis
ENCODING 8230
SWIDTH 555 0
DWIDTH 10 0
BBX 7 2 1 0
BITMAP
92
92
ENDCHAR
STARTCHAR perthousand
ENCODING 8240
SWIDTH 555 0
DWIDTH 10 0
BBX 10 12 0 0
BITMAP
E400
A400
E800
0800
1000
1000
2000
2000
4000
5DC0
9540
9DC0
ENDCHAR
STARTCHAR minute
ENCODING 8242
SWIDTH 555 0
DWIDTH 10 0
BBX 1 5 4 9
BITMAP
80
80
80
80
80
ENDCHAR
STARTCHAR second
ENCODING 8243
SWIDTH 555 0
DWIDTH 10 0
BBX 5 5 2 9
BITMAP
88
88
88
88
88
ENDCHAR
STARTCHAR guilsinglleft
ENCODING 8249
SWIDTH 555 0
DWIDTH 10 0
BBX 5 9 2 0
BITMAP
08
10
20
40
80
40
20
10
08
ENDCHAR
STARTCHAR guilsinglright
ENCODING 8250
SWIDTH 555 0
DWIDTH 10 0
BBX 5 9 2 0
BITMAP
80
40
20
10
08
10
20
40
80
ENDCHAR
STARTCHAR exclamdbl
ENCODING 8252
SWIDTH 555 0
DWIDTH 10 0
BBX 5 12 2 0
BITMAP
88
88
88
88
88
88
88
88
00
00
88
88
ENDCHAR
STARTCHAR overline
ENCODING 8254
SWIDTH 555 0
DWIDTH 10 0
BBX 7 1 1 13
BITMAP
FE
ENDCHAR
STARTCHAR uni2070
ENCODING 8304
SWIDTH 555 0
DWIDTH 10 0
BBX 5 7 2 7
BITMAP
70
88
88
88
88
88
70
ENDCHAR
STARTCHAR uni2071
ENCODING 8305
SWIDTH 555 0
DWIDTH 10 0
BBX 3 8 3 7
BITMAP
40
40
00
C0
40
40
40
E0
ENDCHAR
STARTCHAR uni2074
ENCODING 8308
SWIDTH 555 0
DWIDTH 10 0
BBX 6 7 2 7
BITMAP
08
18
28
48
FC
08
08
ENDCHAR
STARTCHAR uni2075
ENCODING 8309
SWIDTH 555 0
DWIDTH 10 0
BBX 5 7 2 7
BITMAP
F0
80
80
F0
08
08
F0
ENDCHAR
STARTCHAR uni2076
ENCODING 8310
SWIDTH 555 0
DWIDTH 10 0
BBX 5 7 2 7
BITMAP
70
80
80
F0
88
88
70
ENDCHAR
STARTCHAR uni2077
ENCODING 8311
SWIDTH 555 0
DWIDTH 10 0
BBX 5 7 2 7
BITMAP
F8
08
10
10
20
20
20
ENDCHAR
STARTCHAR uni2078
ENCODING 8312
SWIDTH 555 0
DWIDTH 10 0
BBX 5 7 2 7
BITMAP
70
88
88
70
88
88
70
ENDCHAR
STARTCHAR uni2079
ENCODING 8313
SWIDTH 555 0
DWIDTH 10 0
BBX 5 7 2 7
BITMAP
70
88
88
78
08
08
70
ENDCHAR
STARTCHAR uni207A
ENCODING 8314
SWIDTH 555 0
DWIDTH 10 0
BBX 5 5 2 8
BITMAP
20
20
F8
20
20
ENDCHAR
STARTCHAR uni207B
ENCODING 8315
SWIDTH 555 0
DWIDTH 10 0
BBX 5 1 2 10
BITMAP
F8
ENDCHAR
STARTCHAR uni207C
ENCODING 8316
SWIDTH 555 0
DWIDTH 10 0
BBX 5 4 2 8
BITMAP
F8
00
00
F8
ENDCHAR
STARTCHAR uni207D
ENCODING 8317
SWIDTH 555 0
DWIDTH 10 0
BBX 2 7 4 7
BITMAP
40
80
80
80
80
80
40
ENDCHAR
STARTCHAR uni207E
ENCODING 8318
SWIDTH 555 0
DWIDTH 10 0
BBX 2 7 4 7
BITMAP
80
40
40
40
40
40
80
ENDCHAR
STARTCHAR nsuperior
ENCODING 8319
SWIDTH 555 0
DWIDTH 10 0
BBX 5 6 2 7
BITMAP
F0
88
88
88
88
88
ENDCHAR
STARTCHAR uni2080
ENCODING 8320
SWIDTH 555 0
DWIDTH 10 0
BBX 5 7 2 -1
BITMAP
70
88
88
88
88
88
70
ENDCHAR
STARTCHAR uni2081
ENCODING 8321
SWIDTH 555 0
DWIDTH 10 0
BBX 3 7 3 -1
BITMAP
40
C0
40
40
40
40
E0
ENDCHAR
STARTCHAR uni2082
ENCODING 8322
SWIDTH 555 0
DWIDTH 10 0
BBX 5 7 2 -1
BITMAP
70
88
88
10
20
40
F8
ENDCHAR
STARTCHAR uni2083
ENCODING 8323
SWIDTH 555 0
DWIDTH 10 0
BBX 5 7 2 -1
BITMAP
70
88
08
30
08
88
70
ENDCHAR
STARTCHAR uni2084
ENCODING 8324
SWIDTH 555 0
DWIDTH 10 0
BBX 6 7 2 -1
BITMAP
08
18
28
48
FC
08
08
ENDCHAR
STARTCHAR uni2085
ENCODING 8325
SWIDTH 555 0
DWIDTH 10 0
BBX 5 7 2 -1
BITMAP
F0
80
80
F0
08
08
F0
ENDCHAR
STARTCHAR uni2086
ENCODING 8326
SWIDTH 555 0
DWIDTH 10 0
BBX 5 7 2 -1
BITMAP
70
80
80
F0
88
88
70
ENDCHAR
STARTCHAR uni2087
ENCODING 8327
SWIDTH 555 0
DWIDTH 10 0
BBX 5 7 2 -1
BITMAP
F8
08
10
10
20
20
20
ENDCHAR
STARTCHAR uni2088
ENCODING 8328
SWIDTH 555 0
DWIDTH 10 0
BBX 5 7 2 -1
BITMAP
70
88
88
70
88
88
70
ENDCHAR
STARTCHAR uni2089
ENCODING 8329
SWIDTH 555 0
DWIDTH 10 0
BBX 5 7 2 -1
BITMAP
70
88
88
78
08
08
70
ENDCHAR
STARTCHAR uni208A
ENCODING 8330
SWIDTH 555 0
DWIDTH 10 0
BBX 5 5 2 0
BITMAP
20
20
F8
20
20
ENDCHAR
STARTCHAR uni208B
ENCODING 8331
SWIDTH 555 0
DWIDTH 10 0
BBX 5 1 2 2
BITMAP
F8
ENDCHAR
STARTCHAR uni208C
ENCODING 8332
SWIDTH 555 0
DWIDTH 10 0
BBX 5 4 2 1
BITMAP
F8
00
00
F8
ENDCHAR
STARTCHAR uni208D
ENCODING 8333
SWIDTH 555 0
DWIDTH 10 0
BBX 2 7 4 -1
BITMAP
40
80
80
80
80
80
40
ENDCHAR
STARTCHAR uni208E
ENCODING 8334
SWIDTH 555 0
DWIDTH 10 0
BBX 2 7 4 -1
BITMAP
80
40
40
40
40
40
80
ENDCHAR
STARTCHAR uni2090
ENCODING 8336
SWIDTH 555 0
DWIDTH 10 0
BBX 5 6 2 -1
BITMAP
70
08
78
88
88
78
ENDCHAR
STARTCHAR uni2091
ENCODING 8337
SWIDTH 555 0
DWIDTH 10 0
BBX 5 6 2 -1
BITMAP
70
88
F8
80
80
78
ENDCHAR
STARTCHAR uni2092
ENCODING 8338
SWIDTH 555 0
DWIDTH 10 0
BBX 5 6 2 -1
BITMAP
70
88
88
88
88
70
ENDCHAR
STARTCHAR uni2093
ENCODING 8339
SWIDTH 555 0
DWIDTH 10 0
BBX 5 6 2 -1
BITMAP
88
50
20
20
50
88
ENDCHAR
STARTCHAR uni2094
ENCODING 8340
SWIDTH 555 0
DWIDTH 10 0
BBX 5 6 2 -1
BITMAP
F0
08
08
F8
88
70
ENDCHAR
STARTCHAR uni2095
ENCODING 8341
SWIDTH 555 0
DWIDTH 10 0
BBX 5 8 2 -1
BITMAP
80
80
F0
88
88
88
88
88
ENDCHAR
STARTCHAR uni2096
ENCODING 8342
SWIDTH 555 0
DWIDTH 10 0
BBX 5 8 2 -1
BITMAP
80
80
88
90
A0
E0
90
88
ENDCHAR
STARTCHAR uni2097
ENCODING 8343
SWIDTH 555 0
DWIDTH 10 0
BBX 3 8 3 -1
BITMAP
C0
40
40
40
40
40
40
E0
ENDCHAR
STARTCHAR uni2098
ENCODING 8344
SWIDTH 555 0
DWIDTH 10 0
BBX 7 6 1 -1
BITMAP
FC
92
92
92
92
92
ENDCHAR
STARTCHAR uni209A
ENCODING 8346
SWIDTH 555 0
DWIDTH 10 0
BBX 5 8 2 -3
BITMAP
F0
88
88
88
88
F0
80
80
ENDCHAR
STARTCHAR peseta
ENCODING 8359
SWIDTH 555 0
DWIDTH 10 0
BBX 7 12 1 0
BITMAP
F0
88
88
88
88
F4
84
8E
84
84
84
82
ENDCHAR
STARTCHAR afii57636
ENCODING 8362
SWIDTH 555 0
DWIDTH 10 0
BBX 7 12 1 0
BITMAP
F2
8A
8A
AA
AA
AA
AA
AA
AA
A2
A2
BC
ENDCHAR
STARTCHAR Euro
ENCODING 8364
SWIDTH 555 0
DWIDTH 10 0
BBX 9 12 0 0
BITMAP
1E00
2100
4080
4000
FC00
4000
4000
FC00
4000
4080
2100
1E00
ENDCHAR
STARTCHAR uni20AE
ENCODING 8366
SWIDTH 555 0
DWIDTH 10 0
BBX 7 12 1 0
BITMAP
FE
10
10
10
1C
70
1C
70
10
10
10
10
ENDCHAR
STARTCHAR uni2102
ENCODING 8450
SWIDTH 555 0
DWIDTH 10 0
BBX 7 12 1 0
BITMAP
7C
A2
A2
A0
A0
A0
A0
A0
A0
A2
A2
7C
ENDCHAR
STARTCHAR uni210E
ENCODING 8462
SWIDTH 555 0
DWIDTH 10 0
BBX 7 12 1 0
BITMAP
80
80
80
FC
82
82
82
82
82
82
82
82
ENDCHAR
STARTCHAR uni210F
ENCODING 8463
SWIDTH 555 0
DWIDTH 10 0
BBX 8 12 0 0
BITMAP
40
F8
40
7E
41
41
41
41
41
41
41
41
ENDCHAR
STARTCHAR uni2115
ENCODING 8469
SWIDTH 555 0
DWIDTH 10 0
BBX 7 12 1 0
BITMAP
82
82
C2
A2
D2
AA
96
8A
86
82
82
82
ENDCHAR
STARTCHAR afii61352
ENCODING 8470
SWIDTH 555 0
DWIDTH 10 0
BBX 10 12 0 0
BITMAP
8400
8480
C540
C540
A480
A400
9400
9400
8DC0
8C00
85C0
8400
ENDCHAR
STARTCHAR uni211A
ENCODING 8474
SWIDTH 555 0
DWIDTH 10 0
BBX 8 14 1 -2
BITMAP
7C
A2
A2
A2
A2
A2
A2
A2
A2
A2
AA
7C
02
01
ENDCHAR
STARTCHAR uni211D
ENCODING 8477
SWIDTH 555 0
DWIDTH 10 0
BBX 8 12 1 0
BITMAP
FC
A2
A2
A2
A2
A2
BC
A8
B4
AA
A5
E3
ENDCHAR
STARTCHAR trademark
ENCODING 8482
SWIDTH 555 0
DWIDTH 10 0
BBX 9 5 0 7
BITMAP
E880
4D80
4A80
4880
4880
ENDCHAR
STARTCHAR uni2124
ENCODING 8484
SWIDTH 555 0
DWIDTH 10 0
BBX 7 12 1 0
BITMAP
FE
02
06
0A
14
28
50
A0
C0
80
80
FE
ENDCHAR
STARTCHAR Ohm
ENCODING 8486
SWIDTH 555 0
DWIDTH 10 0
BBX 7 12 1 0
BITMAP
7C
82
82
82
82
82
82
82
44
28
28
EE
ENDCHAR
STARTCHAR aleph
ENCODING 8501
SWIDTH 555 0
DWIDTH 10 0
BBX 9 12 0 0
BITMAP
4200
4200
2100
2100
1080
3100
4A00
8C00
8400
8400
8200
4200
ENDCHAR
STARTCHAR arrowleft
ENCODING 8592
SWIDTH 555 0
DWIDTH 10 0
BBX 9 7 0 3
BITMAP
1000
2000
4000
FF80
4000
2000
1000
ENDCHAR
STARTCHAR arrowup
ENCODING 8593
SWIDTH 555 0
DWIDTH 10 0
BBX 7 12 1 0
BITMAP
10
38
54
92
10
10
10
10
10
10
10
10
ENDCHAR
STARTCHAR arrowright
ENCODING 8594
SWIDTH 555 0
DWIDTH 10 0
BBX 9 7 0 3
BITMAP
0400
0200
0100
FF80
0100
0200
0400
ENDCHAR
STARTCHAR arrowdown
ENCODING 8595
SWIDTH 555 0
DWIDTH 10 0
BBX 7 12 1 0
BITMAP
10
10
10
10
10
10
10
10
92
54
38
10
ENDCHAR
STARTCHAR arrowboth
ENCODING 8596
SWIDTH 555 0
DWIDTH 10 0
BBX 10 7 0 3
BITMAP
1200
2100
4080
FFC0
4080
2100
1200
ENDCHAR
STARTCHAR arrowupdn
ENCODING 8597
SWIDTH 555 0
DWIDTH 10 0
BBX 7 12 1 0
BITMAP
10
38
54
92
10
10
10
10
92
54
38
10
ENDCHAR
STARTCHAR uni21A4
ENCODING 8612
SWIDTH 555 0
DWIDTH 10 0
BBX 9 7 0 3
BITMAP
1080
2080
4080
FF80
4080
2080
1080
ENDCHAR
STARTCHAR uni21A6
ENCODING 8614
SWIDTH 555 0
DWIDTH 10 0
BBX 9 7 0 3
BITMAP
8400
8200
8100
FF80
8100
8200
8400
ENDCHAR
STARTCHAR arrowupdnbse
ENCODING 8616
SWIDTH 555 0
DWIDTH 10 0
BBX 7 12 1 0
BITMAP
10
38
54
92
10
10
10
92
54
38
10
FE
ENDCHAR
STARTCHAR uni21B2
ENCODING 8626
SWIDTH 555 0
DWIDTH 10 0
BBX 9 12 0 0
BITMAP
0080
0080
0080
0080
0080
1080
2080
4080
FF80
4000
2000
1000
ENDCHAR
STARTCHAR uni21B3
ENCODING 8627
SWIDTH 555 0
DWIDTH 10 0
BBX 9 12 0 0
BITMAP
8000
8000
8000
8000
8000
8400
8200
8100
FF80
0100
0200
0400
ENDCHAR
STARTCHAR carriagereturn
ENCODING 8629
SWIDTH 555 0
DWIDTH 10 0
BBX 9 10 0 0
BITMAP
0080
0080
0080
1080
2080
4080
FF80
4000
2000
1000
ENDCHAR
STARTCHAR uni21BB
ENCODING 8635
SWIDTH 555 0
DWIDTH 10 0
BBX 8 9 1 2
BITMAP
F0
30
50
91
81
81
81
42
3C
ENDCHAR
STARTCHAR uni21CB
ENCODING 8651
SWIDTH 555 0
DWIDTH 10 0
BBX 9 9 0 2
BITMAP
1000
2000
4000
FF80
0000
FF80
0100
0200
0400
ENDCHAR
STARTCHAR uni21CC
ENCODING 8652
SWIDTH 555 0
DWIDTH 10 0
BBX 9 9 0 2
BITMAP
0400
0200
0100
FF80
0000
FF80
4000
2000
1000
ENDCHAR
STARTCHAR arrowdblleft
ENCODING 8656
SWIDTH 555 0
DWIDTH 10 0
BBX 9 7 0 3
BITMAP
1000
2000
7F80
C000
7F80
2000
1000
ENDCHAR
STARTCHAR arrowdblup
ENCODING 8657
SWIDTH 555 0
DWIDTH 10 0
BBX 7 12 1 0
BITMAP
10
38
6C
AA
28
28
28
28
28
28
28
28
ENDCHAR
STARTCHAR arrowdblright
ENCODING 8658
SWIDTH 555 0
DWIDTH 10 0
BBX 9 7 0 3
BITMAP
0400
0200
FF00
0180
FF00
0200
0400
ENDCHAR
STARTCHAR arrowdbldown
ENCODING 8659
SWIDTH 555 0
DWIDTH 10 0
BBX 7 12 1 0
BITMAP
28
28
28
28
28
28
28
28
AA
6C
38
10
ENDCHAR
STARTCHAR arrowdblboth
ENCODING 8660
SWIDTH 555 0
DWIDTH 10 0
BBX 10 7 0 3
BITMAP
1200
2100
7F80
C0C0
7F80
2100
1200
ENDCHAR
STARTCHAR uni21D5
ENCODING 8661
SWIDTH 555 0
DWIDTH 10 0
BBX 7 12 1 0
BITMAP
10
38
6C
AA
28
28
28
28
AA
6C
38
10
ENDCHAR
STARTCHAR universal
ENCODING 8704
SWIDTH 555 0
DWIDTH 10 0
BBX 7 12 1 0
BITMAP
82
82
82
FE
44
44
44
28
28
28
10
10
ENDCHAR
STARTCHAR existential
ENCODING 8707
SWIDTH 555 0
DWIDTH 10 0
BBX 7 11 1 0
BITMAP
FE
02
02
02
02
FE
02
02
02
02
FE
ENDCHAR
STARTCHAR uni2204
ENCODING 8708
SWIDTH 555 0
DWIDTH 10 0
BBX 7 13 1 -1
BITMAP
04
FE
0A
0A
12
12
FE
22
22
42
42
FE
80
ENDCHAR
STARTCHAR emptyset
ENCODING 8709
SWIDTH 555 0
DWIDTH 10 0
BBX 7 11 1 0
BITMAP
02
04
7C
8A
8A
92
A2
A2
7C
40
80
ENDCHAR
STARTCHAR increment
ENCODING 8710
SWIDTH 555 0
DWIDTH 10 0
BBX 7 12 1 0
BITMAP
10
10
10
28
28
28
44
44
44
82
82
FE
ENDCHAR
STARTCHAR gradient
ENCODING 8711
SWIDTH 555 0
DWIDTH 10 0
BBX 7 12 1 0
BITMAP
FE
82
82
44
44
44
28
28
28
10
10
10
ENDCHAR
STARTCHAR element
ENCODING 8712
SWIDTH 555 0
DWIDTH 10 0
BBX 7 11 1 0
BITMAP
1E
20
40
80
80
FE
80
80
40
20
1E
ENDCHAR
STARTCHAR notelement
ENCODING 8713
SWIDTH 555 0
DWIDTH 10 0
BBX 7 13 1 -1
BITMAP
02
1E
24
44
88
88
FE
90
90
60
20
5E
40
ENDCHAR
STARTCHAR uni220A
ENCODING 8714
SWIDTH 555 0
DWIDTH 10 0
BBX 7 9 1 2
BITMAP
3E
40
80
80
FE
80
80
40
3E
ENDCHAR
STARTCHAR suchthat
ENCODING 8715
SWIDTH 555 0
DWIDTH 10 0
BBX 7 11 1 0
BITMAP
F0
08
04
02
02
FE
02
02
04
08
F0
ENDCHAR
STARTCHAR uni220C
ENCODING 8716
SWIDTH 555 0
DWIDTH 10 0
BBX 7 13 1 -1
BITMAP
80
F0
48
44
22
22
FE
12
12
0C
08
F4
04
ENDCHAR
STARTCHAR uni220D
ENCODING 8717
SWIDTH 555 0
DWIDTH 10 0
BBX 7 9 1 2
BITMAP
F8
04
02
02
FE
02
02
04
F8
ENDCHAR
STARTCHAR minus
ENCODING 8722
SWIDTH 555 0
DWIDTH 10 0
BBX 7 1 1 6
BITMAP
FE
ENDCHAR
STARTCHAR uni2213
ENCODING 8723
SWIDTH 555 0
DWIDTH 10 0
BBX 7 10 1 0
BITMAP
FE
00
00
10
10
10
FE
10
10
10
ENDCHAR
STARTCHAR uni2214
ENCODING 8724
SWIDTH 555 0
DWIDTH 10 0
BBX 7 11 1 0
BITMAP
10
10
00
00
10
10
10
FE
10
10
10
ENDCHAR
STARTCHAR uni2215
ENCODING 8725
SWIDTH 555 0
DWIDTH 10 0
BBX 8 8 1 2
BITMAP
01
02
04
08
10
20
40
80
ENDCHAR
STARTCHAR uni2216
ENCODING 8726
SWIDTH 555 0
DWIDTH 10 0
BBX 8 8 1 2
BITMAP
80
40
20
10
08
04
02
01
ENDCHAR
STARTCHAR bulletoperator
ENCODING 8729
SWIDTH 555 0
DWIDTH 10 0
BBX 2 2 4 5
BITMAP
C0
C0
ENDCHAR
STARTCHAR radical
ENCODING 8730
SWIDTH 555 0
DWIDTH 10 0
BBX 8 14 1 0
BITMAP
07
04
04
04
04
04
04
84
84
84
44
24
14
0C
ENDCHAR
STARTCHAR infinity
ENCODING 8734
SWIDTH 555 0
DWIDTH 10 0
BBX 7 6 1 3
BITMAP
6C
92
92
92
92
6C
ENDCHAR
STARTCHAR orthogonal
ENCODING 8735
SWIDTH 555 0
DWIDTH 10 0
BBX 7 7 1 3
BITMAP
80
80
80
80
80
80
FE
ENDCHAR
STARTCHAR uni2225
ENCODING 8741
SWIDTH 555 0
DWIDTH 10 0
BBX 3 12 3 0
BITMAP
A0
A0
A0
A0
A0
A0
A0
A0
A0
A0
A0
A0
ENDCHAR
STARTCHAR logicaland
ENCODING 8743
SWIDTH 555 0
DWIDTH 10 0
BBX 7 9 1 0
BITMAP
10
10
28
28
44
44
44
82
82
ENDCHAR
STARTCHAR logicalor
ENCODING 8744
SWIDTH 555 0
DWIDTH 10 0
BBX 7 9 1 0
BITMAP
82
82
44
44
44
28
28
10
10
ENDCHAR
STARTCHAR intersection
ENCODING 8745
SWIDTH 555 0
DWIDTH 10 0
BBX 7 9 1 0
BITMAP
38
44
82
82
82
82
82
82
82
ENDCHAR
STARTCHAR union
ENCODING 8746
SWIDTH 555 0
DWIDTH 10 0
BBX 7 9 1 0
BITMAP
82
82
82
82
82
82
82
44
38
ENDCHAR
STARTCHAR approxequal
ENCODING 8776
SWIDTH 555 0
DWIDTH 10 0
BBX 7 7 1 3
BITMAP
62
92
8C
00
62
92
8C
ENDCHAR
STARTCHAR notequal
ENCODING 8800
SWIDTH 555 0
DWIDTH 10 0
BBX 7 7 1 3
BITMAP
02
FE
08
10
20
FE
80
ENDCHAR
STARTCHAR equivalence
ENCODING 8801
SWIDTH 555 0
DWIDTH 10 0
BBX 7 9 1 2
BITMAP
FE
00
00
00
FE
00
00
00
FE
ENDCHAR
STARTCHAR lessequal
ENCODING 8804
SWIDTH 555 0
DWIDTH 10 0
BBX 7 12 1 0
BITMAP
04
08
10
20
40
40
20
10
08
04
00
FE
ENDCHAR
STARTCHAR greaterequal
ENCODING 8805
SWIDTH 555 0
DWIDTH 10 0
BBX 7 12 1 0
BITMAP
40
20
10
08
04
04
08
10
20
40
00
FE
ENDCHAR
STARTCHAR uni226A
ENCODING 8810
SWIDTH 555 0
DWIDTH 10 0
BBX 10 11 0 0
BITMAP
0440
0880
1100
2200
4400
8800
4400
2200
1100
0880
0440
ENDCHAR
STARTCHAR uni226B
ENCODING 8811
SWIDTH 555 0
DWIDTH 10 0
BBX 10 11 0 0
BITMAP
8800
4400
2200
1100
0880
0440
0880
1100
2200
4400
8800
ENDCHAR
STARTCHAR propersubset
ENCODING 8834
SWIDTH 555 0
DWIDTH 10 0
BBX 7 9 1 2
BITMAP
3E
40
80
80
80
80
80
40
3E
ENDCHAR
STARTCHAR propersuperset
ENCODING 8835
SWIDTH 555 0
DWIDTH 10 0
BBX 7 9 1 2
BITMAP
F8
04
02
02
02
02
02
04
F8
ENDCHAR
STARTCHAR reflexsubset
ENCODING 8838
SWIDTH 555 0
DWIDTH 10 0
BBX 7 11 1 0
BITMAP
3E
40
80
80
80
80
80
40
3E
00
FE
ENDCHAR
STARTCHAR reflexsuperset
ENCODING 8839
SWIDTH 555 0
DWIDTH 10 0
BBX 7 11 1 0
BITMAP
F8
04
02
02
02
02
02
04
F8
00
FE
ENDCHAR
STARTCHAR perpendicular
ENCODING 8869
SWIDTH 555 0
DWIDTH 10 0
BBX 7 9 1 0
BITMAP
10
10
10
10
10
10
10
10
FE
ENDCHAR
STARTCHAR uni22C2
ENCODING 8898
SWIDTH 555 0
DWIDTH 10 0
BBX 7 12 1 0
BITMAP
38
44
82
82
82
82
82
82
82
82
82
82
ENDCHAR
STARTCHAR uni22C3
ENCODING 8899
SWIDTH 555 0
DWIDTH 10 0
BBX 7 12 1 0
BITMAP
82
82
82
82
82
82
82
82
82
82
44
38
ENDCHAR
STARTCHAR uni2300
ENCODING 8960
SWIDTH 555 0
DWIDTH 10 0
BBX 7 11 1 0
BITMAP
02
04
7C
8A
8A
92
A2
A2
7C
40
80
ENDCHAR
STARTCHAR house
ENCODING 8962
SWIDTH 555 0
DWIDTH 10 0
BBX 9 10 0 0
BITMAP
0800
1400
2200
4100
8080
8080
8080
8080
8080
FF80
ENDCHAR
STARTCHAR uni2308
ENCODING 8968
SWIDTH 555 0
DWIDTH 10 0
BBX 3 12 3 0
BITMAP
E0
80
80
80
80
80
80
80
80
80
80
80
ENDCHAR
STARTCHAR uni2309
ENCODING 8969
SWIDTH 555 0
DWIDTH 10 0
BBX 3 12 3 0
BITMAP
E0
20
20
20
20
20
20
20
20
20
20
20
ENDCHAR
STARTCHAR uni230A
ENCODING 8970
SWIDTH 555 0
DWIDTH 10 0
BBX 3 12 3 0
BITMAP
80
80
80
80
80
80
80
80
80
80
80
E0
ENDCHAR
STARTCHAR uni230B
ENCODING 8971
SWIDTH 555 0
DWIDTH 10 0
BBX 3 12 3 0
BITMAP
20
20
20
20
20
20
20
20
20
20
20
E0
ENDCHAR
STARTCHAR revlogicalnot
ENCODING 8976
SWIDTH 555 0
DWIDTH 10 0
BBX 7 5 1 3
BITMAP
FE
80
80
80
80
ENDCHAR
STARTCHAR uni2319
ENCODING 8985
SWIDTH 555 0
DWIDTH 10 0
BBX 7 5 1 3
BITMAP
80
80
80
80
FE
ENDCHAR
STARTCHAR integraltp
ENCODING 8992
SWIDTH 555 0
DWIDTH 10 0
BBX 4 15 4 -3
BITMAP
60
90
90
80
80
80
80
80
80
80
80
80
80
80
80
ENDCHAR
STARTCHAR integralbt
ENCODING 8993
SWIDTH 555 0
DWIDTH 10 0
BBX 4 15 1 0
BITMAP
10
10
10
10
10
10
10
10
10
10
10
10
90
90
60
ENDCHAR
STARTCHAR uni239B
ENCODING 9115
SWIDTH 555 0
DWIDTH 10 0
BBX 6 18 2 -3
BITMAP
04
08
10
10
20
20
20
40
40
40
40
80
80
80
80
80
80
80
ENDCHAR
STARTCHAR uni239C
ENCODING 9116
SWIDTH 555 0
DWIDTH 10 0
BBX 1 18 2 -3
BITMAP
80
80
80
80
80
80
80
80
80
80
80
80
80
80
80
80
80
80
ENDCHAR
STARTCHAR uni239D
ENCODING 9117
SWIDTH 555 0
DWIDTH 10 0
BBX 6 18 2 -3
BITMAP
80
80
80
80
80
80
80
40
40
40
40
20
20
20
10
10
08
04
ENDCHAR
STARTCHAR uni239E
ENCODING 9118
SWIDTH 555 0
DWIDTH 10 0
BBX 6 18 2 -3
BITMAP
80
40
20
20
10
10
10
08
08
08
08
04
04
04
04
04
04
04
ENDCHAR
STARTCHAR uni239F
ENCODING 9119
SWIDTH 555 0
DWIDTH 10 0
BBX 1 18 7 -3
BITMAP
80
80
80
80
80
80
80
80
80
80
80
80
80
80
80
80
80
80
ENDCHAR
STARTCHAR uni23A0
ENCODING 9120
SWIDTH 555 0
DWIDTH 10 0
BBX 6 18 2 -3
BITMAP
04
04
04
04
04
04
04
08
08
08
08
10
10
10
20
20
40
80
ENDCHAR
STARTCHAR uni23A1
ENCODING 9121
SWIDTH 555 0
DWIDTH 10 0
BBX 6 18 2 -3
BITMAP
FC
80
80
80
80
80
80
80
80
80
80
80
80
80
80
80
80
80
ENDCHAR
STARTCHAR uni23A2
ENCODING 9122
SWIDTH 555 0
DWIDTH 10 0
BBX 1 18 2 -3
BITMAP
80
80
80
80
80
80
80
80
80
80
80
80
80
80
80
80
80
80
ENDCHAR
STARTCHAR uni23A3
ENCODING 9123
SWIDTH 555 0
DWIDTH 10 0
BBX 6 18 2 -3
BITMAP
80
80
80
80
80
80
80
80
80
80
80
80
80
80
80
80
80
FC
ENDCHAR
STARTCHAR uni23A4
ENCODING 9124
SWIDTH 555 0
DWIDTH 10 0
BBX 6 18 2 -3
BITMAP
FC
04
04
04
04
04
04
04
04
04
04
04
04
04
04
04
04
04
ENDCHAR
STARTCHAR uni23A5
ENCODING 9125
SWIDTH 555 0
DWIDTH 10 0
BBX 1 18 7 -3
BITMAP
80
80
80
80
80
80
80
80
80
80
80
80
80
80
80
80
80
80
ENDCHAR
STARTCHAR uni23A6
ENCODING 9126
SWIDTH 555 0
DWIDTH 10 0
BBX 6 18 2 -3
BITMAP
04
04
04
04
04
04
04
04
04
04
04
04
04
04
04
04
04
FC
ENDCHAR
STARTCHAR uni23A7
ENCODING 9127
SWIDTH 555 0
DWIDTH 10 0
BBX 6 18 3 -3
BITMAP
1C
60
40
80
80
80
80
80
80
80
80
80
80
80
80
80
80
80
ENDCHAR
STARTCHAR uni23A8
ENCODING 9128
SWIDTH 555 0
DWIDTH 10 0
BBX 4 18 0 -3
BITMAP
10
10
10
10
10
10
10
20
C0
C0
20
10
10
10
10
10
10
10
ENDCHAR
STARTCHAR uni23A9
ENCODING 9129
SWIDTH 555 0
DWIDTH 10 0
BBX 6 18 3 -3
BITMAP
80
80
80
80
80
80
80
80
80
80
80
80
80
80
80
40
60
1C
ENDCHAR
STARTCHAR uni23AB
ENCODING 9131
SWIDTH 555 0
DWIDTH 10 0
BBX 6 18 0 -3
BITMAP
E0
18
08
04
04
04
04
04
04
04
04
04
04
04
04
04
04
04
ENDCHAR
STARTCHAR uni23AC
ENCODING 9132
SWIDTH 555 0
DWIDTH 10 0
BBX 4 18 5 -3
BITMAP
80
80
80
80
80
80
80
40
30
30
40
80
80
80
80
80
80
80
ENDCHAR
STARTCHAR uni23AD
ENCODING 9133
SWIDTH 555 0
DWIDTH 10 0
BBX 6 18 0 -3
BITMAP
04
04
04
04
04
04
04
04
04
04
04
04
04
04
04
08
18
E0
ENDCHAR
STARTCHAR uni23AE
ENCODING 9134
SWIDTH 555 0
DWIDTH 10 0
BBX 1 18 4 -3
BITMAP
80
80
80
80
80
80
80
80
80
80
80
80
80
80
80
80
80
80
ENDCHAR
STARTCHAR uni23AF
ENCODING 9135
SWIDTH 555 0
DWIDTH 10 0
BBX 10 1 0 6
BITMAP
FFC0
ENDCHAR
STARTCHAR uni23BA
ENCODING 9146
SWIDTH 555 0
DWIDTH 10 0
BBX 10 1 0 14
BITMAP
FFC0
ENDCHAR
STARTCHAR uni23BB
ENCODING 9147
SWIDTH 555 0
DWIDTH 10 0
BBX 10 1 0 10
BITMAP
FFC0
ENDCHAR
STARTCHAR uni23BC
ENCODING 9148
SWIDTH 555 0
DWIDTH 10 0
BBX 10 1 0 1
BITMAP
FFC0
ENDCHAR
STARTCHAR uni23BD
ENCODING 9149
SWIDTH 555 0
DWIDTH 10 0
BBX 10 1 0 -3
BITMAP
FFC0
ENDCHAR
STARTCHAR uni23D0
ENCODING 9168
SWIDTH 555 0
DWIDTH 10 0
BBX 1 18 4 -3
BITMAP
80
80
80
80
80
80
80
80
80
80
80
80
80
80
80
80
80
80
ENDCHAR
STARTCHAR uni2409
ENCODING 9225
SWIDTH 555 0
DWIDTH 10 0
BBX 8 13 1 0
BITMAP
88
88
F8
88
88
88
00
1F
04
04
04
04
04
ENDCHAR
STARTCHAR uni240A
ENCODING 9226
SWIDTH 555 0
DWIDTH 10 0
BBX 8 13 1 0
BITMAP
80
80
80
80
80
F8
00
1F
10
1C
10
10
10
ENDCHAR
STARTCHAR uni240B
ENCODING 9227
SWIDTH 555 0
DWIDTH 10 0
BBX 8 14 1 -1
BITMAP
88
88
50
50
20
20
00
00
1F
04
04
04
04
04
ENDCHAR
STARTCHAR uni240C
ENCODING 9228
SWIDTH 555 0
DWIDTH 10 0
BBX 8 13 1 0
BITMAP
F8
80
E0
80
80
80
00
1F
10
1C
10
10
10
ENDCHAR
STARTCHAR uni240D
ENCODING 9229
SWIDTH 555 0
DWIDTH 10 0
BBX 8 13 1 0
BITMAP
70
88
80
80
88
70
00
1E
11
11
1E
12
11
ENDCHAR
STARTCHAR uni2424
ENCODING 9252
SWIDTH 555 0
DWIDTH 10 0
BBX 8 13 1 0
BITMAP
88
C8
A8
98
88
88
00
10
10
10
10
10
1F
ENDCHAR
STARTCHAR SF100000
ENCODING 9472
SWIDTH 555 0
DWIDTH 10 0
BBX 10 1 0 6
BITMAP
FFC0
ENDCHAR
STARTCHAR uni2501
ENCODING 9473
SWIDTH 555 0
DWIDTH 10 0
BBX 10 2 0 5
BITMAP
FFC0
FFC0
ENDCHAR
STARTCHAR SF110000
ENCODING 9474
SWIDTH 555 0
DWIDTH 10 0
BBX 1 18 4 -3
BITMAP
80
80
80
80
80
80
80
80
80
80
80
80
80
80
80
80
80
80
ENDCHAR
STARTCHAR uni2503
ENCODING 9475
SWIDTH 555 0
DWIDTH 10 0
BBX 2 18 4 -3
BITMAP
C0
C0
C0
C0
C0
C0
C0
C0
C0
C0
C0
C0
C0
C0
C0
C0
C0
C0
ENDCHAR
STARTCHAR uni2508
ENCODING 9480
SWIDTH 555 0
DWIDTH 10 0
BBX 9 1 0 6
BITMAP
D680
ENDCHAR
STARTCHAR uni2509
ENCODING 9481
SWIDTH 555 0
DWIDTH 10 0
BBX 9 2 0 5
BITMAP
D680
D680
ENDCHAR
STARTCHAR uni250A
ENCODING 9482
SWIDTH 555 0
DWIDTH 10 0
BBX 1 17 4 -2
BITMAP
80
80
80
80
00
80
80
80
00
80
80
80
80
00
80
80
80
ENDCHAR
STARTCHAR uni250B
ENCODING 9483
SWIDTH 555 0
DWIDTH 10 0
BBX 2 17 4 -2
BITMAP
C0
C0
C0
C0
00
C0
C0
C0
00
C0
C0
C0
C0
00
C0
C0
C0
ENDCHAR
STARTCHAR SF010000
ENCODING 9484
SWIDTH 555 0
DWIDTH 10 0
BBX 6 10 4 -3
BITMAP
FC
80
80
80
80
80
80
80
80
80
ENDCHAR
STARTCHAR uni250D
ENCODING 9485
SWIDTH 555 0
DWIDTH 10 0
BBX 6 10 4 -3
BITMAP
FC
FC
80
80
80
80
80
80
80
80
ENDCHAR
STARTCHAR uni250E
ENCODING 9486
SWIDTH 555 0
DWIDTH 10 0
BBX 6 10 4 -3
BITMAP
FC
C0
C0
C0
C0
C0
C0
C0
C0
C0
ENDCHAR
STARTCHAR uni250F
ENCODING 9487
SWIDTH 555 0
DWIDTH 10 0
BBX 6 10 4 -3
BITMAP
FC
FC
C0
C0
C0
C0
C0
C0
C0
C0
ENDCHAR
STARTCHAR SF030000
ENCODING 9488
SWIDTH 555 0
DWIDTH 10 0
BBX 5 10 0 -3
BITMAP
F8
08
08
08
08
08
08
08
08
08
ENDCHAR
STARTCHAR uni2511
ENCODING 9489
SWIDTH 555 0
DWIDTH 10 0
BBX 5 10 0 -3
BITMAP
F8
F8
08
08
08
08
08
08
08
08
ENDCHAR
STARTCHAR uni2512
ENCODING 9490
SWIDTH 555 0
DWIDTH 10 0
BBX 6 10 0 -3
BITMAP
FC
0C
0C
0C
0C
0C
0C
0C
0C
0C
ENDCHAR
STARTCHAR uni2513
ENCODING 9491
SWIDTH 555 0
DWIDTH 10 0
BBX 6 10 0 -3
BITMAP
FC
FC
0C
0C
0C
0C
0C
0C
0C
0C
ENDCHAR
STARTCHAR SF020000
ENCODING 9492
SWIDTH 555 0
DWIDTH 10 0
BBX 6 9 4 6
BITMAP
80
80
80
80
80
80
80
80
FC
ENDCHAR
STARTCHAR uni2515
ENCODING 9493
SWIDTH 555 0
DWIDTH 10 0
BBX 6 10 4 5
BITMAP
80
80
80
80
80
80
80
80
FC
FC
ENDCHAR
STARTCHAR uni2516
ENCODING 9494
SWIDTH 555 0
DWIDTH 10 0
BBX 6 9 4 6
BITMAP
C0
C0
C0
C0
C0
C0
C0
C0
FC
ENDCHAR
STARTCHAR uni2517
ENCODING 9495
SWIDTH 555 0
DWIDTH 10 0
BBX 6 10 4 5
BITMAP
C0
C0
C0
C0
C0
C0
C0
C0
FC
FC
ENDCHAR
STARTCHAR SF040000
ENCODING 9496
SWIDTH 555 0
DWIDTH 10 0
BBX 5 9 0 6
BITMAP
08
08
08
08
08
08
08
08
F8
ENDCHAR
STARTCHAR uni2519
ENCODING 9497
SWIDTH 555 0
DWIDTH 10 0
BBX 5 10 0 5
BITMAP
08
08
08
08
08
08
08
08
F8
F8
ENDCHAR
STARTCHAR uni251A
ENCODING 9498
SWIDTH 555 0
DWIDTH 10 0
BBX 6 9 0 6
BITMAP
0C
0C
0C
0C
0C
0C
0C
0C
FC
ENDCHAR
STARTCHAR uni251B
ENCODING 9499
SWIDTH 555 0
DWIDTH 10 0
BBX 6 10 0 5
BITMAP
0C
0C
0C
0C
0C
0C
0C
0C
FC
FC
ENDCHAR
STARTCHAR SF080000
ENCODING 9500
SWIDTH 555 0
DWIDTH 10 0
BBX 6 18 4 -3
BITMAP
80
80
80
80
80
80
80
80
FC
80
80
80
80
80
80
80
80
80
ENDCHAR
STARTCHAR uni251D
ENCODING 9501
SWIDTH 555 0
DWIDTH 10 0
BBX 6 18 4 -3
BITMAP
80
80
80
80
80
80
80
80
FC
FC
80
80
80
80
80
80
80
80
ENDCHAR
STARTCHAR uni251E
ENCODING 9502
SWIDTH 555 0
DWIDTH 10 0
BBX 6 18 4 -3
BITMAP
C0
C0
C0
C0
C0
C0
C0
C0
FC
80
80
80
80
80
80
80
80
80
ENDCHAR
STARTCHAR uni251F
ENCODING 9503
SWIDTH 555 0
DWIDTH 10 0
BBX 6 18 4 -3
BITMAP
80
80
80
80
80
80
80
80
FC
C0
C0
C0
C0
C0
C0
C0
C0
C0
ENDCHAR
STARTCHAR uni2520
ENCODING 9504
SWIDTH 555 0
DWIDTH 10 0
BBX 6 18 4 -3
BITMAP
C0
C0
C0
C0
C0
C0
C0
C0
FC
C0
C0
C0
C0
C0
C0
C0
C0
C0
ENDCHAR
STARTCHAR uni2521
ENCODING 9505
SWIDTH 555 0
DWIDTH 10 0
BBX 6 18 4 -3
BITMAP
C0
C0
C0
C0
C0
C0
C0
C0
FC
FC
80
80
80
80
80
80
80
80
ENDCHAR
STARTCHAR uni2522
ENCODING 9506
SWIDTH 555 0
DWIDTH 10 0
BBX 6 18 4 -3
BITMAP
80
80
80
80
80
80
80
80
FC
FC
C0
C0
C0
C0
C0
C0
C0
C0
ENDCHAR
STARTCHAR uni2523
ENCODING 9507
SWIDTH 555 0
DWIDTH 10 0
BBX 6 18 4 -3
BITMAP
C0
C0
C0
C0
C0
C0
C0
C0
FC
FC
C0
C0
C0
C0
C0
C0
C0
C0
ENDCHAR
STARTCHAR SF090000
ENCODING 9508
SWIDTH 555 0
DWIDTH 10 0
BBX 5 18 0 -3
BITMAP
08
08
08
08
08
08
08
08
F8
08
08
08
08
08
08
08
08
08
ENDCHAR
STARTCHAR uni2525
ENCODING 9509
SWIDTH 555 0
DWIDTH 10 0
BBX 5 18 0 -3
BITMAP
08
08
08
08
08
08
08
08
F8
F8
08
08
08
08
08
08
08
08
ENDCHAR
STARTCHAR uni2526
ENCODING 9510
SWIDTH 555 0
DWIDTH 10 0
BBX 6 18 0 -3
BITMAP
0C
0C
0C
0C
0C
0C
0C
0C
FC
08
08
08
08
08
08
08
08
08
ENDCHAR
STARTCHAR uni2527
ENCODING 9511
SWIDTH 555 0
DWIDTH 10 0
BBX 6 18 0 -3
BITMAP
08
08
08
08
08
08
08
08
FC
0C
0C
0C
0C
0C
0C
0C
0C
0C
ENDCHAR
STARTCHAR uni2528
ENCODING 9512
SWIDTH 555 0
DWIDTH 10 0
BBX 6 18 0 -3
BITMAP
0C
0C
0C
0C
0C
0C
0C
0C
FC
0C
0C
0C
0C
0C
0C
0C
0C
0C
ENDCHAR
STARTCHAR uni2529
ENCODING 9513
SWIDTH 555 0
DWIDTH 10 0
BBX 6 18 0 -3
BITMAP
0C
0C
0C
0C
0C
0C
0C
0C
FC
FC
08
08
08
08
08
08
08
08
ENDCHAR
STARTCHAR uni252A
ENCODING 9514
SWIDTH 555 0
DWIDTH 10 0
BBX 6 18 0 -3
BITMAP
08
08
08
08
08
08
08
08
FC
FC
0C
0C
0C
0C
0C
0C
0C
0C
ENDCHAR
STARTCHAR uni252B
ENCODING 9515
SWIDTH 555 0
DWIDTH 10 0
BBX 6 18 0 -3
BITMAP
0C
0C
0C
0C
0C
0C
0C
0C
FC
FC
0C
0C
0C
0C
0C
0C
0C
0C
ENDCHAR
STARTCHAR SF060000
ENCODING 9516
SWIDTH 555 0
DWIDTH 10 0
BBX 10 10 0 -3
BITMAP
FFC0
0800
0800
0800
0800
0800
0800
0800
0800
0800
ENDCHAR
STARTCHAR uni252D
ENCODING 9517
SWIDTH 555 0
DWIDTH 10 0
BBX 10 10 0 -3
BITMAP
FFC0
F800
0800
0800
0800
0800
0800
0800
0800
0800
ENDCHAR
STARTCHAR uni252E
ENCODING 9518
SWIDTH 555 0
DWIDTH 10 0
BBX 10 10 0 -3
BITMAP
FFC0
0FC0
0800
0800
0800
0800
0800
0800
0800
0800
ENDCHAR
STARTCHAR uni252F
ENCODING 9519
SWIDTH 555 0
DWIDTH 10 0
BBX 10 10 0 -3
BITMAP
FFC0
FFC0
0800
0800
0800
0800
0800
0800
0800
0800
ENDCHAR
STARTCHAR uni2530
ENCODING 9520
SWIDTH 555 0
DWIDTH 10 0
BBX 10 10 0 -3
BITMAP
FFC0
0C00
0C00
0C00
0C00
0C00
0C00
0C00
0C00
0C00
ENDCHAR
STARTCHAR uni2531
ENCODING 9521
SWIDTH 555 0
DWIDTH 10 0
BBX 10 10 0 -3
BITMAP
FFC0
FC00
0C00
0C00
0C00
0C00
0C00
0C00
0C00
0C00
ENDCHAR
STARTCHAR uni2532
ENCODING 9522
SWIDTH 555 0
DWIDTH 10 0
BBX 10 10 0 -3
BITMAP
FFC0
0FC0
0C00
0C00
0C00
0C00
0C00
0C00
0C00
0C00
ENDCHAR
STARTCHAR uni2533
ENCODING 9523
SWIDTH 555 0
DWIDTH 10 0
BBX 10 10 0 -3
BITMAP
FFC0
FFC0
0C00
0C00
0C00
0C00
0C00
0C00
0C00
0C00
ENDCHAR
STARTCHAR SF070000
ENCODING 9524
SWIDTH 555 0
DWIDTH 10 0
BBX 10 9 0 6
BITMAP
0800
0800
0800
0800
0800
0800
0800
0800
FFC0
ENDCHAR
STARTCHAR uni2535
ENCODING 9525
SWIDTH 555 0
DWIDTH 10 0
BBX 10 10 0 5
BITMAP
0800
0800
0800
0800
0800
0800
0800
0800
FFC0
F800
ENDCHAR
STARTCHAR uni2536
ENCODING 9526
SWIDTH 555 0
DWIDTH 10 0
BBX 10 10 0 5
BITMAP
0800
0800
0800
0800
0800
0800
0800
0800
FFC0
0FC0
ENDCHAR
STARTCHAR uni2537
ENCODING 9527
SWIDTH 555 0
DWIDTH 10 0
BBX 10 10 0 5
BITMAP
0800
0800
0800
0800
0800
0800
0800
0800
FFC0
FFC0
ENDCHAR
STARTCHAR uni2538
ENCODING 9528
SWIDTH 555 0
DWIDTH 10 0
BBX 10 9 0 6
BITMAP
0C00
0C00
0C00
0C00
0C00
0C00
0C00
0C00
FFC0
ENDCHAR
STARTCHAR uni2539
ENCODING 9529
SWIDTH 555 0
DWIDTH 10 0
BBX 10 10 0 5
BITMAP
0C00
0C00
0C00
0C00
0C00
0C00
0C00
0C00
FFC0
FC00
ENDCHAR
STARTCHAR uni253A
ENCODING 9530
SWIDTH 555 0
DWIDTH 10 0
BBX 10 10 0 5
BITMAP
0C00
0C00
0C00
0C00
0C00
0C00
0C00
0C00
FFC0
0FC0
ENDCHAR
STARTCHAR uni253B
ENCODING 9531
SWIDTH 555 0
DWIDTH 10 0
BBX 10 10 0 5
BITMAP
0C00
0C00
0C00
0C00
0C00
0C00
0C00
0C00
FFC0
FFC0
ENDCHAR
STARTCHAR SF050000
ENCODING 9532
SWIDTH 555 0
DWIDTH 10 0
BBX 10 18 0 -3
BITMAP
0800
0800
0800
0800
0800
0800
0800
0800
FFC0
0800
0800
0800
0800
0800
0800
0800
0800
0800
ENDCHAR
STARTCHAR uni253D
ENCODING 9533
SWIDTH 555 0
DWIDTH 10 0
BBX 10 18 0 -3
BITMAP
0800
0800
0800
0800
0800
0800
0800
0800
FFC0
F800
0800
0800
0800
0800
0800
0800
0800
0800
ENDCHAR
STARTCHAR uni253E
ENCODING 9534
SWIDTH 555 0
DWIDTH 10 0
BBX 10 18 0 -3
BITMAP
0800
0800
0800
0800
0800
0800
0800
0800
FFC0
0FC0
0800
0800
0800
0800
0800
0800
0800
0800
ENDCHAR
STARTCHAR uni253F
ENCODING 9535
SWIDTH 555 0
DWIDTH 10 0
BBX 10 18 0 -3
BITMAP
0800
0800
0800
0800
0800
0800
0800
0800
FFC0
FFC0
0800
0800
0800
0800
0800
0800
0800
0800
ENDCHAR
STARTCHAR uni2540
ENCODING 9536
SWIDTH 555 0
DWIDTH 10 0
BBX 10 18 0 -3
BITMAP
0C00
0C00
0C00
0C00
0C00
0C00
0C00
0C00
FFC0
0800
0800
0800
0800
0800
0800
0800
0800
0800
ENDCHAR
STARTCHAR uni2541
ENCODING 9537
SWIDTH 555 0
DWIDTH 10 0
BBX 10 18 0 -3
BITMAP
0800
0800
0800
0800
0800
0800
0800
0800
FFC0
0C00
0C00
0C00
0C00
0C00
0C00
0C00
0C00
0C00
ENDCHAR
STARTCHAR uni2542
ENCODING 9538
SWIDTH 555 0
DWIDTH 10 0
BBX 10 18 0 -3
BITMAP
0C00
0C00
0C00
0C00
0C00
0C00
0C00
0C00
FFC0
0C00
0C00
0C00
0C00
0C00
0C00
0C00
0C00
0C00
ENDCHAR
STARTCHAR uni2543
ENCODING 9539
SWIDTH 555 0
DWIDTH 10 0
BBX 10 18 0 -3
BITMAP
0C00
0C00
0C00
0C00
0C00
0C00
0C00
0C00
FFC0
F800
0800
0800
0800
0800
0800
0800
0800
0800
ENDCHAR
STARTCHAR uni2544
ENCODING 9540
SWIDTH 555 0
DWIDTH 10 0
BBX 10 18 0 -3
BITMAP
0C00
0C00
0C00
0C00
0C00
0C00
0C00
0C00
FFC0
0FC0
0800
0800
0800
0800
0800
0800
0800
0800
ENDCHAR
STARTCHAR uni2545
ENCODING 9541
SWIDTH 555 0
DWIDTH 10 0
BBX 10 18 0 -3
BITMAP
0800
0800
0800
0800
0800
0800
0800
0800
FFC0
FC00
0C00
0C00
0C00
0C00
0C00
0C00
0C00
0C00
ENDCHAR
STARTCHAR uni2546
ENCODING 9542
SWIDTH 555 0
DWIDTH 10 0
BBX 10 18 0 -3
BITMAP
0800
0800
0800
0800
0800
0800
0800
0800
FFC0
0FC0
0C00
0C00
0C00
0C00
0C00
0C00
0C00
0C00
ENDCHAR
STARTCHAR uni2547
ENCODING 9543
SWIDTH 555 0
DWIDTH 10 0
BBX 10 18 0 -3
BITMAP
0C00
0C00
0C00
0C00
0C00
0C00
0C00
0C00
FFC0
FFC0
0800
0800
0800
0800
0800
0800
0800
0800
ENDCHAR
STARTCHAR uni2548
ENCODING 9544
SWIDTH 555 0
DWIDTH 10 0
BBX 10 18 0 -3
BITMAP
0800
0800
0800
0800
0800
0800
0800
0800
FFC0
FFC0
0C00
0C00
0C00
0C00
0C00
0C00
0C00
0C00
ENDCHAR
STARTCHAR uni2549
ENCODING 9545
SWIDTH 555 0
DWIDTH 10 0
BBX 10 18 0 -3
BITMAP
0C00
0C00
0C00
0C00
0C00
0C00
0C00
0C00
FFC0
FC00
0C00
0C00
0C00
0C00
0C00
0C00
0C00
0C00
ENDCHAR
STARTCHAR uni254A
ENCODING 9546
SWIDTH 555 0
DWIDTH 10 0
BBX 10 18 0 -3
BITMAP
0C00
0C00
0C00
0C00
0C00
0C00
0C00
0C00
FFC0
0FC0
0C00
0C00
0C00
0C00
0C00
0C00
0C00
0C00
ENDCHAR
STARTCHAR uni254B
ENCODING 9547
SWIDTH 555 0
DWIDTH 10 0
BBX 10 18 0 -3
BITMAP
0C00
0C00
0C00
0C00
0C00
0C00
0C00
0C00
FFC0
FFC0
0C00
0C00
0C00
0C00
0C00
0C00
0C00
0C00
ENDCHAR
STARTCHAR SF430000
ENCODING 9552
SWIDTH 555 0
DWIDTH 10 0
BBX 10 3 0 5
BITMAP
FFC0
0000
FFC0
ENDCHAR
STARTCHAR SF240000
ENCODING 9553
SWIDTH 555 0
DWIDTH 10 0
BBX 3 18 3 -3
BITMAP
A0
A0
A0
A0
A0
A0
A0
A0
A0
A0
A0
A0
A0
A0
A0
A0
A0
A0
ENDCHAR
STARTCHAR SF510000
ENCODING 9554
SWIDTH 555 0
DWIDTH 10 0
BBX 6 11 4 -3
BITMAP
FC
80
FC
80
80
80
80
80
80
80
80
ENDCHAR
STARTCHAR SF520000
ENCODING 9555
SWIDTH 555 0
DWIDTH 10 0
BBX 7 10 3 -3
BITMAP
FE
A0
A0
A0
A0
A0
A0
A0
A0
A0
ENDCHAR
STARTCHAR SF390000
ENCODING 9556
SWIDTH 555 0
DWIDTH 10 0
BBX 7 11 3 -3
BITMAP
FE
80
BE
A0
A0
A0
A0
A0
A0
A0
A0
ENDCHAR
STARTCHAR SF220000
ENCODING 9557
SWIDTH 555 0
DWIDTH 10 0
BBX 5 11 0 -3
BITMAP
F8
08
F8
08
08
08
08
08
08
08
08
ENDCHAR
STARTCHAR SF210000
ENCODING 9558
SWIDTH 555 0
DWIDTH 10 0
BBX 6 10 0 -3
BITMAP
FC
14
14
14
14
14
14
14
14
14
ENDCHAR
STARTCHAR SF250000
ENCODING 9559
SWIDTH 555 0
DWIDTH 10 0
BBX 6 11 0 -3
BITMAP
FC
04
F4
14
14
14
14
14
14
14
14
ENDCHAR
STARTCHAR SF500000
ENCODING 9560
SWIDTH 555 0
DWIDTH 10 0
BBX 6 10 4 5
BITMAP
80
80
80
80
80
80
80
FC
80
FC
ENDCHAR
STARTCHAR SF490000
ENCODING 9561
SWIDTH 555 0
DWIDTH 10 0
BBX 7 9 3 6
BITMAP
A0
A0
A0
A0
A0
A0
A0
A0
FE
ENDCHAR
STARTCHAR SF380000
ENCODING 9562
SWIDTH 555 0
DWIDTH 10 0
BBX 7 10 3 5
BITMAP
A0
A0
A0
A0
A0
A0
A0
BE
80
FE
ENDCHAR
STARTCHAR SF280000
ENCODING 9563
SWIDTH 555 0
DWIDTH 10 0
BBX 5 10 0 5
BITMAP
08
08
08
08
08
08
08
F8
08
F8
ENDCHAR
STARTCHAR SF270000
ENCODING 9564
SWIDTH 555 0
DWIDTH 10 0
BBX 6 9 0 6
BITMAP
14
14
14
14
14
14
14
14
FC
ENDCHAR
STARTCHAR SF260000
ENCODING 9565
SWIDTH 555 0
DWIDTH 10 0
BBX 6 10 0 5
BITMAP
14
14
14
14
14
14
14
F4
04
FC
ENDCHAR
STARTCHAR SF360000
ENCODING 9566
SWIDTH 555 0
DWIDTH 10 0
BBX 6 18 4 -3
BITMAP
80
80
80
80
80
80
80
FC
80
FC
80
80
80
80
80
80
80
80
ENDCHAR
STARTCHAR SF370000
ENCODING 9567
SWIDTH 555 0
DWIDTH 10 0
BBX 7 18 3 -3
BITMAP
A0
A0
A0
A0
A0
A0
A0
A0
BE
A0
A0
A0
A0
A0
A0
A0
A0
A0
ENDCHAR
STARTCHAR SF420000
ENCODING 9568
SWIDTH 555 0
DWIDTH 10 0
BBX 7 18 3 -3
BITMAP
A0
A0
A0
A0
A0
A0
A0
BE
80
BE
A0
A0
A0
A0
A0
A0
A0
A0
ENDCHAR
STARTCHAR SF190000
ENCODING 9569
SWIDTH 555 0
DWIDTH 10 0
BBX 5 18 0 -3
BITMAP
08
08
08
08
08
08
08
F8
08
F8
08
08
08
08
08
08
08
08
ENDCHAR
STARTCHAR SF200000
ENCODING 9570
SWIDTH 555 0
DWIDTH 10 0
BBX 6 18 0 -3
BITMAP
14
14
14
14
14
14
14
14
F4
14
14
14
14
14
14
14
14
14
ENDCHAR
STARTCHAR SF230000
ENCODING 9571
SWIDTH 555 0
DWIDTH 10 0
BBX 6 18 0 -3
BITMAP
14
14
14
14
14
14
14
F4
04
F4
14
14
14
14
14
14
14
14
ENDCHAR
STARTCHAR SF470000
ENCODING 9572
SWIDTH 555 0
DWIDTH 10 0
BBX 10 11 0 -3
BITMAP
FFC0
0000
FFC0
0800
0800
0800
0800
0800
0800
0800
0800
ENDCHAR
STARTCHAR SF480000
ENCODING 9573
SWIDTH 555 0
DWIDTH 10 0
BBX 10 10 0 -3
BITMAP
FFC0
1400
1400
1400
1400
1400
1400
1400
1400
1400
ENDCHAR
STARTCHAR SF410000
ENCODING 9574
SWIDTH 555 0
DWIDTH 10 0
BBX 10 11 0 -3
BITMAP
FFC0
0000
F7C0
1400
1400
1400
1400
1400
1400
1400
1400
ENDCHAR
STARTCHAR SF450000
ENCODING 9575
SWIDTH 555 0
DWIDTH 10 0
BBX 10 10 0 5
BITMAP
0800
0800
0800
0800
0800
0800
0800
FFC0
0000
FFC0
ENDCHAR
STARTCHAR SF460000
ENCODING 9576
SWIDTH 555 0
DWIDTH 10 0
BBX 10 9 0 6
BITMAP
1400
1400
1400
1400
1400
1400
1400
1400
FFC0
ENDCHAR
STARTCHAR SF400000
ENCODING 9577
SWIDTH 555 0
DWIDTH 10 0
BBX 10 10 0 5
BITMAP
1400
1400
1400
1400
1400
1400
1400
F7C0
0000
FFC0
ENDCHAR
STARTCHAR SF540000
ENCODING 9578
SWIDTH 555 0
DWIDTH 10 0
BBX 10 18 0 -3
BITMAP
0800
0800
0800
0800
0800
0800
0800
FFC0
0800
FFC0
0800
0800
0800
0800
0800
0800
0800
0800
ENDCHAR
STARTCHAR SF530000
ENCODING 9579
SWIDTH 555 0
DWIDTH 10 0
BBX 10 18 0 -3
BITMAP
1400
1400
1400
1400
1400
1400
1400
1400
FFC0
1400
1400
1400
1400
1400
1400
1400
1400
1400
ENDCHAR
STARTCHAR SF440000
ENCODING 9580
SWIDTH 555 0
DWIDTH 10 0
BBX 10 18 0 -3
BITMAP
1400
1400
1400
1400
1400
1400
1400
F7C0
0000
F7C0
1400
1400
1400
1400
1400
1400
1400
1400
ENDCHAR
STARTCHAR uni256D
ENCODING 9581
SWIDTH 555 0
DWIDTH 10 0
BBX 6 10 4 -3
BITMAP
1C
20
40
80
80
80
80
80
80
80
ENDCHAR
STARTCHAR uni256E
ENCODING 9582
SWIDTH 555 0
DWIDTH 10 0
BBX 5 10 0 -3
BITMAP
C0
20
10
08
08
08
08
08
08
08
ENDCHAR
STARTCHAR uni256F
ENCODING 9583
SWIDTH 555 0
DWIDTH 10 0
BBX 5 9 0 6
BITMAP
08
08
08
08
08
08
10
20
C0
ENDCHAR
STARTCHAR uni2570
ENCODING 9584
SWIDTH 555 0
DWIDTH 10 0
BBX 6 9 4 6
BITMAP
80
80
80
80
80
80
40
20
1C
ENDCHAR
STARTCHAR uni2571
ENCODING 9585
SWIDTH 555 0
DWIDTH 10 0
BBX 10 18 0 -3
BITMAP
0040
0080
0080
0100
0100
0200
0200
0400
0400
0800
0800
1000
1000
2000
2000
4000
4000
8000
ENDCHAR
STARTCHAR uni2572
ENCODING 9586
SWIDTH 555 0
DWIDTH 10 0
BBX 10 18 0 -3
BITMAP
8000
4000
4000
2000
2000
1000
1000
0800
0800
0400
0400
0200
0200
0100
0100
0080
0080
0040
ENDCHAR
STARTCHAR uni2573
ENCODING 9587
SWIDTH 555 0
DWIDTH 10 0
BBX 10 18 0 -3
BITMAP
8040
4080
4080
2100
2100
1200
1200
0C00
0C00
0C00
0C00
1200
1200
2100
2100
4080
4080
8040
ENDCHAR
STARTCHAR uni2574
ENCODING 9588
SWIDTH 555 0
DWIDTH 10 0
BBX 5 1 0 6
BITMAP
F8
ENDCHAR
STARTCHAR uni2575
ENCODING 9589
SWIDTH 555 0
DWIDTH 10 0
BBX 1 9 4 6
BITMAP
80
80
80
80
80
80
80
80
80
ENDCHAR
STARTCHAR uni2576
ENCODING 9590
SWIDTH 555 0
DWIDTH 10 0
BBX 6 1 4 6
BITMAP
FC
ENDCHAR
STARTCHAR uni2577
ENCODING 9591
SWIDTH 555 0
DWIDTH 10 0
BBX 1 10 4 -3
BITMAP
80
80
80
80
80
80
80
80
80
80
ENDCHAR
STARTCHAR uni2578
ENCODING 9592
SWIDTH 555 0
DWIDTH 10 0
BBX 5 2 0 5
BITMAP
F8
F8
ENDCHAR
STARTCHAR uni2579
ENCODING 9593
SWIDTH 555 0
DWIDTH 10 0
BBX 2 9 4 6
BITMAP
C0
C0
C0
C0
C0
C0
C0
C0
C0
ENDCHAR
STARTCHAR uni257A
ENCODING 9594
SWIDTH 555 0
DWIDTH 10 0
BBX 6 2 4 5
BITMAP
FC
FC
ENDCHAR
STARTCHAR uni257B
ENCODING 9595
SWIDTH 555 0
DWIDTH 10 0
BBX 2 10 4 -3
BITMAP
C0
C0
C0
C0
C0
C0
C0
C0
C0
C0
ENDCHAR
STARTCHAR uni257C
ENCODING 9596
SWIDTH 555 0
DWIDTH 10 0
BBX 10 2 0 5
BITMAP
FFC0
0FC0
ENDCHAR
STARTCHAR uni257D
ENCODING 9597
SWIDTH 555 0
DWIDTH 10 0
BBX 2 18 4 -3
BITMAP
80
80
80
80
80
80
80
80
C0
C0
C0
C0
C0
C0
C0
C0
C0
C0
ENDCHAR
STARTCHAR uni257E
ENCODING 9598
SWIDTH 555 0
DWIDTH 10 0
BBX 10 2 0 5
BITMAP
FFC0
F800
ENDCHAR
STARTCHAR uni257F
ENCODING 9599
SWIDTH 555 0
DWIDTH 10 0
BBX 2 18 4 -3
BITMAP
C0
C0
C0
C0
C0
C0
C0
C0
C0
80
80
80
80
80
80
80
80
80
ENDCHAR
STARTCHAR upblock
ENCODING 9600
SWIDTH 555 0
DWIDTH 10 0
BBX 10 9 0 6
BITMAP
FFC0
FFC0
FFC0
FFC0
FFC0
FFC0
FFC0
FFC0
FFC0
ENDCHAR
STARTCHAR uni2581
ENCODING 9601
SWIDTH 555 0
DWIDTH 10 0
BBX 10 2 0 -3
BITMAP
FFC0
FFC0
ENDCHAR
STARTCHAR uni2582
ENCODING 9602
SWIDTH 555 0
DWIDTH 10 0
BBX 10 4 0 -3
BITMAP
FFC0
FFC0
FFC0
FFC0
ENDCHAR
STARTCHAR uni2583
ENCODING 9603
SWIDTH 555 0
DWIDTH 10 0
BBX 10 7 0 -3
BITMAP
FFC0
FFC0
FFC0
FFC0
FFC0
FFC0
FFC0
ENDCHAR
STARTCHAR dnblock
ENCODING 9604
SWIDTH 555 0
DWIDTH 10 0
BBX 10 9 0 -3
BITMAP
FFC0
FFC0
FFC0
FFC0
FFC0
FFC0
FFC0
FFC0
FFC0
ENDCHAR
STARTCHAR uni2585
ENCODING 9605
SWIDTH 555 0
DWIDTH 10 0
BBX 10 11 0 -3
BITMAP
FFC0
FFC0
FFC0
FFC0
FFC0
FFC0
FFC0
FFC0
FFC0
FFC0
FFC0
ENDCHAR
STARTCHAR uni2586
ENCODING 9606
SWIDTH 555 0
DWIDTH 10 0
BBX 10 13 0 -3
BITMAP
FFC0
FFC0
FFC0
FFC0
FFC0
FFC0
FFC0
FFC0
FFC0
FFC0
FFC0
FFC0
FFC0
ENDCHAR
STARTCHAR uni2587
ENCODING 9607
SWIDTH 555 0
DWIDTH 10 0
BBX 10 16 0 -3
BITMAP
FFC0
FFC0
FFC0
FFC0
FFC0
FFC0
FFC0
FFC0
FFC0
FFC0
FFC0
FFC0
FFC0
FFC0
FFC0
FFC0
ENDCHAR
STARTCHAR block
ENCODING 9608
SWIDTH 555 0
DWIDTH 10 0
BBX 10 18 0 -3
BITMAP
FFC0
FFC0
FFC0
FFC0
FFC0
FFC0
FFC0
FFC0
FFC0
FFC0
FFC0
FFC0
FFC0
FFC0
FFC0
FFC0
FFC0
FFC0
ENDCHAR
STARTCHAR uni2589
ENCODING 9609
SWIDTH 555 0
DWIDTH 10 0
BBX 9 18 0 -3
BITMAP
FF80
FF80
FF80
FF80
FF80
FF80
FF80
FF80
FF80
FF80
FF80
FF80
FF80
FF80
FF80
FF80
FF80
FF80
ENDCHAR
STARTCHAR uni258A
ENCODING 9610
SWIDTH 555 0
DWIDTH 10 0
BBX 7 18 0 -3
BITMAP
FE
FE
FE
FE
FE
FE
FE
FE
FE
FE
FE
FE
FE
FE
FE
FE
FE
FE
ENDCHAR
STARTCHAR uni258B
ENCODING 9611
SWIDTH 555 0
DWIDTH 10 0
BBX 6 18 0 -3
BITMAP
FC
FC
FC
FC
FC
FC
FC
FC
FC
FC
FC
FC
FC
FC
FC
FC
FC
FC
ENDCHAR
STARTCHAR lfblock
ENCODING 9612
SWIDTH 555 0
DWIDTH 10 0
BBX 5 18 0 -3
BITMAP
F8
F8
F8
F8
F8
F8
F8
F8
F8
F8
F8
F8
F8
F8
F8
F8
F8
F8
ENDCHAR
STARTCHAR uni258D
ENCODING 9613
SWIDTH 555 0
DWIDTH 10 0
BBX 4 18 0 -3
BITMAP
F0
F0
F0
F0
F0
F0
F0
F0
F0
F0
F0
F0
F0
F0
F0
F0
F0
F0
ENDCHAR
STARTCHAR uni258E
ENCODING 9614
SWIDTH 555 0
DWIDTH 10 0
BBX 2 18 0 -3
BITMAP
C0
C0
C0
C0
C0
C0
C0
C0
C0
C0
C0
C0
C0
C0
C0
C0
C0
C0
ENDCHAR
STARTCHAR uni258F
ENCODING 9615
SWIDTH 555 0
DWIDTH 10 0
BBX 1 18 0 -3
BITMAP
80
80
80
80
80
80
80
80
80
80
80
80
80
80
80
80
80
80
ENDCHAR
STARTCHAR rtblock
ENCODING 9616
SWIDTH 555 0
DWIDTH 10 0
BBX 5 18 5 -3
BITMAP
F8
F8
F8
F8
F8
F8
F8
F8
F8
F8
F8
F8
F8
F8
F8
F8
F8
F8
ENDCHAR
STARTCHAR ltshade
ENCODING 9617
SWIDTH 555 0
DWIDTH 10 0
BBX 9 17 0 -2
BITMAP
AA80
0000
AA80
0000
AA80
0000
AA80
0000
AA80
0000
AA80
0000
AA80
0000
AA80
0000
AA80
ENDCHAR
STARTCHAR shade
ENCODING 9618
SWIDTH 555 0
DWIDTH 10 0
BBX 10 18 0 -3
BITMAP
AA80
5540
AA80
5540
AA80
5540
AA80
5540
AA80
5540
AA80
5540
AA80
5540
AA80
5540
AA80
5540
ENDCHAR
STARTCHAR dkshade
ENCODING 9619
SWIDTH 555 0
DWIDTH 10 0
BBX 10 18 0 -3
BITMAP
FFC0
AA80
FFC0
AA80
FFC0
AA80
FFC0
AA80
FFC0
AA80
FFC0
AA80
FFC0
AA80
FFC0
AA80
FFC0
AA80
ENDCHAR
STARTCHAR uni2596
ENCODING 9622
SWIDTH 555 0
DWIDTH 10 0
BBX 5 9 0 -3
BITMAP
F8
F8
F8
F8
F8
F8
F8
F8
F8
ENDCHAR
STARTCHAR uni2597
ENCODING 9623
SWIDTH 555 0
DWIDTH 10 0
BBX 5 9 5 -3
BITMAP
F8
F8
F8
F8
F8
F8
F8
F8
F8
ENDCHAR
STARTCHAR uni2598
ENCODING 9624
SWIDTH 555 0
DWIDTH 10 0
BBX 5 9 0 6
BITMAP
F8
F8
F8
F8
F8
F8
F8
F8
F8
ENDCHAR
STARTCHAR uni2599
ENCODING 9625
SWIDTH 555 0
DWIDTH 10 0
BBX 10 18 0 -3
BITMAP
F800
F800
F800
F800
F800
F800
F800
F800
F800
FFC0
FFC0
FFC0
FFC0
FFC0
FFC0
FFC0
FFC0
FFC0
ENDCHAR
STARTCHAR uni259A
ENCODING 9626
SWIDTH 555 0
DWIDTH 10 0
BBX 10 18 0 -3
BITMAP
F800
F800
F800
F800
F800
F800
F800
F800
F800
07C0
07C0
07C0
07C0
07C0
07C0
07C0
07C0
07C0
ENDCHAR
STARTCHAR uni259B
ENCODING 9627
SWIDTH 555 0
DWIDTH 10 0
BBX 10 18 0 -3
BITMAP
FFC0
FFC0
FFC0
FFC0
FFC0
FFC0
FFC0
FFC0
FFC0
F800
F800
F800
F800
F800
F800
F800
F800
F800
ENDCHAR
STARTCHAR uni259C
ENCODING 9628
SWIDTH 555 0
DWIDTH 10 0
BBX 10 18 0 -3
BITMAP
FFC0
FFC0
FFC0
FFC0
FFC0
FFC0
FFC0
FFC0
FFC0
07C0
07C0
07C0
07C0
07C0
07C0
07C0
07C0
07C0
ENDCHAR
STARTCHAR uni259D
ENCODING 9629
SWIDTH 555 0
DWIDTH 10 0
BBX 5 9 5 6
BITMAP
F8
F8
F8
F8
F8
F8
F8
F8
F8
ENDCHAR
STARTCHAR uni259E
ENCODING 9630
SWIDTH 555 0
DWIDTH 10 0
BBX 10 18 0 -3
BITMAP
07C0
07C0
07C0
07C0
07C0
07C0
07C0
07C0
07C0
F800
F800
F800
F800
F800
F800
F800
F800
F800
ENDCHAR
STARTCHAR uni259F
ENCODING 9631
SWIDTH 555 0
DWIDTH 10 0
BBX 10 18 0 -3
BITMAP
07C0
07C0
07C0
07C0
07C0
07C0
07C0
07C0
07C0
FFC0
FFC0
FFC0
FFC0
FFC0
FFC0
FFC0
FFC0
FFC0
ENDCHAR
STARTCHAR filledbox
ENCODING 9632
SWIDTH 555 0
DWIDTH 10 0
BBX 5 7 2 3
BITMAP
F8
F8
F8
F8
F8
F8
F8
ENDCHAR
STARTCHAR filledrect
ENCODING 9644
SWIDTH 555 0
DWIDTH 10 0
BBX 8 5 1 0
BITMAP
FF
FF
FF
FF
FF
ENDCHAR
STARTCHAR uni25AE
ENCODING 9646
SWIDTH 555 0
DWIDTH 10 0
BBX 7 12 1 0
BITMAP
FE
FE
FE
FE
FE
FE
FE
FE
FE
FE
FE
FE
ENDCHAR
STARTCHAR triagup
ENCODING 9650
SWIDTH 555 0
DWIDTH 10 0
BBX 9 10 0 1
BITMAP
0800
0800
1C00
1C00
3E00
3E00
7F00
7F00
FF80
FF80
ENDCHAR
STARTCHAR uni25B6
ENCODING 9654
SWIDTH 555 0
DWIDTH 10 0
BBX 10 9 0 2
BITMAP
C000
F000
FC00
FF00
FFC0
FF00
FC00
F000
C000
ENDCHAR
STARTCHAR triagrt
ENCODING 9658
SWIDTH 555 0
DWIDTH 10 0
BBX 10 9 0 2
BITMAP
C000
F000
FC00
FF00
FFC0
FF00
FC00
F000
C000
ENDCHAR
STARTCHAR triagdn
ENCODING 9660
SWIDTH 555 0
DWIDTH 10 0
BBX 9 10 0 1
BITMAP
FF80
FF80
7F00
7F00
3E00
3E00
1C00
1C00
0800
0800
ENDCHAR
STARTCHAR uni25C0
ENCODING 9664
SWIDTH 555 0
DWIDTH 10 0
BBX 10 9 0 2
BITMAP
00C0
03C0
0FC0
3FC0
FFC0
3FC0
0FC0
03C0
00C0
ENDCHAR
STARTCHAR triaglf
ENCODING 9668
SWIDTH 555 0
DWIDTH 10 0
BBX 10 9 0 2
BITMAP
00C0
03C0
0FC0
3FC0
FFC0
3FC0
0FC0
03C0
00C0
ENDCHAR
STARTCHAR blackdiamond
ENCODING 9670
SWIDTH 555 0
DWIDTH 10 0
BBX 9 9 0 2
BITMAP
0800
1C00
3E00
7F00
FF80
7F00
3E00
1C00
0800
ENDCHAR
STARTCHAR lozenge
ENCODING 9674
SWIDTH 555 0
DWIDTH 10 0
BBX 9 9 0 1
BITMAP
0800
1400
2200
4100
8080
4100
2200
1400
0800
ENDCHAR
STARTCHAR circle
ENCODING 9675
SWIDTH 555 0
DWIDTH 10 0
BBX 6 6 2 3
BITMAP
78
84
84
84
84
78
ENDCHAR
STARTCHAR H18533
ENCODING 9679
SWIDTH 555 0
DWIDTH 10 0
BBX 6 6 2 3
BITMAP
78
FC
FC
FC
FC
78
ENDCHAR
STARTCHAR invbullet
ENCODING 9688
SWIDTH 555 0
DWIDTH 10 0
BBX 10 18 0 -3
BITMAP
FFC0
FFC0
FFC0
FFC0
FFC0
FFC0
FFC0
F3C0
E1C0
E1C0
F3C0
FFC0
FFC0
FFC0
FFC0
FFC0
FFC0
FFC0
ENDCHAR
STARTCHAR invcircle
ENCODING 9689
SWIDTH 555 0
DWIDTH 10 0
BBX 10 18 0 -3
BITMAP
FFC0
FFC0
FFC0
FFC0
FFC0
FFC0
E1C0
DEC0
DEC0
DEC0
DEC0
E1C0
FFC0
FFC0
FFC0
FFC0
FFC0
FFC0
ENDCHAR
STARTCHAR smileface
ENCODING 9786
SWIDTH 555 0
DWIDTH 10 0
BBX 9 12 0 0
BITMAP
7F00
8080
8080
B680
B680
8080
8080
BE80
9C80
8080
8080
7F00
ENDCHAR
STARTCHAR invsmileface
ENCODING 9787
SWIDTH 555 0
DWIDTH 10 0
BBX 9 12 0 0
BITMAP
7F00
FF80
FF80
C980
C980
FF80
FF80
C180
E380
FF80
FF80
7F00
ENDCHAR
STARTCHAR sun
ENCODING 9788
SWIDTH 555 0
DWIDTH 10 0
BBX 9 11 0 1
BITMAP
0800
8880
4900
2A00
1C00
F780
1C00
2A00
4900
8880
0800
ENDCHAR
STARTCHAR female
ENCODING 9792
SWIDTH 555 0
DWIDTH 10 0
BBX 7 12 1 0
BITMAP
7C
82
82
82
82
82
7C
10
10
FE
10
10
ENDCHAR
STARTCHAR male
ENCODING 9794
SWIDTH 555 0
DWIDTH 10 0
BBX 7 12 1 0
BITMAP
1E
06
0A
12
78
84
84
84
84
84
84
78
ENDCHAR
STARTCHAR spade
ENCODING 9824
SWIDTH 555 0
DWIDTH 10 0
BBX 9 12 0 0
BITMAP
0800
0800
1C00
3E00
7F00
FF80
FF80
FF80
6B00
0800
0800
3E00
ENDCHAR
STARTCHAR club
ENCODING 9827
SWIDTH 555 0
DWIDTH 10 0
BBX 9 12 0 0
BITMAP
1C00
3E00
3E00
1C00
0800
6B00
FF80
FF80
FF80
6B00
0800
3E00
ENDCHAR
STARTCHAR heart
ENCODING 9829
SWIDTH 555 0
DWIDTH 10 0
BBX 9 10 0 1
BITMAP
6300
F780
FF80
FF80
FF80
FF80
7F00
3E00
1C00
0800
ENDCHAR
STARTCHAR diamond
ENCODING 9830
SWIDTH 555 0
DWIDTH 10 0
BBX 9 9 0 2
BITMAP
0800
1C00
3E00
7F00
FF80
7F00
3E00
1C00
0800
ENDCHAR
STARTCHAR musicalnote
ENCODING 9834
SWIDTH 555 0
DWIDTH 10 0
BBX 9 12 0 0
BITMAP
1F80
1080
1080
1F80
1000
1000
1000
1000
1000
1000
1000
E000
ENDCHAR
STARTCHAR musicalnotedbl
ENCODING 9835
SWIDTH 555 0
DWIDTH 10 0
BBX 8 12 0 0
BITMAP
7F
41
41
7F
41
41
41
41
41
41
42
80
ENDCHAR
STARTCHAR uni2713
ENCODING 10003
SWIDTH 555 0
DWIDTH 10 0
BBX 9 12 0 0
BITMAP
0080
0080
0100
0100
8200
8200
4400
4400
2800
2800
1000
1000
ENDCHAR
STARTCHAR uni2714
ENCODING 10004
SWIDTH 555 0
DWIDTH 10 0
BBX 10 12 0 0
BITMAP
00C0
00C0
0180
0180
C300
C300
6600
6600
3C00
3C00
1800
1800
ENDCHAR
STARTCHAR uni2717
ENCODING 10007
SWIDTH 555 0
DWIDTH 10 0
BBX 7 12 1 0
BITMAP
04
84
48
28
10
18
24
22
40
40
80
80
ENDCHAR
STARTCHAR uni2718
ENCODING 10008
SWIDTH 555 0
DWIDTH 10 0
BBX 8 12 1 0
BITMAP
06
C6
6C
3C
18
1C
36
33
60
60
C0
C0
ENDCHAR
STARTCHAR uni27E8
ENCODING 10216
SWIDTH 555 0
DWIDTH 10 0
BBX 4 13 3 0
BITMAP
10
10
20
20
40
40
80
40
40
20
20
10
10
ENDCHAR
STARTCHAR uni27E9
ENCODING 10217
SWIDTH 555 0
DWIDTH 10 0
BBX 4 13 3 0
BITMAP
80
80
40
40
20
20
10
20
20
40
40
80
80
ENDCHAR
STARTCHAR uni27EA
ENCODING 10218
SWIDTH 555 0
DWIDTH 10 0
BBX 8 13 1 0
BITMAP
11
11
22
22
44
44
88
44
44
22
22
11
11
ENDCHAR
STARTCHAR uni27EB
ENCODING 10219
SWIDTH 555 0
DWIDTH 10 0
BBX 8 13 1 0
BITMAP
88
88
44
44
22
22
11
22
22
44
44
88
88
ENDCHAR
STARTCHAR uni2800
ENCODING 10240
SWIDTH 555 0
DWIDTH 10 0
BBX 1 1 9 -3
BITMAP
00
ENDCHAR
STARTCHAR uni2801
ENCODING 10241
SWIDTH 555 0
DWIDTH 10 0
BBX 1 2 2 12
BITMAP
80
80
ENDCHAR
STARTCHAR uni2802
ENCODING 10242
SWIDTH 555 0
DWIDTH 10 0
BBX 1 2 2 8
BITMAP
80
80
ENDCHAR
STARTCHAR uni2803
ENCODING 10243
SWIDTH 555 0
DWIDTH 10 0
BBX 1 6 2 8
BITMAP
80
80
00
00
80
80
ENDCHAR
STARTCHAR uni2804
ENCODING 10244
SWIDTH 555 0
DWIDTH 10 0
BBX 1 2 2 3
BITMAP
80
80
ENDCHAR
STARTCHAR uni2805
ENCODING 10245
SWIDTH 555 0
DWIDTH 10 0
BBX 1 11 2 3
BITMAP
80
80
00
00
00
00
00
00
00
80
80
ENDCHAR
STARTCHAR uni2806
ENCODING 10246
SWIDTH 555 0
DWIDTH 10 0
BBX 1 7 2 3
BITMAP
80
80
00
00
00
80
80
ENDCHAR
STARTCHAR uni2807
ENCODING 10247
SWIDTH 555 0
DWIDTH 10 0
BBX 1 11 2 3
BITMAP
80
80
00
00
80
80
00
00
00
80
80
ENDCHAR
STARTCHAR uni2808
ENCODING 10248
SWIDTH 555 0
DWIDTH 10 0
BBX 1 2 7 12
BITMAP
80
80
ENDCHAR
STARTCHAR uni2809
ENCODING 10249
SWIDTH 555 0
DWIDTH 10 0
BBX 6 2 2 12
BITMAP
84
84
ENDCHAR
STARTCHAR uni280A
ENCODING 10250
SWIDTH 555 0
DWIDTH 10 0
BBX 6 6 2 8
BITMAP
04
04
00
00
80
80
ENDCHAR
STARTCHAR uni280B
ENCODING 10251
SWIDTH 555 0
DWIDTH 10 0
BBX 6 6 2 8
BITMAP
84
84
00
00
80
80
ENDCHAR
STARTCHAR uni280C
ENCODING 10252
SWIDTH 555 0
DWIDTH 10 0
BBX 6 11 2 3
BITMAP
04
04
00
00
00
00
00
00
00
80
80
ENDCHAR
STARTCHAR uni280D
ENCODING 10253
SWIDTH 555 0
DWIDTH 10 0
BBX 6 11 2 3
BITMAP
84
84
00
00
00
00
00
00
00
80
80
ENDCHAR
STARTCHAR uni280E
ENCODING 10254
SWIDTH 555 0
DWIDTH 10 0
BBX 6 11 2 3
BITMAP
04
04
00
00
80
80
00
00
00
80
80
ENDCHAR
STARTCHAR uni280F
ENCODING 10255
SWIDTH 555 0
DWIDTH 10 0
BBX 6 11 2 3
BITMAP
84
84
00
00
80
80
00
00
00
80
80
ENDCHAR
STARTCHAR uni2810
ENCODING 10256
SWIDTH 555 0
DWIDTH 10 0
BBX 1 2 7 8
BITMAP
80
80
ENDCHAR
STARTCHAR uni2811
ENCODING 10257
SWIDTH 555 0
DWIDTH 10 0
BBX 6 6 2 8
BITMAP
80
80
00
00
04
04
ENDCHAR
STARTCHAR uni2812
ENCODING 10258
SWIDTH 555 0
DWIDTH 10 0
BBX 6 2 2 8
BITMAP
84
84
ENDCHAR
STARTCHAR uni2813
ENCODING 10259
SWIDTH 555 0
DWIDTH 10 0
BBX 6 6 2 8
BITMAP
80
80
00
00
84
84
ENDCHAR
STARTCHAR uni2814
ENCODING 10260
SWIDTH 555 0
DWIDTH 10 0
BBX 6 7 2 3
BITMAP
04
04
00
00
00
80
80
ENDCHAR
STARTCHAR uni2815
ENCODING 10261
SWIDTH 555 0
DWIDTH 10 0
BBX 6 11 2 3
BITMAP
80
80
00
00
04
04
00
00
00
80
80
ENDCHAR
STARTCHAR uni2816
ENCODING 10262
SWIDTH 555 0
DWIDTH 10 0
BBX 6 7 2 3
BITMAP
84
84
00
00
00
80
80
ENDCHAR
STARTCHAR uni2817
ENCODING 10263
SWIDTH 555 0
DWIDTH 10 0
BBX 6 11 2 3
BITMAP
80
80
00
00
84
84
00
00
00
80
80
ENDCHAR
STARTCHAR uni2818
ENCODING 10264
SWIDTH 555 0
DWIDTH 10 0
BBX 1 6 7 8
BITMAP
80
80
00
00
80
80
ENDCHAR
STARTCHAR uni2819
ENCODING 10265
SWIDTH 555 0
DWIDTH 10 0
BBX 6 6 2 8
BITMAP
84
84
00
00
04
04
ENDCHAR
STARTCHAR uni281A
ENCODING 10266
SWIDTH 555 0
DWIDTH 10 0
BBX 6 6 2 8
BITMAP
04
04
00
00
84
84
ENDCHAR
STARTCHAR uni281B
ENCODING 10267
SWIDTH 555 0
DWIDTH 10 0
BBX 6 6 2 8
BITMAP
84
84
00
00
84
84
ENDCHAR
STARTCHAR uni281C
ENCODING 10268
SWIDTH 555 0
DWIDTH 10 0
BBX 6 11 2 3
BITMAP
04
04
00
00
04
04
00
00
00
80
80
ENDCHAR
STARTCHAR uni281D
ENCODING 10269
SWIDTH 555 0
DWIDTH 10 0
BBX 6 11 2 3
BITMAP
84
84
00
00
04
04
00
00
00
80
80
ENDCHAR
STARTCHAR uni281E
ENCODING 10270
SWIDTH 555 0
DWIDTH 10 0
BBX 6 11 2 3
BITMAP
04
04
00
00
84
84
00
00
00
80
80
ENDCHAR
STARTCHAR uni281F
ENCODING 10271
SWIDTH 555 0
DWIDTH 10 0
BBX 6 11 2 3
BITMAP
84
84
00
00
84
84
00
00
00
80
80
ENDCHAR
STARTCHAR uni2820
ENCODING 10272
SWIDTH 555 0
DWIDTH 10 0
BBX 1 2 7 3
BITMAP
80
80
ENDCHAR
STARTCHAR uni2821
ENCODING 10273
SWIDTH 555 0
DWIDTH 10 0
BBX 6 11 2 3
BITMAP
80
80
00
00
00
00
00
00
00
04
04
ENDCHAR
STARTCHAR uni2822
ENCODING 10274
SWIDTH 555 0
DWIDTH 10 0
BBX 6 7 2 3
BITMAP
80
80
00
00
00
04
04
ENDCHAR
STARTCHAR uni2823
ENCODING 10275
SWIDTH 555 0
DWIDTH 10 0
BBX 6 11 2 3
BITMAP
80
80
00
00
80
80
00
00
00
04
04
ENDCHAR
STARTCHAR uni2824
ENCODING 10276
SWIDTH 555 0
DWIDTH 10 0
BBX 6 2 2 3
BITMAP
84
84
ENDCHAR
STARTCHAR uni2825
ENCODING 10277
SWIDTH 555 0
DWIDTH 10 0
BBX 6 11 2 3
BITMAP
80
80
00
00
00
00
00
00
00
84
84
ENDCHAR
STARTCHAR uni2826
ENCODING 10278
SWIDTH 555 0
DWIDTH 10 0
BBX 6 7 2 3
BITMAP
80
80
00
00
00
84
84
ENDCHAR
STARTCHAR uni2827
ENCODING 10279
SWIDTH 555 0
DWIDTH 10 0
BBX 6 11 2 3
BITMAP
80
80
00
00
80
80
00
00
00
84
84
ENDCHAR
STARTCHAR uni2828
ENCODING 10280
SWIDTH 555 0
DWIDTH 10 0
BBX 1 11 7 3
BITMAP
80
80
00
00
00
00
00
00
00
80
80
ENDCHAR
STARTCHAR uni2829
ENCODING 10281
SWIDTH 555 0
DWIDTH 10 0
BBX 6 11 2 3
BITMAP
84
84
00
00
00
00
00
00
00
04
04
ENDCHAR
STARTCHAR uni282A
ENCODING 10282
SWIDTH 555 0
DWIDTH 10 0
BBX 6 11 2 3
BITMAP
04
04
00
00
80
80
00
00
00
04
04
ENDCHAR
STARTCHAR uni282B
ENCODING 10283
SWIDTH 555 0
DWIDTH 10 0
BBX 6 11 2 3
BITMAP
84
84
00
00
80
80
00
00
00
04
04
ENDCHAR
STARTCHAR uni282C
ENCODING 10284
SWIDTH 555 0
DWIDTH 10 0
BBX 6 11 2 3
BITMAP
04
04
00
00
00
00
00
00
00
84
84
ENDCHAR
STARTCHAR uni282D
ENCODING 10285
SWIDTH 555 0
DWIDTH 10 0
BBX 6 11 2 3
BITMAP
84
84
00
00
00
00
00
00
00
84
84
ENDCHAR
STARTCHAR uni282E
ENCODING 10286
SWIDTH 555 0
DWIDTH 10 0
BBX 6 11 2 3
BITMAP
04
04
00
00
80
80
00
00
00
84
84
ENDCHAR
STARTCHAR uni282F
ENCODING 10287
SWIDTH 555 0
DWIDTH 10 0
BBX 6 11 2 3
BITMAP
84
84
00
00
80
80
00
00
00
84
84
ENDCHAR
STARTCHAR uni2830
ENCODING 10288
SWIDTH 555 0
DWIDTH 10 0
BBX 1 7 7 3
BITMAP
80
80
00
00
00
80
80
ENDCHAR
STARTCHAR uni2831
ENCODING 10289
SWIDTH 555 0
DWIDTH 10 0
BBX 6 11 2 3
BITMAP
80
80
00
00
04
04
00
00
00
04
04
ENDCHAR
STARTCHAR uni2832
ENCODING 10290
SWIDTH 555 0
DWIDTH 10 0
BBX 6 7 2 3
BITMAP
84
84
00
00
00
04
04
ENDCHAR
STARTCHAR uni2833
ENCODING 10291
SWIDTH 555 0
DWIDTH 10 0
BBX 6 11 2 3
BITMAP
80
80
00
00
84
84
00
00
00
04
04
ENDCHAR
STARTCHAR uni2834
ENCODING 10292
SWIDTH 555 0
DWIDTH 10 0
BBX 6 7 2 3
BITMAP
04
04
00
00
00
84
84
ENDCHAR
STARTCHAR uni2835
ENCODING 10293
SWIDTH 555 0
DWIDTH 10 0
BBX 6 11 2 3
BITMAP
80
80
00
00
04
04
00
00
00
84
84
ENDCHAR
STARTCHAR uni2836
ENCODING 10294
SWIDTH 555 0
DWIDTH 10 0
BBX 6 7 2 3
BITMAP
84
84
00
00
00
84
84
ENDCHAR
STARTCHAR uni2837
ENCODING 10295
SWIDTH 555 0
DWIDTH 10 0
BBX 6 11 2 3
BITMAP
80
80
00
00
84
84
00
00
00
84
84
ENDCHAR
STARTCHAR uni2838
ENCODING 10296
SWIDTH 555 0
DWIDTH 10 0
BBX 1 11 7 3
BITMAP
80
80
00
00
80
80
00
00
00
80
80
ENDCHAR
STARTCHAR uni2839
ENCODING 10297
SWIDTH 555 0
DWIDTH 10 0
BBX 6 11 2 3
BITMAP
84
84
00
00
04
04
00
00
00
04
04
ENDCHAR
STARTCHAR uni283A
ENCODING 10298
SWIDTH 555 0
DWIDTH 10 0
BBX 6 11 2 3
BITMAP
04
04
00
00
84
84
00
00
00
04
04
ENDCHAR
STARTCHAR uni283B
ENCODING 10299
SWIDTH 555 0
DWIDTH 10 0
BBX 6 11 2 3
BITMAP
84
84
00
00
84
84
00
00
00
04
04
ENDCHAR
STARTCHAR uni283C
ENCODING 10300
SWIDTH 555 0
DWIDTH 10 0
BBX 6 11 2 3
BITMAP
04
04
00
00
04
04
00
00
00
84
84
ENDCHAR
STARTCHAR uni283D
ENCODING 10301
SWIDTH 555 0
DWIDTH 10 0
BBX 6 11 2 3
BITMAP
84
84
00
00
04
04
00
00
00
84
84
ENDCHAR
STARTCHAR uni283E
ENCODING 10302
SWIDTH 555 0
DWIDTH 10 0
BBX 6 11 2 3
BITMAP
04
04
00
00
84
84
00
00
00
84
84
ENDCHAR
STARTCHAR uni283F
ENCODING 10303
SWIDTH 555 0
DWIDTH 10 0
BBX 6 11 2 3
BITMAP
84
84
00
00
84
84
00
00
00
84
84
ENDCHAR
STARTCHAR uni2840
ENCODING 10304
SWIDTH 555 0
DWIDTH 10 0
BBX 1 2 2 -1
BITMAP
80
80
ENDCHAR
STARTCHAR uni2841
ENCODING 10305
SWIDTH 555 0
DWIDTH 10 0
BBX 1 15 2 -1
BITMAP
80
80
00
00
00
00
00
00
00
00
00
00
00
80
80
ENDCHAR
STARTCHAR uni2842
ENCODING 10306
SWIDTH 555 0
DWIDTH 10 0
BBX 1 11 2 -1
BITMAP
80
80
00
00
00
00
00
00
00
80
80
ENDCHAR
STARTCHAR uni2843
ENCODING 10307
SWIDTH 555 0
DWIDTH 10 0
BBX 1 15 2 -1
BITMAP
80
80
00
00
80
80
00
00
00
00
00
00
00
80
80
ENDCHAR
STARTCHAR uni2844
ENCODING 10308
SWIDTH 555 0
DWIDTH 10 0
BBX 1 6 2 -1
BITMAP
80
80
00
00
80
80
ENDCHAR
STARTCHAR uni2845
ENCODING 10309
SWIDTH 555 0
DWIDTH 10 0
BBX 1 15 2 -1
BITMAP
80
80
00
00
00
00
00
00
00
80
80
00
00
80
80
ENDCHAR
STARTCHAR uni2846
ENCODING 10310
SWIDTH 555 0
DWIDTH 10 0
BBX 1 11 2 -1
BITMAP
80
80
00
00
00
80
80
00
00
80
80
ENDCHAR
STARTCHAR uni2847
ENCODING 10311
SWIDTH 555 0
DWIDTH 10 0
BBX 1 15 2 -1
BITMAP
80
80
00
00
80
80
00
00
00
80
80
00
00
80
80
ENDCHAR
STARTCHAR uni2848
ENCODING 10312
SWIDTH 555 0
DWIDTH 10 0
BBX 6 15 2 -1
BITMAP
04
04
00
00
00
00
00
00
00
00
00
00
00
80
80
ENDCHAR
STARTCHAR uni2849
ENCODING 10313
SWIDTH 555 0
DWIDTH 10 0
BBX 6 15 2 -1
BITMAP
84
84
00
00
00
00
00
00
00
00
00
00
00
80
80
ENDCHAR
STARTCHAR uni284A
ENCODING 10314
SWIDTH 555 0
DWIDTH 10 0
BBX 6 15 2 -1
BITMAP
04
04
00
00
80
80
00
00
00
00
00
00
00
80
80
ENDCHAR
STARTCHAR uni284B
ENCODING 10315
SWIDTH 555 0
DWIDTH 10 0
BBX 6 15 2 -1
BITMAP
84
84
00
00
80
80
00
00
00
00
00
00
00
80
80
ENDCHAR
STARTCHAR uni284C
ENCODING 10316
SWIDTH 555 0
DWIDTH 10 0
BBX 6 15 2 -1
BITMAP
04
04
00
00
00
00
00
00
00
80
80
00
00
80
80
ENDCHAR
STARTCHAR uni284D
ENCODING 10317
SWIDTH 555 0
DWIDTH 10 0
BBX 6 15 2 -1
BITMAP
84
84
00
00
00
00
00
00
00
80
80
00
00
80
80
ENDCHAR
STARTCHAR uni284E
ENCODING 10318
SWIDTH 555 0
DWIDTH 10 0
BBX 6 15 2 -1
BITMAP
04
04
00
00
80
80
00
00
00
80
80
00
00
80
80
ENDCHAR
STARTCHAR uni284F
ENCODING 10319
SWIDTH 555 0
DWIDTH 10 0
BBX 6 15 2 -1
BITMAP
84
84
00
00
80
80
00
00
00
80
80
00
00
80
80
ENDCHAR
STARTCHAR uni2850
ENCODING 10320
SWIDTH 555 0
DWIDTH 10 0
BBX 6 11 2 -1
BITMAP
04
04
00
00
00
00
00
00
00
80
80
ENDCHAR
STARTCHAR uni2851
ENCODING 10321
SWIDTH 555 0
DWIDTH 10 0
BBX 6 15 2 -1
BITMAP
80
80
00
00
04
04
00
00
00
00
00
00
00
80
80
ENDCHAR
STARTCHAR uni2852
ENCODING 10322
SWIDTH 555 0
DWIDTH 10 0
BBX 6 11 2 -1
BITMAP
84
84
00
00
00
00
00
00
00
80
80
ENDCHAR
STARTCHAR uni2853
ENCODING 10323
SWIDTH 555 0
DWIDTH 10 0
BBX 6 15 2 -1
BITMAP
80
80
00
00
84
84
00
00
00
00
00
00
00
80
80
ENDCHAR
STARTCHAR uni2854
ENCODING 10324
SWIDTH 555 0
DWIDTH 10 0
BBX 6 11 2 -1
BITMAP
04
04
00
00
00
80
80
00
00
80
80
ENDCHAR
STARTCHAR uni2855
ENCODING 10325
SWIDTH 555 0
DWIDTH 10 0
BBX 6 15 2 -1
BITMAP
80
80
00
00
04
04
00
00
00
80
80
00
00
80
80
ENDCHAR
STARTCHAR uni2856
ENCODING 10326
SWIDTH 555 0
DWIDTH 10 0
BBX 6 11 2 -1
BITMAP
84
84
00
00
00
80
80
00
00
80
80
ENDCHAR
STARTCHAR uni2857
ENCODING 10327
SWIDTH 555 0
DWIDTH 10 0
BBX 6 15 2 -1
BITMAP
80
80
00
00
84
84
00
00
00
80
80
00
00
80
80
ENDCHAR
STARTCHAR uni2858
ENCODING 10328
SWIDTH 555 0
DWIDTH 10 0
BBX 6 15 2 -1
BITMAP
04
04
00
00
04
04
00
00
00
00
00
00
00
80
80
ENDCHAR
STARTCHAR uni2859
ENCODING 10329
SWIDTH 555 0
DWIDTH 10 0
BBX 6 15 2 -1
BITMAP
84
84
00
00
04
04
00
00
00
00
00
00
00
80
80
ENDCHAR
STARTCHAR uni285A
ENCODING 10330
SWIDTH 555 0
DWIDTH 10 0
BBX 6 15 2 -1
BITMAP
04
04
00
00
84
84
00
00
00
00
00
00
00
80
80
ENDCHAR
STARTCHAR uni285B
ENCODING 10331
SWIDTH 555 0
DWIDTH 10 0
BBX 6 15 2 -1
BITMAP
84
84
00
00
84
84
00
00
00
00
00
00
00
80
80
ENDCHAR
STARTCHAR uni285C
ENCODING 10332
SWIDTH 555 0
DWIDTH 10 0
BBX 6 15 2 -1
BITMAP
04
04
00
00
04
04
00
00
00
80
80
00
00
80
80
ENDCHAR
STARTCHAR uni285D
ENCODING 10333
SWIDTH 555 0
DWIDTH 10 0
BBX 6 15 2 -1
BITMAP
84
84
00
00
04
04
00
00
00
80
80
00
00
80
80
ENDCHAR
STARTCHAR uni285E
ENCODING 10334
SWIDTH 555 0
DWIDTH 10 0
BBX 6 15 2 -1
BITMAP
04
04
00
00
84
84
00
00
00
80
80
00
00
80
80
ENDCHAR
STARTCHAR uni285F
ENCODING 10335
SWIDTH 555 0
DWIDTH 10 0
BBX 6 15 2 -1
BITMAP
84
84
00
00
84
84
00
00
00
80
80
00
00
80
80
ENDCHAR
STARTCHAR uni2860
ENCODING 10336
SWIDTH 555 0
DWIDTH 10 0
BBX 6 6 2 -1
BITMAP
04
04
00
00
80
80
ENDCHAR
STARTCHAR uni2861
ENCODING 10337
SWIDTH 555 0
DWIDTH 10 0
BBX 6 15 2 -1
BITMAP
80
80
00
00
00
00
00
00
00
04
04
00
00
80
80
ENDCHAR
STARTCHAR uni2862
ENCODING 10338
SWIDTH 555 0
DWIDTH 10 0
BBX 6 11 2 -1
BITMAP
80
80
00
00
00
04
04
00
00
80
80
ENDCHAR
STARTCHAR uni2863
ENCODING 10339
SWIDTH 555 0
DWIDTH 10 0
BBX 6 15 2 -1
BITMAP
80
80
00
00
80
80
00
00
00
04
04
00
00
80
80
ENDCHAR
STARTCHAR uni2864
ENCODING 10340
SWIDTH 555 0
DWIDTH 10 0
BBX 6 6 2 -1
BITMAP
84
84
00
00
80
80
ENDCHAR
STARTCHAR uni2865
ENCODING 10341
SWIDTH 555 0
DWIDTH 10 0
BBX 6 15 2 -1
BITMAP
80
80
00
00
00
00
00
00
00
84
84
00
00
80
80
ENDCHAR
STARTCHAR uni2866
ENCODING 10342
SWIDTH 555 0
DWIDTH 10 0
BBX 6 11 2 -1
BITMAP
80
80
00
00
00
84
84
00
00
80
80
ENDCHAR
STARTCHAR uni2867
ENCODING 10343
SWIDTH 555 0
DWIDTH 10 0
BBX 6 15 2 -1
BITMAP
80
80
00
00
80
80
00
00
00
84
84
00
00
80
80
ENDCHAR
STARTCHAR uni2868
ENCODING 10344
SWIDTH 555 0
DWIDTH 10 0
BBX 6 15 2 -1
BITMAP
04
04
00
00
00
00
00
00
00
04
04
00
00
80
80
ENDCHAR
STARTCHAR uni2869
ENCODING 10345
SWIDTH 555 0
DWIDTH 10 0
BBX 6 15 2 -1
BITMAP
84
84
00
00
00
00
00
00
00
04
04
00
00
80
80
ENDCHAR
STARTCHAR uni286A
ENCODING 10346
SWIDTH 555 0
DWIDTH 10 0
BBX 6 15 2 -1
BITMAP
04
04
00
00
80
80
00
00
00
04
04
00
00
80
80
ENDCHAR
STARTCHAR uni286B
ENCODING 10347
SWIDTH 555 0
DWIDTH 10 0
BBX 6 15 2 -1
BITMAP
84
84
00
00
80
80
00
00
00
04
04
00
00
80
80
ENDCHAR
STARTCHAR uni286C
ENCODING 10348
SWIDTH 555 0
DWIDTH 10 0
BBX 6 15 2 -1
BITMAP
04
04
00
00
00
00
00
00
00
84
84
00
00
80
80
ENDCHAR
STARTCHAR uni286D
ENCODING 10349
SWIDTH 555 0
DWIDTH 10 0
BBX 6 15 2 -1
BITMAP
84
84
00
00
00
00
00
00
00
84
84
00
00
80
80
ENDCHAR
STARTCHAR uni286E
ENCODING 10350
SWIDTH 555 0
DWIDTH 10 0
BBX 6 15 2 -1
BITMAP
04
04
00
00
80
80
00
00
00
84
84
00
00
80
80
ENDCHAR
STARTCHAR uni286F
ENCODING 10351
SWIDTH 555 0
DWIDTH 10 0
BBX 6 15 2 -1
BITMAP
84
84
00
00
80
80
00
00
00
84
84
00
00
80
80
ENDCHAR
STARTCHAR uni2870
ENCODING 10352
SWIDTH 555 0
DWIDTH 10 0
BBX 6 11 2 -1
BITMAP
04
04
00
00
00
04
04
00
00
80
80
ENDCHAR
STARTCHAR uni2871
ENCODING 10353
SWIDTH 555 0
DWIDTH 10 0
BBX 6 15 2 -1
BITMAP
80
80
00
00
04
04
00
00
00
04
04
00
00
80
80
ENDCHAR
STARTCHAR uni2872
ENCODING 10354
SWIDTH 555 0
DWIDTH 10 0
BBX 6 11 2 -1
BITMAP
84
84
00
00
00
04
04
00
00
80
80
ENDCHAR
STARTCHAR uni2873
ENCODING 10355
SWIDTH 555 0
DWIDTH 10 0
BBX 6 15 2 -1
BITMAP
80
80
00
00
84
84
00
00
00
04
04
00
00
80
80
ENDCHAR
STARTCHAR uni2874
ENCODING 10356
SWIDTH 555 0
DWIDTH 10 0
BBX 6 11 2 -1
BITMAP
04
04
00
00
00
84
84
00
00
80
80
ENDCHAR
STARTCHAR uni2875
ENCODING 10357
SWIDTH 555 0
DWIDTH 10 0
BBX 6 15 2 -1
BITMAP
80
80
00
00
04
04
00
00
00
84
84
00
00
80
80
ENDCHAR
STARTCHAR uni2876
ENCODING 10358
SWIDTH 555 0
DWIDTH 10 0
BBX 6 11 2 -1
BITMAP
84
84
00
00
00
84
84
00
00
80
80
ENDCHAR
STARTCHAR uni2877
ENCODING 10359
SWIDTH 555 0
DWIDTH 10 0
BBX 6 15 2 -1
BITMAP
80
80
00
00
84
84
00
00
00
84
84
00
00
80
80
ENDCHAR
STARTCHAR uni2878
ENCODING 10360
SWIDTH 555 0
DWIDTH 10 0
BBX 6 15 2 -1
BITMAP
04
04
00
00
04
04
00
00
00
04
04
00
00
80
80
ENDCHAR
STARTCHAR uni2879
ENCODING 10361
SWIDTH 555 0
DWIDTH 10 0
BBX 6 15 2 -1
BITMAP
84
84
00
00
04
04
00
00
00
04
04
00
00
80
80
ENDCHAR
STARTCHAR uni287A
ENCODING 10362
SWIDTH 555 0
DWIDTH 10 0
BBX 6 15 2 -1
BITMAP
04
04
00
00
84
84
00
00
00
04
04
00
00
80
80
ENDCHAR
STARTCHAR uni287B
ENCODING 10363
SWIDTH 555 0
DWIDTH 10 0
BBX 6 15 2 -1
BITMAP
84
84
00
00
84
84
00
00
00
04
04
00
00
80
80
ENDCHAR
STARTCHAR uni287C
ENCODING 10364
SWIDTH 555 0
DWIDTH 10 0
BBX 6 15 2 -1
BITMAP
04
04
00
00
04
04
00
00
00
84
84
00
00
80
80
ENDCHAR
STARTCHAR uni287D
ENCODING 10365
SWIDTH 555 0
DWIDTH 10 0
BBX 6 15 2 -1
BITMAP
84
84
00
00
04
04
00
00
00
84
84
00
00
80
80
ENDCHAR
STARTCHAR uni287E
ENCODING 10366
SWIDTH 555 0
DWIDTH 10 0
BBX 6 15 2 -1
BITMAP
04
04
00
00
84
84
00
00
00
84
84
00
00
80
80
ENDCHAR
STARTCHAR uni287F
ENCODING 10367
SWIDTH 555 0
DWIDTH 10 0
BBX 6 15 2 -1
BITMAP
84
84
00
00
84
84
00
00
00
84
84
00
00
80
80
ENDCHAR
STARTCHAR uni2880
ENCODING 10368
SWIDTH 555 0
DWIDTH 10 0
BBX 1 2 7 -1
BITMAP
80
80
ENDCHAR
STARTCHAR uni2881
ENCODING 10369
SWIDTH 555 0
DWIDTH 10 0
BBX 6 15 2 -1
BITMAP
80
80
00
00
00
00
00
00
00
00
00
00
00
04
04
ENDCHAR
STARTCHAR uni2882
ENCODING 10370
SWIDTH 555 0
DWIDTH 10 0
BBX 6 11 2 -1
BITMAP
80
80
00
00
00
00
00
00
00
04
04
ENDCHAR
STARTCHAR uni2883
ENCODING 10371
SWIDTH 555 0
DWIDTH 10 0
BBX 6 15 2 -1
BITMAP
80
80
00
00
80
80
00
00
00
00
00
00
00
04
04
ENDCHAR
STARTCHAR uni2884
ENCODING 10372
SWIDTH 555 0
DWIDTH 10 0
BBX 6 6 2 -1
BITMAP
80
80
00
00
04
04
ENDCHAR
STARTCHAR uni2885
ENCODING 10373
SWIDTH 555 0
DWIDTH 10 0
BBX 6 15 2 -1
BITMAP
80
80
00
00
00
00
00
00
00
80
80
00
00
04
04
ENDCHAR
STARTCHAR uni2886
ENCODING 10374
SWIDTH 555 0
DWIDTH 10 0
BBX 6 11 2 -1
BITMAP
80
80
00
00
00
80
80
00
00
04
04
ENDCHAR
STARTCHAR uni2887
ENCODING 10375
SWIDTH 555 0
DWIDTH 10 0
BBX 6 15 2 -1
BITMAP
80
80
00
00
80
80
00
00
00
80
80
00
00
04
04
ENDCHAR
STARTCHAR uni2888
ENCODING 10376
SWIDTH 555 0
DWIDTH 10 0
BBX 1 15 7 -1
BITMAP
80
80
00
00
00
00
00
00
00
00
00
00
00
80
80
ENDCHAR
STARTCHAR uni2889
ENCODING 10377
SWIDTH 555 0
DWIDTH 10 0
BBX 6 15 2 -1
BITMAP
84
84
00
00
00
00
00
00
00
00
00
00
00
04
04
ENDCHAR
STARTCHAR uni288A
ENCODING 10378
SWIDTH 555 0
DWIDTH 10 0
BBX 6 15 2 -1
BITMAP
04
04
00
00
80
80
00
00
00
00
00
00
00
04
04
ENDCHAR
STARTCHAR uni288B
ENCODING 10379
SWIDTH 555 0
DWIDTH 10 0
BBX 6 15 2 -1
BITMAP
84
84
00
00
80
80
00
00
00
00
00
00
00
04
04
ENDCHAR
STARTCHAR uni288C
ENCODING 10380
SWIDTH 555 0
DWIDTH 10 0
BBX 6 15 2 -1
BITMAP
04
04
00
00
00
00
00
00
00
80
80
00
00
04
04
ENDCHAR
STARTCHAR uni288D
ENCODING 10381
SWIDTH 555 0
DWIDTH 10 0
BBX 6 15 2 -1
BITMAP
84
84
00
00
00
00
00
00
00
80
80
00
00
04
04
ENDCHAR
STARTCHAR uni288E
ENCODING 10382
SWIDTH 555 0
DWIDTH 10 0
BBX 6 15 2 -1
BITMAP
04
04
00
00
80
80
00
00
00
80
80
00
00
04
04
ENDCHAR
STARTCHAR uni288F
ENCODING 10383
SWIDTH 555 0
DWIDTH 10 0
BBX 6 15 2 -1
BITMAP
84
84
00
00
80
80
00
00
00
80
80
00
00
04
04
ENDCHAR
STARTCHAR uni2890
ENCODING 10384
SWIDTH 555 0
DWIDTH 10 0
BBX 1 11 7 -1
BITMAP
80
80
00
00
00
00
00
00
00
80
80
ENDCHAR
STARTCHAR uni2891
ENCODING 10385
SWIDTH 555 0
DWIDTH 10 0
BBX 6 15 2 -1
BITMAP
80
80
00
00
04
04
00
00
00
00
00
00
00
04
04
ENDCHAR
STARTCHAR uni2892
ENCODING 10386
SWIDTH 555 0
DWIDTH 10 0
BBX 6 11 2 -1
BITMAP
84
84
00
00
00
00
00
00
00
04
04
ENDCHAR
STARTCHAR uni2893
ENCODING 10387
SWIDTH 555 0
DWIDTH 10 0
BBX 6 15 2 -1
BITMAP
80
80
00
00
84
84
00
00
00
00
00
00
00
04
04
ENDCHAR
STARTCHAR uni2894
ENCODING 10388
SWIDTH 555 0
DWIDTH 10 0
BBX 6 11 2 -1
BITMAP
04
04
00
00
00
80
80
00
00
04
04
ENDCHAR
STARTCHAR uni2895
ENCODING 10389
SWIDTH 555 0
DWIDTH 10 0
BBX 6 15 2 -1
BITMAP
80
80
00
00
04
04
00
00
00
80
80
00
00
04
04
ENDCHAR
STARTCHAR uni2896
ENCODING 10390
SWIDTH 555 0
DWIDTH 10 0
BBX 6 11 2 -1
BITMAP
84
84
00
00
00
80
80
00
00
04
04
ENDCHAR
STARTCHAR uni2897
ENCODING 10391
SWIDTH 555 0
DWIDTH 10 0
BBX 6 15 2 -1
BITMAP
80
80
00
00
84
84
00
00
00
80
80
00
00
04
04
ENDCHAR
STARTCHAR uni2898
ENCODING 10392
SWIDTH 555 0
DWIDTH 10 0
BBX 1 15 7 -1
BITMAP
80
80
00
00
80
80
00
00
00
00
00
00
00
80
80
ENDCHAR
STARTCHAR uni2899
ENCODING 10393
SWIDTH 555 0
DWIDTH 10 0
BBX 6 15 2 -1
BITMAP
84
84
00
00
04
04
00
00
00
00
00
00
00
04
04
ENDCHAR
STARTCHAR uni289A
ENCODING 10394
SWIDTH 555 0
DWIDTH 10 0
BBX 6 15 2 -1
BITMAP
04
04
00
00
84
84
00
00
00
00
00
00
00
04
04
ENDCHAR
STARTCHAR uni289B
ENCODING 10395
SWIDTH 555 0
DWIDTH 10 0
BBX 6 15 2 -1
BITMAP
84
84
00
00
84
84
00
00
00
00
00
00
00
04
04
ENDCHAR
STARTCHAR uni289C
ENCODING 10396
SWIDTH 555 0
DWIDTH 10 0
BBX 6 15 2 -1
BITMAP
04
04
00
00
04
04
00
00
00
80
80
00
00
04
04
ENDCHAR
STARTCHAR uni289D
ENCODING 10397
SWIDTH 555 0
DWIDTH 10 0
BBX 6 15 2 -1
BITMAP
84
84
00
00
04
04
00
00
00
80
80
00
00
04
04
ENDCHAR
STARTCHAR uni289E
ENCODING 10398
SWIDTH 555 0
DWIDTH 10 0
BBX 6 15 2 -1
BITMAP
04
04
00
00
84
84
00
00
00
80
80
00
00
04
04
ENDCHAR
STARTCHAR uni289F
ENCODING 10399
SWIDTH 555 0
DWIDTH 10 0
BBX 6 15 2 -1
BITMAP
84
84
00
00
84
84
00
00
00
80
80
00
00
04
04
ENDCHAR
STARTCHAR uni28A0
ENCODING 10400
SWIDTH 555 0
DWIDTH 10 0
BBX 1 6 7 -1
BITMAP
80
80
00
00
80
80
ENDCHAR
STARTCHAR uni28A1
ENCODING 10401
SWIDTH 555 0
DWIDTH 10 0
BBX 6 15 2 -1
BITMAP
80
80
00
00
00
00
00
00
00
04
04
00
00
04
04
ENDCHAR
STARTCHAR uni28A2
ENCODING 10402
SWIDTH 555 0
DWIDTH 10 0
BBX 6 11 2 -1
BITMAP
80
80
00
00
00
04
04
00
00
04
04
ENDCHAR
STARTCHAR uni28A3
ENCODING 10403
SWIDTH 555 0
DWIDTH 10 0
BBX 6 15 2 -1
BITMAP
80
80
00
00
80
80
00
00
00
04
04
00
00
04
04
ENDCHAR
STARTCHAR uni28A4
ENCODING 10404
SWIDTH 555 0
DWIDTH 10 0
BBX 6 6 2 -1
BITMAP
84
84
00
00
04
04
ENDCHAR
STARTCHAR uni28A5
ENCODING 10405
SWIDTH 555 0
DWIDTH 10 0
BBX 6 15 2 -1
BITMAP
80
80
00
00
00
00
00
00
00
84
84
00
00
04
04
ENDCHAR
STARTCHAR uni28A6
ENCODING 10406
SWIDTH 555 0
DWIDTH 10 0
BBX 6 11 2 -1
BITMAP
80
80
00
00
00
84
84
00
00
04
04
ENDCHAR
STARTCHAR uni28A7
ENCODING 10407
SWIDTH 555 0
DWIDTH 10 0
BBX 6 15 2 -1
BITMAP
80
80
00
00
80
80
00
00
00
84
84
00
00
04
04
ENDCHAR
STARTCHAR uni28A8
ENCODING 10408
SWIDTH 555 0
DWIDTH 10 0
BBX 1 15 7 -1
BITMAP
80
80
00
00
00
00
00
00
00
80
80
00
00
80
80
ENDCHAR
STARTCHAR uni28A9
ENCODING 10409
SWIDTH 555 0
DWIDTH 10 0
BBX 6 15 2 -1
BITMAP
84
84
00
00
00
00
00
00
00
04
04
00
00
04
04
ENDCHAR
STARTCHAR uni28AA
ENCODING 10410
SWIDTH 555 0
DWIDTH 10 0
BBX 6 15 2 -1
BITMAP
04
04
00
00
80
80
00
00
00
04
04
00
00
04
04
ENDCHAR
STARTCHAR uni28AB
ENCODING 10411
SWIDTH 555 0
DWIDTH 10 0
BBX 6 15 2 -1
BITMAP
84
84
00
00
80
80
00
00
00
04
04
00
00
04
04
ENDCHAR
STARTCHAR uni28AC
ENCODING 10412
SWIDTH 555 0
DWIDTH 10 0
BBX 6 15 2 -1
BITMAP
04
04
00
00
00
00
00
00
00
84
84
00
00
04
04
ENDCHAR
STARTCHAR uni28AD
ENCODING 10413
SWIDTH 555 0
DWIDTH 10 0
BBX 6 15 2 -1
BITMAP
84
84
00
00
00
00
00
00
00
84
84
00
00
04
04
ENDCHAR
STARTCHAR uni28AE
ENCODING 10414
SWIDTH 555 0
DWIDTH 10 0
BBX 6 15 2 -1
BITMAP
04
04
00
00
80
80
00
00
00
84
84
00
00
04
04
ENDCHAR
STARTCHAR uni28AF
ENCODING 10415
SWIDTH 555 0
DWIDTH 10 0
BBX 6 15 2 -1
BITMAP
84
84
00
00
80
80
00
00
00
84
84
00
00
04
04
ENDCHAR
STARTCHAR uni28B0
ENCODING 10416
SWIDTH 555 0
DWIDTH 10 0
BBX 1 11 7 -1
BITMAP
80
80
00
00
00
80
80
00
00
80
80
ENDCHAR
STARTCHAR uni28B1
ENCODING 10417
SWIDTH 555 0
DWIDTH 10 0
BBX 6 15 2 -1
BITMAP
80
80
00
00
04
04
00
00
00
04
04
00
00
04
04
ENDCHAR
STARTCHAR uni28B2
ENCODING 10418
SWIDTH 555 0
DWIDTH 10 0
BBX 6 11 2 -1
BITMAP
84
84
00
00
00
04
04
00
00
04
04
ENDCHAR
STARTCHAR uni28B3
ENCODING 10419
SWIDTH 555 0
DWIDTH 10 0
BBX 6 15 2 -1
BITMAP
80
80
00
00
84
84
00
00
00
04
04
00
00
04
04
ENDCHAR
STARTCHAR uni28B4
ENCODING 10420
SWIDTH 555 0
DWIDTH 10 0
BBX 6 11 2 -1
BITMAP
04
04
00
00
00
84
84
00
00
04
04
ENDCHAR
STARTCHAR uni28B5
ENCODING 10421
SWIDTH 555 0
DWIDTH 10 0
BBX 6 15 2 -1
BITMAP
80
80
00
00
04
04
00
00
00
84
84
00
00
04
04
ENDCHAR
STARTCHAR uni28B6
ENCODING 10422
SWIDTH 555 0
DWIDTH 10 0
BBX 6 11 2 -1
BITMAP
84
84
00
00
00
84
84
00
00
04
04
ENDCHAR
STARTCHAR uni28B7
ENCODING 10423
SWIDTH 555 0
DWIDTH 10 0
BBX 6 15 2 -1
BITMAP
80
80
00
00
84
84
00
00
00
84
84
00
00
04
04
ENDCHAR
STARTCHAR uni28B8
ENCODING 10424
SWIDTH 555 0
DWIDTH 10 0
BBX 1 15 7 -1
BITMAP
80
80
00
00
80
80
00
00
00
80
80
00
00
80
80
ENDCHAR
STARTCHAR uni28B9
ENCODING 10425
SWIDTH 555 0
DWIDTH 10 0
BBX 6 15 2 -1
BITMAP
84
84
00
00
04
04
00
00
00
04
04
00
00
04
04
ENDCHAR
STARTCHAR uni28BA
ENCODING 10426
SWIDTH 555 0
DWIDTH 10 0
BBX 6 15 2 -1
BITMAP
04
04
00
00
84
84
00
00
00
04
04
00
00
04
04
ENDCHAR
STARTCHAR uni28BB
ENCODING 10427
SWIDTH 555 0
DWIDTH 10 0
BBX 6 15 2 -1
BITMAP
84
84
00
00
84
84
00
00
00
04
04
00
00
04
04
ENDCHAR
STARTCHAR uni28BC
ENCODING 10428
SWIDTH 555 0
DWIDTH 10 0
BBX 6 15 2 -1
BITMAP
04
04
00
00
04
04
00
00
00
84
84
00
00
04
04
ENDCHAR
STARTCHAR uni28BD
ENCODING 10429
SWIDTH 555 0
DWIDTH 10 0
BBX 6 15 2 -1
BITMAP
84
84
00
00
04
04
00
00
00
84
84
00
00
04
04
ENDCHAR
STARTCHAR uni28BE
ENCODING 10430
SWIDTH 555 0
DWIDTH 10 0
BBX 6 15 2 -1
BITMAP
04
04
00
00
84
84
00
00
00
84
84
00
00
04
04
ENDCHAR
STARTCHAR uni28BF
ENCODING 10431
SWIDTH 555 0
DWIDTH 10 0
BBX 6 15 2 -1
BITMAP
84
84
00
00
84
84
00
00
00
84
84
00
00
04
04
ENDCHAR
STARTCHAR uni28C0
ENCODING 10432
SWIDTH 555 0
DWIDTH 10 0
BBX 6 2 2 -1
BITMAP
84
84
ENDCHAR
STARTCHAR uni28C1
ENCODING 10433
SWIDTH 555 0
DWIDTH 10 0
BBX 6 15 2 -1
BITMAP
80
80
00
00
00
00
00
00
00
00
00
00
00
84
84
ENDCHAR
STARTCHAR uni28C2
ENCODING 10434
SWIDTH 555 0
DWIDTH 10 0
BBX 6 11 2 -1
BITMAP
80
80
00
00
00
00
00
00
00
84
84
ENDCHAR
STARTCHAR uni28C3
ENCODING 10435
SWIDTH 555 0
DWIDTH 10 0
BBX 6 15 2 -1
BITMAP
80
80
00
00
80
80
00
00
00
00
00
00
00
84
84
ENDCHAR
STARTCHAR uni28C4
ENCODING 10436
SWIDTH 555 0
DWIDTH 10 0
BBX 6 6 2 -1
BITMAP
80
80
00
00
84
84
ENDCHAR
STARTCHAR uni28C5
ENCODING 10437
SWIDTH 555 0
DWIDTH 10 0
BBX 6 15 2 -1
BITMAP
80
80
00
00
00
00
00
00
00
80
80
00
00
84
84
ENDCHAR
STARTCHAR uni28C6
ENCODING 10438
SWIDTH 555 0
DWIDTH 10 0
BBX 6 11 2 -1
BITMAP
80
80
00
00
00
80
80
00
00
84
84
ENDCHAR
STARTCHAR uni28C7
ENCODING 10439
SWIDTH 555 0
DWIDTH 10 0
BBX 6 15 2 -1
BITMAP
80
80
00
00
80
80
00
00
00
80
80
00
00
84
84
ENDCHAR
STARTCHAR uni28C8
ENCODING 10440
SWIDTH 555 0
DWIDTH 10 0
BBX 6 15 2 -1
BITMAP
04
04
00
00
00
00
00
00
00
00
00
00
00
84
84
ENDCHAR
STARTCHAR uni28C9
ENCODING 10441
SWIDTH 555 0
DWIDTH 10 0
BBX 6 15 2 -1
BITMAP
84
84
00
00
00
00
00
00
00
00
00
00
00
84
84
ENDCHAR
STARTCHAR uni28CA
ENCODING 10442
SWIDTH 555 0
DWIDTH 10 0
BBX 6 15 2 -1
BITMAP
04
04
00
00
80
80
00
00
00
00
00
00
00
84
84
ENDCHAR
STARTCHAR uni28CB
ENCODING 10443
SWIDTH 555 0
DWIDTH 10 0
BBX 6 15 2 -1
BITMAP
84
84
00
00
80
80
00
00
00
00
00
00
00
84
84
ENDCHAR
STARTCHAR uni28CC
ENCODING 10444
SWIDTH 555 0
DWIDTH 10 0
BBX 6 15 2 -1
BITMAP
04
04
00
00
00
00
00
00
00
80
80
00
00
84
84
ENDCHAR
STARTCHAR uni28CD
ENCODING 10445
SWIDTH 555 0
DWIDTH 10 0
BBX 6 15 2 -1
BITMAP
84
84
00
00
00
00
00
00
00
80
80
00
00
84
84
ENDCHAR
STARTCHAR uni28CE
ENCODING 10446
SWIDTH 555 0
DWIDTH 10 0
BBX 6 15 2 -1
BITMAP
04
04
00
00
80
80
00
00
00
80
80
00
00
84
84
ENDCHAR
STARTCHAR uni28CF
ENCODING 10447
SWIDTH 555 0
DWIDTH 10 0
BBX 6 15 2 -1
BITMAP
84
84
00
00
80
80
00
00
00
80
80
00
00
84
84
ENDCHAR
STARTCHAR uni28D0
ENCODING 10448
SWIDTH 555 0
DWIDTH 10 0
BBX 6 11 2 -1
BITMAP
04
04
00
00
00
00
00
00
00
84
84
ENDCHAR
STARTCHAR uni28D1
ENCODING 10449
SWIDTH 555 0
DWIDTH 10 0
BBX 6 15 2 -1
BITMAP
80
80
00
00
04
04
00
00
00
00
00
00
00
84
84
ENDCHAR
STARTCHAR uni28D2
ENCODING 10450
SWIDTH 555 0
DWIDTH 10 0
BBX 6 11 2 -1
BITMAP
84
84
00
00
00
00
00
00
00
84
84
ENDCHAR
STARTCHAR uni28D3
ENCODING 10451
SWIDTH 555 0
DWIDTH 10 0
BBX 6 15 2 -1
BITMAP
80
80
00
00
84
84
00
00
00
00
00
00
00
84
84
ENDCHAR
STARTCHAR uni28D4
ENCODING 10452
SWIDTH 555 0
DWIDTH 10 0
BBX 6 11 2 -1
BITMAP
04
04
00
00
00
80
80
00
00
84
84
ENDCHAR
STARTCHAR uni28D5
ENCODING 10453
SWIDTH 555 0
DWIDTH 10 0
BBX 6 15 2 -1
BITMAP
80
80
00
00
04
04
00
00
00
80
80
00
00
84
84
ENDCHAR
STARTCHAR uni28D6
ENCODING 10454
SWIDTH 555 0
DWIDTH 10 0
BBX 6 11 2 -1
BITMAP
84
84
00
00
00
80
80
00
00
84
84
ENDCHAR
STARTCHAR uni28D7
ENCODING 10455
SWIDTH 555 0
DWIDTH 10 0
BBX 6 15 2 -1
BITMAP
80
80
00
00
84
84
00
00
00
80
80
00
00
84
84
ENDCHAR
STARTCHAR uni28D8
ENCODING 10456
SWIDTH 555 0
DWIDTH 10 0
BBX 6 15 2 -1
BITMAP
04
04
00
00
04
04
00
00
00
00
00
00
00
84
84
ENDCHAR
STARTCHAR uni28D9
ENCODING 10457
SWIDTH 555 0
DWIDTH 10 0
BBX 6 15 2 -1
BITMAP
84
84
00
00
04
04
00
00
00
00
00
00
00
84
84
ENDCHAR
STARTCHAR uni28DA
ENCODING 10458
SWIDTH 555 0
DWIDTH 10 0
BBX 6 15 2 -1
BITMAP
04
04
00
00
84
84
00
00
00
00
00
00
00
84
84
ENDCHAR
STARTCHAR uni28DB
ENCODING 10459
SWIDTH 555 0
DWIDTH 10 0
BBX 6 15 2 -1
BITMAP
84
84
00
00
84
84
00
00
00
00
00
00
00
84
84
ENDCHAR
STARTCHAR uni28DC
ENCODING 10460
SWIDTH 555 0
DWIDTH 10 0
BBX 6 15 2 -1
BITMAP
04
04
00
00
04
04
00
00
00
80
80
00
00
84
84
ENDCHAR
STARTCHAR uni28DD
ENCODING 10461
SWIDTH 555 0
DWIDTH 10 0
BBX 6 15 2 -1
BITMAP
84
84
00
00
04
04
00
00
00
80
80
00
00
84
84
ENDCHAR
STARTCHAR uni28DE
ENCODING 10462
SWIDTH 555 0
DWIDTH 10 0
BBX 6 15 2 -1
BITMAP
04
04
00
00
84
84
00
00
00
80
80
00
00
84
84
ENDCHAR
STARTCHAR uni28DF
ENCODING 10463
SWIDTH 555 0
DWIDTH 10 0
BBX 6 15 2 -1
BITMAP
84
84
00
00
84
84
00
00
00
80
80
00
00
84
84
ENDCHAR
STARTCHAR uni28E0
ENCODING 10464
SWIDTH 555 0
DWIDTH 10 0
BBX 6 6 2 -1
BITMAP
04
04
00
00
84
84
ENDCHAR
STARTCHAR uni28E1
ENCODING 10465
SWIDTH 555 0
DWIDTH 10 0
BBX 6 15 2 -1
BITMAP
80
80
00
00
00
00
00
00
00
04
04
00
00
84
84
ENDCHAR
STARTCHAR uni28E2
ENCODING 10466
SWIDTH 555 0
DWIDTH 10 0
BBX 6 11 2 -1
BITMAP
80
80
00
00
00
04
04
00
00
84
84
ENDCHAR
STARTCHAR uni28E3
ENCODING 10467
SWIDTH 555 0
DWIDTH 10 0
BBX 6 15 2 -1
BITMAP
80
80
00
00
80
80
00
00
00
04
04
00
00
84
84
ENDCHAR
STARTCHAR uni28E4
ENCODING 10468
SWIDTH 555 0
DWIDTH 10 0
BBX 6 6 2 -1
BITMAP
84
84
00
00
84
84
ENDCHAR
STARTCHAR uni28E5
ENCODING 10469
SWIDTH 555 0
DWIDTH 10 0
BBX 6 15 2 -1
BITMAP
80
80
00
00
00
00
00
00
00
84
84
00
00
84
84
ENDCHAR
STARTCHAR uni28E6
ENCODING 10470
SWIDTH 555 0
DWIDTH 10 0
BBX 6 11 2 -1
BITMAP
80
80
00
00
00
84
84
00
00
84
84
ENDCHAR
STARTCHAR uni28E7
ENCODING 10471
SWIDTH 555 0
DWIDTH 10 0
BBX 6 15 2 -1
BITMAP
80
80
00
00
80
80
00
00
00
84
84
00
00
84
84
ENDCHAR
STARTCHAR uni28E8
ENCODING 10472
SWIDTH 555 0
DWIDTH 10 0
BBX 6 15 2 -1
BITMAP
04
04
00
00
00
00
00
00
00
04
04
00
00
84
84
ENDCHAR
STARTCHAR uni28E9
ENCODING 10473
SWIDTH 555 0
DWIDTH 10 0
BBX 6 15 2 -1
BITMAP
84
84
00
00
00
00
00
00
00
04
04
00
00
84
84
ENDCHAR
STARTCHAR uni28EA
ENCODING 10474
SWIDTH 555 0
DWIDTH 10 0
BBX 6 15 2 -1
BITMAP
04
04
00
00
80
80
00
00
00
04
04
00
00
84
84
ENDCHAR
STARTCHAR uni28EB
ENCODING 10475
SWIDTH 555 0
DWIDTH 10 0
BBX 6 15 2 -1
BITMAP
84
84
00
00
80
80
00
00
00
04
04
00
00
84
84
ENDCHAR
STARTCHAR uni28EC
ENCODING 10476
SWIDTH 555 0
DWIDTH 10 0
BBX 6 15 2 -1
BITMAP
04
04
00
00
00
00
00
00
00
84
84
00
00
84
84
ENDCHAR
STARTCHAR uni28ED
ENCODING 10477
SWIDTH 555 0
DWIDTH 10 0
BBX 6 15 2 -1
BITMAP
84
84
00
00
00
00
00
00
00
84
84
00
00
84
84
ENDCHAR
STARTCHAR uni28EE
ENCODING 10478
SWIDTH 555 0
DWIDTH 10 0
BBX 6 15 2 -1
BITMAP
04
04
00
00
80
80
00
00
00
84
84
00
00
84
84
ENDCHAR
STARTCHAR uni28EF
ENCODING 10479
SWIDTH 555 0
DWIDTH 10 0
BBX 6 15 2 -1
BITMAP
84
84
00
00
80
80
00
00
00
84
84
00
00
84
84
ENDCHAR
STARTCHAR uni28F0
ENCODING 10480
SWIDTH 555 0
DWIDTH 10 0
BBX 6 11 2 -1
BITMAP
04
04
00
00
00
04
04
00
00
84
84
ENDCHAR
STARTCHAR uni28F1
ENCODING 10481
SWIDTH 555 0
DWIDTH 10 0
BBX 6 15 2 -1
BITMAP
80
80
00
00
04
04
00
00
00
04
04
00
00
84
84
ENDCHAR
STARTCHAR uni28F2
ENCODING 10482
SWIDTH 555 0
DWIDTH 10 0
BBX 6 11 2 -1
BITMAP
84
84
00
00
00
04
04
00
00
84
84
ENDCHAR
STARTCHAR uni28F3
ENCODING 10483
SWIDTH 555 0
DWIDTH 10 0
BBX 6 15 2 -1
BITMAP
80
80
00
00
84
84
00
00
00
04
04
00
00
84
84
ENDCHAR
STARTCHAR uni28F4
ENCODING 10484
SWIDTH 555 0
DWIDTH 10 0
BBX 6 11 2 -1
BITMAP
04
04
00
00
00
84
84
00
00
84
84
ENDCHAR
STARTCHAR uni28F5
ENCODING 10485
SWIDTH 555 0
DWIDTH 10 0
BBX 6 15 2 -1
BITMAP
80
80
00
00
04
04
00
00
00
84
84
00
00
84
84
ENDCHAR
STARTCHAR uni28F6
ENCODING 10486
SWIDTH 555 0
DWIDTH 10 0
BBX 6 11 2 -1
BITMAP
84
84
00
00
00
84
84
00
00
84
84
ENDCHAR
STARTCHAR uni28F7
ENCODING 10487
SWIDTH 555 0
DWIDTH 10 0
BBX 6 15 2 -1
BITMAP
80
80
00
00
84
84
00
00
00
84
84
00
00
84
84
ENDCHAR
STARTCHAR uni28F8
ENCODING 10488
SWIDTH 555 0
DWIDTH 10 0
BBX 6 15 2 -1
BITMAP
04
04
00
00
04
04
00
00
00
04
04
00
00
84
84
ENDCHAR
STARTCHAR uni28F9
ENCODING 10489
SWIDTH 555 0
DWIDTH 10 0
BBX 6 15 2 -1
BITMAP
84
84
00
00
04
04
00
00
00
04
04
00
00
84
84
ENDCHAR
STARTCHAR uni28FA
ENCODING 10490
SWIDTH 555 0
DWIDTH 10 0
BBX 6 15 2 -1
BITMAP
04
04
00
00
84
84
00
00
00
04
04
00
00
84
84
ENDCHAR
STARTCHAR uni28FB
ENCODING 10491
SWIDTH 555 0
DWIDTH 10 0
BBX 6 15 2 -1
BITMAP
84
84
00
00
84
84
00
00
00
04
04
00
00
84
84
ENDCHAR
STARTCHAR uni28FC
ENCODING 10492
SWIDTH 555 0
DWIDTH 10 0
BBX 6 15 2 -1
BITMAP
04
04
00
00
04
04
00
00
00
84
84
00
00
84
84
ENDCHAR
STARTCHAR uni28FD
ENCODING 10493
SWIDTH 555 0
DWIDTH 10 0
BBX 6 15 2 -1
BITMAP
84
84
00
00
04
04
00
00
00
84
84
00
00
84
84
ENDCHAR
STARTCHAR uni28FE
ENCODING 10494
SWIDTH 555 0
DWIDTH 10 0
BBX 6 15 2 -1
BITMAP
04
04
00
00
84
84
00
00
00
84
84
00
00
84
84
ENDCHAR
STARTCHAR uni28FF
ENCODING 10495
SWIDTH 555 0
DWIDTH 10 0
BBX 6 15 2 -1
BITMAP
84
84
00
00
84
84
00
00
00
84
84
00
00
84
84
ENDCHAR
STARTCHAR uni2E2C
ENCODING 11820
SWIDTH 555 0
DWIDTH 10 0
BBX 7 8 1 1
BITMAP
82
82
00
00
00
00
82
82
ENDCHAR
STARTCHAR uniE0A0
ENCODING 57504
SWIDTH 555 0
DWIDTH 10 0
BBX 9 18 0 -3
BITMAP
8000
8000
8400
8E00
9500
A480
8400
8400
8400
8800
1000
2000
4000
8000
8000
8000
8000
8000
ENDCHAR
STARTCHAR uniE0A1
ENCODING 57505
SWIDTH 555 0
DWIDTH 10 0
BBX 8 13 1 0
BITMAP
80
80
80
80
80
F8
00
11
19
15
13
11
11
ENDCHAR
STARTCHAR uniE0A2
ENCODING 57506
SWIDTH 555 0
DWIDTH 10 0
BBX 8 14 1 -1
BITMAP
3C
42
42
42
42
42
FF
FF
E7
C3
E7
FF
FF
FF
ENDCHAR
STARTCHAR uniE0B0
ENCODING 57520
SWIDTH 555 0
DWIDTH 10 0
BBX 9 18 0 -3
BITMAP
8000
C000
E000
F000
F800
FC00
FE00
FF00
FF80
FF80
FF00
FE00
FC00
F800
F000
E000
C000
8000
ENDCHAR
STARTCHAR uniE0B1
ENCODING 57521
SWIDTH 555 0
DWIDTH 10 0
BBX 9 18 0 -3
BITMAP
8000
4000
2000
1000
0800
0400
0200
0100
0080
0080
0100
0200
0400
0800
1000
2000
4000
8000
ENDCHAR
STARTCHAR uniE0B2
ENCODING 57522
SWIDTH 555 0
DWIDTH 10 0
BBX 9 18 1 -3
BITMAP
0080
0180
0380
0780
0F80
1F80
3F80
7F80
FF80
FF80
7F80
3F80
1F80
0F80
0780
0380
0180
0080
ENDCHAR
STARTCHAR uniE0B3
ENCODING 57523
SWIDTH 555 0
DWIDTH 10 0
BBX 9 18 1 -3
BITMAP
0080
0100
0200
0400
0800
1000
2000
4000
8000
8000
4000
2000
1000
0800
0400
0200
0100
0080
ENDCHAR
STARTCHAR uniF6BE
ENCODING 63166
SWIDTH 555 0
DWIDTH 10 0
BBX 5 12 2 -3
BITMAP
18
08
08
08
08
08
08
08
08
88
88
70
ENDCHAR
STARTCHAR uniFFFD
ENCODING 65533
SWIDTH 555 0
DWIDTH 10 0
BBX 7 12 1 0
BITMAP
FE
82
82
82
82
82
82
82
82
82
82
FE
ENDCHAR
ENDFONT
